<?xml version="1.0" standalone="no"?>
<!DOCTYPE svg PUBLIC "-//W3C//DTD SVG 1.1//EN" "http://www.w3.org/Graphics/SVG/1.1/DTD/svg11.dtd" >
<svg xmlns="http://www.w3.org/2000/svg" xmlns:xlink="http://www.w3.org/1999/xlink" version="1.1">
<metadata>
Created by FontForge 20170731 at Wed Feb  2 18:20:35 2022
 By Aleksey,,,
Copyright (c) 2015 by Radomir Tinkov. All rights reserved.
</metadata>
<defs>
<font id="Gilroy-SemiBoldItalic" horiz-adv-x="1085" >
  <font-face 
    font-family="Gilroy SemiBold Italic"
    font-weight="600"
    font-style="italic"
    font-stretch="normal"
    units-per-em="2048"
    panose-1="0 0 7 0 0 0 0 0 0 0"
    ascent="1638"
    descent="-410"
    x-height="1024"
    cap-height="1434"
    bbox="-670 -522 2167 1987"
    underline-thickness="102"
    underline-position="-307"
    slope="-10"
    unicode-range="U+0020-FB02"
  />
<missing-glyph horiz-adv-x="1024" 
d="M840 1638v-2048h-650v2048h650zM682 1501h-338v-67h133v-76h-135v-68h340v68h-135v76h135v67zM547 1237h-205v-213h340v70h-135v143zM477 1167v-73h-67v73h67zM682 969h-340v-68h135v-76h-135v-67h205v143h135v68zM682 846h-68v-135h-272v-70h340v205zM682 596h-205v-115
h70v47h67v-96h-204v164h-68v-231h340v231zM682 242h-340v-232h340v232zM614 174v-96h-204v96h204zM682 -37h-340v-67h143l-143 -97v-67h340v67h-209l143 97h66v67z" />
    <glyph glyph-name="fi" unicode="fi" horiz-adv-x="1112" 
d="M1075 1024l-180 -1024h-221l143 811h-340l-143 -811h-221l143 811h-156l37 213h156l4 20q36 216 169 316t368 100q108 0 221 -26l-35 -203q-93 16 -201 16q-132 0 -207 -46t-94 -157l-4 -20h561z" />
    <glyph glyph-name="fl" unicode="fl" horiz-adv-x="1112" 
d="M834 1460q150 0 311 -37l-250 -1423h-221l221 1264q-33 2 -96 2q-120 0 -190.5 -53t-90.5 -169l-4 -20h191l-37 -213h-191l-143 -811h-221l143 811h-156l37 213h156l4 20q36 216 169 316t368 100z" />
    <glyph glyph-name="f_f" unicode="ff" horiz-adv-x="1228" 
d="M862 1065q38 220 174.5 325.5t364.5 90.5l-39 -213q-238 22 -279 -203l-6 -41h242l-37 -213h-244l-141 -811h-221l141 811h-340l-143 -811h-221l143 811h-156l37 213h156l4 20q37 220 173 325.5t364 90.5l-37 -213q-241 22 -279 -203l-4 -20h342z" />
    <glyph glyph-name="f_f_i" unicode="ffi" horiz-adv-x="1675" 
d="M1638 1024l-180 -1024h-221l143 811h-342l-141 -811h-221l141 811h-340l-143 -811h-221l143 811h-156l37 213h156l4 20q37 220 173 325.5t364 90.5l-37 -213q-241 22 -279 -203l-4 -20h342l6 41q38 216 169 316t360 100q114 0 231 -27l-35 -203q-99 17 -201 17
q-132 0 -208 -46.5t-95 -156.5l-6 -41h561z" />
    <glyph glyph-name="f_f_l" unicode="ffl" horiz-adv-x="1675" 
d="M1401 1481q150 0 311 -37l-254 -1444h-221l225 1284q-33 2 -96 2q-120 0 -191 -52.5t-92 -168.5l-6 -41h191l-37 -213h-193l-141 -811h-221l141 811h-340l-143 -811h-221l143 811h-156l37 213h156l4 20q37 220 173 325.5t364 90.5l-37 -213q-241 22 -279 -203l-4 -20h342
l6 41q38 216 170.5 316t368.5 100z" />
    <glyph glyph-name=".notdef" horiz-adv-x="1024" 
d="M840 1638v-2048h-650v2048h650zM682 1501h-338v-67h133v-76h-135v-68h340v68h-135v76h135v67zM547 1237h-205v-213h340v70h-135v143zM477 1167v-73h-67v73h67zM682 969h-340v-68h135v-76h-135v-67h205v143h135v68zM682 846h-68v-135h-272v-70h340v205zM682 596h-205v-115
h70v47h67v-96h-204v164h-68v-231h340v231zM682 242h-340v-232h340v232zM614 174v-96h-204v96h204zM682 -37h-340v-67h143l-143 -97v-67h340v67h-209l143 97h66v67z" />
    <glyph glyph-name=".null" horiz-adv-x="0" 
 />
    <glyph glyph-name="nonmarkingreturn" horiz-adv-x="682" 
 />
    <glyph glyph-name="space" unicode=" " horiz-adv-x="512" 
 />
    <glyph glyph-name="exclam" unicode="!" horiz-adv-x="522" 
d="M164 451l55 573l72 410h266l-72 -410l-147 -573h-174zM166 -25q-63 0 -99.5 46.5t-25.5 111.5q11 64 61.5 107t118.5 43q63 0 100.5 -46.5t26.5 -109.5q-12 -66 -62 -109t-120 -43z" />
    <glyph glyph-name="quotedbl" unicode="&#x22;" horiz-adv-x="727" 
d="M207 983l47 451h215l-109 -451h-153zM535 983l47 451h215l-109 -451h-153z" />
    <glyph glyph-name="numbersign" unicode="#" horiz-adv-x="1249" 
d="M1225 819h-230l-69 -205h229l-57 -174h-232l-116 -338h-183l117 338h-229l-117 -338h-182l116 338h-233l59 174h234l69 205h-233l59 174h234l117 338h182l-117 -338h229l117 338h182l-116 -338h229zM743 614l70 205h-229l-70 -205h229z" />
    <glyph glyph-name="dollar" unicode="$" horiz-adv-x="1146" 
d="M715 813q133 -62 182 -93q165 -107 170 -275q1 -43 -8 -91q-34 -176 -169 -274t-325 -107l-30 -178h-134l33 185q-158 19 -263.5 102t-145.5 215l213 109q55 -173 235 -199l76 424q-32 14 -55.5 25.5t-54.5 27.5t-53.5 31t-48.5 34t-44 39.5t-36 44.5t-28 51.5t-17 58.5
t-6.5 67t7.5 75q14 74 49 136.5t82.5 105.5t106 73.5t120.5 44.5t125 15l31 178h133l-35 -190q115 -26 197.5 -96.5t124.5 -175.5l-209 -109q-59 118 -152 150zM453 1065q-14 -70 22.5 -114.5t116.5 -82.5l63 363q-75 -6 -132 -50t-70 -116zM817 381q16 69 -23 113.5
t-122 83.5l-66 -373q85 13 141 60.5t70 115.5z" />
    <glyph glyph-name="percent" unicode="%" horiz-adv-x="1529" 
d="M496 805q-95 0 -165.5 47t-101 122.5t-16.5 160.5q21 136 128 230.5t261 94.5q96 0 167.5 -50t100 -129t11.5 -167q-27 -132 -131 -220.5t-254 -88.5zM520 985q64 0 112.5 43t59.5 105q11 64 -21.5 106.5t-97.5 42.5q-64 0 -111.5 -42.5t-58.5 -106.5q-12 -62 20.5 -105
t96.5 -43zM168 213l1126 1053l111 -70l-1129 -1053zM1006 -25q-145 0 -225 101.5t-58 234.5q23 135 128.5 227.5t258.5 92.5q96 0 167 -49.5t100 -127.5t12 -165q-24 -131 -129.5 -222.5t-253.5 -91.5zM1030 156q63 0 112 43t60 104q11 64 -22 107t-97 43t-112.5 -43
t-59.5 -107q-11 -63 22 -105t97 -42z" />
    <glyph glyph-name="ampersand" unicode="&#x26;" horiz-adv-x="1386" 
d="M1087 692l189 -119q-70 -172 -178 -307l162 -215l-201 -104l-123 164q-190 -138 -424 -138q-224 0 -343 126t-83 319q49 257 334 395q-68 127 -45 270q29 173 161.5 275t319.5 102q158 0 268.5 -77t157.5 -222l-211 -112q-26 87 -85.5 134.5t-145.5 47.5q-87 0 -153 -47
t-79 -135q-10 -62 12 -118t70 -120l277 -369q63 96 120 250zM555 193q140 0 256 83l-283 375q-177 -77 -202 -231q-19 -101 42 -164t187 -63z" />
    <glyph glyph-name="quotesingle" unicode="'" horiz-adv-x="399" 
d="M207 983l47 451h215l-109 -451h-153z" />
    <glyph glyph-name="parenleft" unicode="(" horiz-adv-x="602" 
d="M213 -205q-146 449 -61 938q81 463 387 905h221q-305 -449 -387 -921q-82 -474 61 -922h-221z" />
    <glyph glyph-name="parenright" unicode=")" horiz-adv-x="600" 
d="M461 1638q146 -449 61 -938q-81 -463 -387 -905h-221q305 448 387 922t-61 921h221z" />
    <glyph glyph-name="asterisk" unicode="*" horiz-adv-x="813" 
d="M829 1247l-26 -147l-185 12l84 -147l-133 -78l-59 170l-121 -170l-121 78l135 147l-186 -12l27 147l182 -12l-84 147l135 78l60 -170l120 170l119 -78l-135 -147z" />
    <glyph glyph-name="plus" unicode="+" horiz-adv-x="1126" 
d="M1069 821l-37 -209h-346l-61 -346h-209l61 346h-346l37 209h346l61 346h209l-61 -346h346z" />
    <glyph glyph-name="comma" unicode="," horiz-adv-x="542" 
d="M389 246l-237 -533h-187l178 533h246z" />
    <glyph glyph-name="hyphen" unicode="-" horiz-adv-x="1044" 
d="M145 516l37 213h758l-37 -213h-758z" />
    <glyph glyph-name="period" unicode="." horiz-adv-x="522" 
d="M166 -25q-63 0 -99.5 46.5t-25.5 111.5q11 64 61.5 107t118.5 43q63 0 100.5 -46.5t26.5 -109.5q-12 -66 -62 -109t-120 -43z" />
    <glyph glyph-name="slash" unicode="/" horiz-adv-x="1075" 
d="M66 -205h-121l1136 1843h121z" />
    <glyph glyph-name="zero" unicode="0" horiz-adv-x="1294" 
d="M563 -27q-175 0 -289.5 98.5t-153 270.5t0.5 393q60 338 237.5 531.5t446.5 193.5q175 0 289 -98.5t152 -270.5t-1 -393q-60 -338 -236.5 -531.5t-445.5 -193.5zM592 203q159 0 266.5 132.5t151.5 381.5q43 248 -17.5 381t-218.5 133q-159 0 -266.5 -132.5t-151.5 -381.5
q-43 -248 17.5 -381t218.5 -133z" />
    <glyph glyph-name="one" unicode="1" horiz-adv-x="761" 
d="M565 1434h205l-252 -1434h-235l206 1176v-2l-301 -82l-22 208z" />
    <glyph glyph-name="two" unicode="2" 
d="M-27 0l33 184l590 510q104 89 165 165t73 151q19 103 -33 162t-146 59q-169 0 -293 -182l-186 120q93 144 225.5 217.5t284.5 73.5q87 0 164.5 -32.5t133.5 -90.5t80.5 -146.5t6.5 -191.5q-23 -125 -99.5 -228.5t-213.5 -219.5l-381 -324h581l-40 -227h-945z" />
    <glyph glyph-name="three" unicode="3" horiz-adv-x="1105" 
d="M1137 1434l-35 -201l-352 -389q141 -44 218.5 -156.5t49.5 -269.5q-19 -110 -73 -196t-131 -140t-168.5 -81.5t-192.5 -27.5q-165 0 -283.5 75.5t-161.5 221.5l213 113q47 -180 256 -180q122 0 204 62t101 169t-41 168.5t-182 61.5h-55l-70 143l369 405h-586l39 222h881z
" />
    <glyph glyph-name="four" unicode="4" horiz-adv-x="1177" 
d="M1147 477l-39 -219h-164l-45 -258h-237l45 258h-705l39 219l653 957h267l-654 -957h438l66 373h238l-66 -373h164z" />
    <glyph glyph-name="five" unicode="5" horiz-adv-x="1120" 
d="M1116 1212h-575l-80 -319h174q89 0 169.5 -33t139.5 -92t85.5 -150.5t8.5 -199.5q-19 -110 -72.5 -196t-130 -140t-167.5 -81.5t-191 -27.5q-168 0 -289.5 78.5t-167.5 229.5l216 112q22 -93 90 -141.5t176 -48.5q118 0 200 62.5t101 168.5t-41 168t-178 62h-418l188 770
h799z" />
    <glyph glyph-name="six" unicode="6" horiz-adv-x="1118" 
d="M627 952q141 0 248 -65.5t156 -182t24 -258.5q-38 -217 -195.5 -345t-384.5 -128q-146 0 -253.5 66t-154 182t-20.5 258q29 172 141 293l562 662h284l-411 -482h4zM819 463q21 122 -41 194t-182 72t-205.5 -72t-107.5 -194q-23 -122 38.5 -194t182.5 -72
q119 0 205.5 72.5t109.5 193.5z" />
    <glyph glyph-name="seven" unicode="7" horiz-adv-x="1003" 
d="M193 1434h911l-35 -205l-709 -1229h-260l697 1208h-643z" />
    <glyph glyph-name="eight" unicode="8" horiz-adv-x="1150" 
d="M1124 1036q-36 -198 -219 -299q89 -59 129.5 -152t22.5 -204q-36 -196 -188 -302t-380 -106q-144 0 -251 54t-157.5 155.5t-27.5 231.5q20 113 91.5 199.5t183.5 138.5q-69 53 -100 132t-13 177q24 133 103.5 225t186 133t232.5 41q87 0 163.5 -28t133.5 -80t82.5 -134
t7.5 -182zM449 1038q-17 -92 37.5 -145t146.5 -53q95 0 166 52.5t88 145.5q17 95 -37 147t-148 52q-93 0 -165 -52t-88 -147zM825 420q18 106 -47 164.5t-180 58.5q-117 0 -202 -58.5t-103 -164.5q-20 -105 44.5 -164t182.5 -59q119 0 202 58.5t103 164.5z" />
    <glyph glyph-name="nine" unicode="9" horiz-adv-x="1120" 
d="M717 1460q221 0 343.5 -145.5t84.5 -362.5q-29 -173 -148 -299l-555 -653h-282l407 481h-4q-141 0 -248 66t-156 183t-24 259q38 216 196 343.5t386 127.5zM371 971q-22 -120 40.5 -193t182.5 -73t206.5 72t108.5 194t-39.5 194t-181.5 72t-208 -72t-109 -194z" />
    <glyph glyph-name="colon" unicode=":" horiz-adv-x="522" 
d="M301 743q-63 0 -99.5 46.5t-25.5 111.5q11 64 61.5 107t118.5 43q63 0 100.5 -46.5t26.5 -109.5q-12 -66 -62 -109t-120 -43zM166 -25q-63 0 -99.5 46.5t-25.5 111.5q11 64 61.5 107t118.5 43q63 0 100.5 -46.5t26.5 -109.5q-12 -66 -62 -109t-120 -43z" />
    <glyph glyph-name="semicolon" unicode=";" horiz-adv-x="548" 
d="M328 743q-63 0 -99.5 46.5t-25.5 111.5q11 64 61.5 107t118.5 43q63 0 100.5 -46.5t26.5 -109.5q-12 -66 -62 -109t-120 -43zM389 246l-237 -533h-187l178 533h246z" />
    <glyph glyph-name="less" unicode="&#x3c;" horiz-adv-x="1075" 
d="M1096 1198l-45 -246l-662 -247l576 -248l-39 -221l-805 378l37 205z" />
    <glyph glyph-name="equal" unicode="=" 
d="M158 823l37 209h880l-37 -209h-880zM84 403l37 209h880l-38 -209h-879z" />
    <glyph glyph-name="greater" unicode="&#x3e;" horiz-adv-x="1075" 
d="M225 1198l801 -379l-16 -102l-19 -103l-936 -378l43 245l662 248l-574 248z" />
    <glyph glyph-name="question" unicode="?" horiz-adv-x="1118" 
d="M399 451q11 65 40 122.5t68 99.5t84 79.5t89.5 71.5t82 68t64.5 75t35 86q14 86 -35.5 132t-142.5 46q-98 0 -173.5 -50.5t-121.5 -144.5l-194 121q76 146 216.5 224.5t305.5 78.5q87 0 164 -28t132 -79t79.5 -129.5t7.5 -172.5q-11 -63 -41 -119t-69 -97.5t-84 -80
t-89.5 -73t-82.5 -69t-65 -75.5t-34 -86h-236zM432 -25q-63 0 -99.5 46.5t-25.5 111.5q11 64 61.5 107t118.5 43q63 0 100.5 -46.5t26.5 -109.5q-12 -66 -62 -109t-120 -43z" />
    <glyph glyph-name="at" unicode="@" horiz-adv-x="1607" 
d="M946 1253q93 0 176.5 -22t147 -60.5t116.5 -92t85.5 -116.5t54.5 -133.5t23 -143.5t-9 -146q-39 -215 -145.5 -320.5t-245.5 -105.5q-89 0 -148.5 42t-74.5 119q-97 -94 -230 -94q-132 0 -206 101.5t-48 242.5q25 142 125.5 232t231.5 90q122 0 192 -96l15 75h188
l-82 -463q-13 -74 8 -119.5t86 -45.5q89 0 160.5 88t103.5 268q23 133 -6.5 251t-99.5 202t-180.5 133t-245.5 49q-186 0 -355.5 -87t-286.5 -241.5t-151 -343.5q-34 -192 30.5 -347.5t212 -244t349.5 -88.5q196 0 350 53l-12 -69q-155 -49 -348 -49q-164 0 -299.5 58.5
t-222 159t-122.5 241.5t-7 300q27 152 107 286t195 230t263 151.5t305 55.5zM764 352q67 0 119.5 44.5t64.5 115.5q13 72 -23.5 117t-103.5 45q-69 0 -122.5 -45t-65.5 -117q-13 -71 24.5 -115.5t106.5 -44.5z" />
    <glyph glyph-name="A" unicode="A" horiz-adv-x="1341" 
d="M989 0l-47 289h-610l-154 -289h-258l772 1434h283l266 -1434h-252zM451 510h454l-106 655z" />
    <glyph glyph-name="B" unicode="B" horiz-adv-x="1249" 
d="M1223 1026q-13 -91 -64.5 -165.5t-130.5 -123.5q80 -52 118 -138.5t21 -199.5q-24 -174 -160.5 -286.5t-349.5 -112.5h-604l252 1434h545q180 0 289.5 -117.5t83.5 -290.5zM825 1212h-323l-66 -376h328q81 0 144.5 54t78.5 134q14 79 -30.5 133.5t-131.5 54.5zM936 422
q15 86 -31 143.5t-133 57.5h-375l-69 -402h366q91 0 159.5 58.5t82.5 142.5z" />
    <glyph glyph-name="C" unicode="C" horiz-adv-x="1503" 
d="M737 -27q-162 0 -293.5 61.5t-212 165.5t-113.5 244t-7 293q36 206 157.5 371.5t303 258.5t386.5 93q206 0 355 -91.5t223 -252.5l-213 -112q-106 227 -383 227q-225 0 -391 -145.5t-205 -368.5q-38 -223 77 -368.5t333 -145.5q144 0 262.5 62.5t197.5 174.5l193 -125
q-115 -159 -292.5 -250.5t-377.5 -91.5z" />
    <glyph glyph-name="D" unicode="D" horiz-adv-x="1468" 
d="M868 1434q140 0 258 -59.5t193.5 -159t106.5 -235.5t4 -284q-35 -198 -149 -356.5t-288.5 -249t-376.5 -90.5h-563l252 1434h563zM1202 723q37 213 -66.5 349t-306.5 136h-327l-174 -983h319q210 0 364 141t191 357z" />
    <glyph glyph-name="E" unicode="E" 
d="M1126 1208h-624l-66 -372h574l-39 -222h-574l-69 -389h637l-41 -225h-871l252 1434h860z" />
    <glyph glyph-name="F" unicode="F" horiz-adv-x="1060" 
d="M1106 1208h-604l-72 -401h584l-39 -225h-584l-102 -582h-236l252 1434h840z" />
    <glyph glyph-name="G" unicode="G" horiz-adv-x="1611" 
d="M1579 741l-16 -98q-34 -196 -145 -348t-283.5 -237t-380.5 -85q-167 0 -302 61.5t-217.5 166t-115.5 245.5t-6 297q36 205 157 368.5t303 256t390 92.5q210 0 362 -92.5t234 -257.5l-216 -113q-119 234 -399 234q-227 0 -393 -143.5t-205 -366.5q-25 -147 17 -264.5
t149 -185.5t262 -68q196 0 329.5 88t192.5 239h-471l37 211h717z" />
    <glyph glyph-name="H" unicode="H" horiz-adv-x="1372" 
d="M1155 1434h236l-252 -1434h-236l109 621h-615l-108 -621h-236l252 1434h236l-103 -588h615z" />
    <glyph glyph-name="I" unicode="I" horiz-adv-x="522" 
d="M305 1434h236l-252 -1434h-236z" />
    <glyph glyph-name="J" unicode="J" horiz-adv-x="1150" 
d="M459 -27q-335 0 -434 273l215 116q24 -83 82.5 -121t154.5 -38q126 0 202.5 60t96.5 171l176 1000h236l-176 -1002q-21 -119 -72.5 -208.5t-125.5 -143.5t-163 -80.5t-192 -26.5z" />
    <glyph glyph-name="K" unicode="K" horiz-adv-x="1232" 
d="M1378 1434l-729 -705l484 -729h-254l-467 698l-123 -698h-236l252 1434h236l-111 -633l660 633h288z" />
    <glyph glyph-name="L" unicode="L" horiz-adv-x="993" 
d="M328 225h585l-41 -225h-819l252 1434h236z" />
    <glyph glyph-name="M" unicode="M" horiz-adv-x="1658" 
d="M1677 1434l-252 -1434h-235l180 1020l-565 -719h-29l-305 739l-182 -1040h-236l252 1434h248l295 -727l561 727h268z" />
    <glyph glyph-name="N" unicode="N" horiz-adv-x="1382" 
d="M53 0l252 1434h178l510 -985l172 985h236l-252 -1434h-178l-508 985l-174 -985h-236z" />
    <glyph glyph-name="O" unicode="O" horiz-adv-x="1634" 
d="M729 -27q-203 0 -358.5 103.5t-225.5 279.5t-34 381q37 207 158 371.5t306 258t400 93.5q152 0 281 -62t212 -165.5t118.5 -245.5t8.5 -295q-38 -207 -159 -370.5t-306 -256t-401 -92.5zM760 203q220 0 390 144.5t210 365.5q38 222 -82.5 370t-339.5 148
q-143 0 -270 -66.5t-212 -184t-110 -263.5t19 -263.5t148 -184t247 -66.5z" />
    <glyph glyph-name="P" unicode="P" horiz-adv-x="1208" 
d="M815 1434q141 0 242 -63.5t144.5 -173.5t23.5 -245q-32 -202 -186.5 -331t-393.5 -129h-270l-86 -492h-236l252 1434h510zM991 973q19 109 -36 174t-173 65h-280l-88 -499h256q130 0 215 72t106 188z" />
    <glyph glyph-name="Q" unicode="Q" horiz-adv-x="1644" 
d="M1595 692q-52 -291 -272 -489l115 -144l-178 -139l-121 152q-193 -99 -410 -99q-148 0 -276 61.5t-212 164t-120.5 244t-9.5 294.5q37 206 160 371t308 258.5t396 93.5q152 0 281 -62t212 -165.5t118.5 -245.5t8.5 -295zM995 252l-217 272l178 138l228 -285
q138 138 176 336q38 222 -82.5 370t-339.5 148q-143 0 -270 -66.5t-212 -184t-110 -263.5t19 -263.5t148 -184t247 -66.5q125 0 235 49z" />
    <glyph glyph-name="R" unicode="R" horiz-adv-x="1255" 
d="M1260 952q-26 -143 -122 -249.5t-235 -151.5l225 -551h-239l-211 522h-297l-92 -522h-236l252 1434h563q123 0 221.5 -66.5t145.5 -178.5t25 -237zM1026 973q19 101 -38 170t-157 69h-329l-84 -479h338q97 0 174 69.5t96 170.5z" />
    <glyph glyph-name="S" unicode="S" horiz-adv-x="1198" 
d="M551 -27q-212 0 -346.5 94t-175.5 259l213 110q25 -110 105 -172.5t220 -62.5q124 0 200.5 49t94.5 131q9 40 -2 73t-32 56t-64.5 45.5t-79 36t-96.5 33.5q-34 12 -63.5 23t-61.5 25.5t-58.5 30t-53.5 34t-47.5 39.5t-39 45.5t-30 53t-18.5 60t-7 68.5t8 77
q14 77 50 140.5t85.5 107t112 73.5t128.5 44t134 14q176 0 295.5 -84.5t171.5 -228.5l-207 -109q-35 93 -101 144t-177 51q-97 0 -167 -45t-87 -123q-8 -39 2 -72t30.5 -56t61.5 -46t77.5 -37.5t94.5 -34.5q97 -35 152 -61t127 -79.5t97 -133.5t5 -187q-34 -187 -184 -286
t-367 -99z" />
    <glyph glyph-name="T" unicode="T" horiz-adv-x="1105" 
d="M1237 1434l-39 -226h-403l-213 -1208h-236l213 1208h-405l39 226h1044z" />
    <glyph glyph-name="U" unicode="U" horiz-adv-x="1333" 
d="M598 -27q-249 0 -384 140.5t-97 361.5l170 959h235l-166 -945q-23 -131 39.5 -208.5t214.5 -77.5q154 0 246 79.5t115 206.5l166 945h235l-170 -959q-42 -241 -206 -371.5t-398 -130.5z" />
    <glyph glyph-name="V" unicode="V" horiz-adv-x="1277" 
d="M408 0l-236 1434h244l170 -1153l577 1153h267l-740 -1434h-282z" />
    <glyph glyph-name="W" unicode="W" horiz-adv-x="2045" 
d="M356 0l-153 1434h235l107 -1125l522 1125h217l129 -1125l500 1125h254l-658 -1434h-272l-121 1047l-487 -1047h-273z" />
    <glyph glyph-name="X" unicode="X" horiz-adv-x="1228" 
d="M1335 1434l-551 -707l324 -727h-252l-231 520l-406 -520h-278l583 750l-305 684h252l213 -480l373 480h278z" />
    <glyph glyph-name="Y" unicode="Y" horiz-adv-x="1214" 
d="M1366 1434l-618 -791l-113 -643h-236l113 647l-340 787h252l231 -564l430 564h281z" />
    <glyph glyph-name="Z" unicode="Z" 
d="M1176 1434l-33 -195l-819 -1014h655l-39 -225h-954l37 195l819 1013h-627l39 226h922z" />
    <glyph glyph-name="bracketleft" unicode="[" horiz-adv-x="614" 
d="M735 1425h-239l-252 -1417h241l-39 -213h-460l325 1843h461z" />
    <glyph glyph-name="backslash" unicode="\" horiz-adv-x="1075" 
d="M766 -205l-496 1843h111l496 -1843h-111z" />
    <glyph glyph-name="bracketright" unicode="]" horiz-adv-x="614" 
d="M700 1638l-325 -1843h-461l39 213h237l252 1417h-239l37 213h460z" />
    <glyph glyph-name="asciicircum" unicode="^" horiz-adv-x="1105" 
d="M805 1434l266 -656h-233l-156 404l-301 -404h-252l496 656h180z" />
    <glyph glyph-name="underscore" unicode="_" horiz-adv-x="1064" 
d="M-78 -330l37 213h924l-37 -213h-924z" />
    <glyph glyph-name="grave" unicode="`" horiz-adv-x="514" 
d="M586 1157l-123 277h-260l174 -277h209z" />
    <glyph glyph-name="a" unicode="a" horiz-adv-x="1292" 
d="M1032 1024h221l-180 -1024h-221l20 121q-145 -148 -374 -148q-149 0 -256 80.5t-150 208.5t-16 273q41 228 203 372t378 144q118 0 207 -50t140 -143zM563 184q131 0 235 80.5t138 210.5l10 60q14 142 -66 223.5t-210 81.5q-133 0 -239.5 -86t-133.5 -236
q-25 -143 51 -238.5t215 -95.5z" />
    <glyph glyph-name="b" unicode="b" horiz-adv-x="1290" 
d="M793 1051q143 0 249.5 -76t152 -202.5t22.5 -272.5q-18 -107 -68 -202t-125 -167.5t-178 -115t-219 -42.5q-118 0 -204.5 51t-133.5 142l-29 -166h-221l252 1434h221l-96 -543q154 160 377 160zM995 518q24 143 -51 232.5t-213 89.5t-247.5 -92.5t-133.5 -235.5
q-25 -143 51.5 -235.5t214.5 -92.5q141 0 247.5 94.5t131.5 239.5z" />
    <glyph glyph-name="c" unicode="c" horiz-adv-x="1114" 
d="M537 -27q-115 0 -211 44.5t-156.5 120t-86.5 179.5t-7 218q25 149 112.5 266.5t219 183.5t284.5 66q155 0 267 -72t159 -195l-198 -102q-28 72 -92 112t-156 40q-138 0 -244 -88.5t-131 -227.5q-23 -139 51 -233.5t211 -94.5q90 0 167.5 43t125.5 117l178 -114
q-78 -127 -208.5 -195t-284.5 -68z" />
    <glyph glyph-name="d" unicode="d" horiz-adv-x="1294" 
d="M1106 1434h221l-252 -1434h-221l23 123q-147 -150 -379 -150q-149 0 -256 80.5t-150 208.5t-16 273q41 228 203 372t378 144q118 0 207.5 -51t139.5 -144zM565 184q131 0 235 81.5t138 211.5l10 60q14 142 -65.5 222.5t-210.5 80.5q-133 0 -240.5 -86t-134.5 -236
q-25 -143 52 -238.5t216 -95.5z" />
    <glyph glyph-name="e" unicode="e" horiz-adv-x="1193" 
d="M686 1051q151 0 262.5 -72.5t159.5 -196.5t20 -272q-20 -78 -24 -92h-815q3 -119 78.5 -180.5t197.5 -61.5q182 0 289 129l162 -123q-82 -102 -204 -155.5t-265 -53.5q-164 0 -281.5 75.5t-166 202.5t-23.5 281q25 148 112 266.5t218 185.5t280 67zM319 600h601
q1 126 -67 188t-181 62q-121 0 -215 -66.5t-138 -183.5z" />
    <glyph glyph-name="f" unicode="f" horiz-adv-x="667" 
d="M297 1044q37 217 173.5 324t363.5 92l-37 -213q-240 22 -279 -203l-4 -20h242l-37 -213h-242l-143 -811h-221l143 811h-156l37 213h156z" />
    <glyph glyph-name="g" unicode="g" horiz-adv-x="1294" 
d="M1038 1024h217l-172 -977q-22 -124 -76.5 -218.5t-133.5 -151.5t-174 -85t-205 -28q-167 0 -288.5 64t-176.5 184l198 102q66 -150 281 -150q149 0 241 73t117 210l19 107q-147 -160 -371 -160q-156 0 -265 77.5t-152 202t-19 271.5q35 218 197 362t376 144
q121 0 214 -52t143 -147zM571 203q138 0 244.5 87t132.5 226q14 75 -2 138t-55.5 103.5t-95.5 62.5t-121 22q-134 0 -243.5 -86.5t-131.5 -227.5q-23 -141 53.5 -233t218.5 -92z" />
    <glyph glyph-name="h" unicode="h" horiz-adv-x="1165" 
d="M752 1051q176 0 269 -114t60 -308l-110 -629h-221l106 606q20 117 -29.5 177.5t-158.5 60.5q-113 0 -196.5 -67.5t-111.5 -207.5l-100 -569h-221l252 1434h221l-94 -533q64 75 151 112.5t183 37.5z" />
    <glyph glyph-name="i" unicode="i" horiz-adv-x="477" 
d="M356 1178q-59 0 -92 41.5t-24 99.5t56.5 99.5t106.5 41.5q60 0 95 -41t24 -100q-9 -58 -56.5 -99.5t-109.5 -41.5zM39 0l180 1024h221l-180 -1024h-221z" />
    <glyph glyph-name="j" unicode="j" horiz-adv-x="518" 
d="M444 1460q58 0 93 -41t26 -100q-11 -58 -58.5 -99.5t-107.5 -41.5q-59 0 -92 41.5t-24 99.5t56 99.5t107 41.5zM72 -41l186 1065h221l-186 -1065q-40 -228 -159 -319t-333 -76l39 213q100 -9 157 34t75 148z" />
    <glyph glyph-name="k" unicode="k" horiz-adv-x="1044" 
d="M1098 1024l-535 -502l371 -522h-246l-342 492l-86 -492h-221l252 1434h221l-150 -846l465 436h271z" />
    <glyph glyph-name="l" unicode="l" horiz-adv-x="479" 
d="M41 0l111 633l151 862h221l-153 -868l-109 -627h-221z" />
    <glyph glyph-name="m" unicode="m" horiz-adv-x="1738" 
d="M1335 1051q169 0 261 -114.5t59 -301.5l-111 -635h-221l109 621q19 106 -24.5 164.5t-137.5 58.5q-97 0 -168 -64t-96 -192l-105 -588h-221l108 621q19 107 -21 165t-132 58q-93 0 -165 -58t-103 -176l-107 -610h-221l180 1024h221l-20 -113q128 140 309 140
q97 0 165 -42.5t101 -121.5q66 81 154.5 122.5t185.5 41.5z" />
    <glyph glyph-name="n" unicode="n" horiz-adv-x="1165" 
d="M752 1051q176 0 269 -114t60 -308l-110 -629h-221l106 606q20 117 -29.5 177.5t-158.5 60.5q-110 0 -194.5 -67t-113.5 -202l-100 -575h-221l180 1024h221l-22 -123q64 75 151 112.5t183 37.5z" />
    <glyph glyph-name="o" unicode="o" horiz-adv-x="1226" 
d="M541 -27q-159 0 -276 76t-166.5 205.5t-20.5 284.5q28 151 118.5 268t222.5 180.5t283 63.5q149 0 261.5 -75t163 -203.5t24.5 -280.5q-41 -229 -216 -374t-394 -145zM557 188q133 0 240.5 88t134.5 240q27 146 -51 233t-209 87q-132 0 -239 -87.5t-134 -236.5
q-25 -150 50.5 -237t207.5 -87z" />
    <glyph glyph-name="p" unicode="p" horiz-adv-x="1292" 
d="M793 1051q107 0 196 -46t144 -122.5t78 -179t6 -211.5q-37 -226 -198 -372.5t-376 -146.5q-121 0 -211.5 51.5t-140.5 145.5l-103 -580h-223l254 1434h221l-22 -129q150 156 375 156zM995 508q25 143 -51 237.5t-215 94.5q-131 0 -235 -81.5t-138 -211.5l-10 -60
q-13 -141 67 -222t210 -81q134 0 239.5 86.5t132.5 237.5z" />
    <glyph glyph-name="q" unicode="q" horiz-adv-x="1292" 
d="M1032 1024h221l-252 -1434h-221l94 531q-148 -148 -376 -148q-112 0 -202 47.5t-143.5 125.5t-74.5 179.5t-2 209.5q41 228 203 372t378 144q118 0 207 -50t140 -143zM563 184q131 0 236 81.5t137 211.5l10 55q14 143 -66 225.5t-210 82.5q-133 0 -239.5 -86t-133.5 -236
q-25 -143 51 -238.5t215 -95.5z" />
    <glyph glyph-name="r" unicode="r" horiz-adv-x="702" 
d="M414 870q122 179 346 172l-43 -239q-54 4 -107 -7.5t-105 -39.5t-91.5 -82.5t-57.5 -130.5l-96 -543h-221l180 1024h221z" />
    <glyph glyph-name="s" unicode="s" horiz-adv-x="966" 
d="M422 -27q-155 0 -256.5 65t-145.5 183l199 103q20 -67 76.5 -107.5t144.5 -40.5q78 0 127 28t58 81q6 33 -14 58.5t-57 40.5t-84.5 31.5t-97.5 31.5t-96 41.5t-79.5 59.5t-48 87.5t-1.5 124.5q24 133 140 212t264 79q131 0 227 -56t142 -157l-199 -101q-18 56 -67 85.5
t-115 29.5q-62 0 -111 -28t-59 -83q-7 -40 18.5 -67.5t72 -44.5t103.5 -33t113 -40t99.5 -57.5t64 -93.5t6.5 -141q-25 -142 -140 -216.5t-284 -74.5z" />
    <glyph glyph-name="t" unicode="t" horiz-adv-x="784" 
d="M500 811l-86 -492q-11 -64 14 -92.5t81 -30.5t138 3l-35 -199q-243 -31 -348.5 45.5t-70.5 273.5l86 492h-189l39 213h188l39 221l232 66l-51 -287h256l-39 -213h-254z" />
    <glyph glyph-name="u" unicode="u" horiz-adv-x="1165" 
d="M905 1024h221l-180 -1024h-221l23 123q-64 -75 -151 -112.5t-183 -37.5q-176 0 -269.5 114t-60.5 308l111 629h221l-107 -606q-20 -117 30 -177.5t159 -60.5q110 0 194 67t113 202z" />
    <glyph glyph-name="v" unicode="v" horiz-adv-x="1003" 
d="M838 1024h245l-553 -1024h-235l-195 1024h228l121 -762z" />
    <glyph glyph-name="w" unicode="w" horiz-adv-x="1587" 
d="M1395 1024h241l-501 -1024h-217l-93 690l-325 -690h-228l-141 1024h221l82 -707l332 707h217l-2 -4l94 -703z" />
    <glyph glyph-name="x" unicode="x" horiz-adv-x="1064" 
d="M1116 1024l-454 -508l292 -516h-241l-199 350l-315 -350h-269l480 535l-279 489h242l184 -324l291 324h268z" />
    <glyph glyph-name="y" unicode="y" horiz-adv-x="1064" 
d="M899 1024h246l-580 -1057q-112 -208 -252.5 -298t-312.5 -79l37 207q101 -6 168.5 41.5t128.5 155.5l18 29l-252 1001h228l176 -752z" />
    <glyph glyph-name="z" unicode="z" horiz-adv-x="927" 
d="M940 1024l-25 -147l-587 -668h489l-37 -209h-798l26 147l586 668h-449l37 209h758z" />
    <glyph glyph-name="braceleft" unicode="{" horiz-adv-x="733" 
d="M561 -221q-194 -15 -286 81.5t-58 284.5l55 316q18 96 -19.5 126t-131.5 25l39 215q91 -5 139 25.5t66 126.5l55 315q36 211 151 295.5t322 69.5l-37 -213q-96 11 -147 -21.5t-68 -130.5l-55 -315q-19 -111 -62.5 -171.5t-117.5 -92.5q121 -62 88 -254l-56 -316
q-18 -98 22 -130.5t140 -22.5z" />
    <glyph glyph-name="bar" unicode="|" horiz-adv-x="507" 
d="M-18 -410l331 1885h222l-332 -1885h-221z" />
    <glyph glyph-name="braceright" unicode="}" horiz-adv-x="733" 
d="M244 1659q194 15 286 -82t58 -285l-56 -315q-18 -96 20 -126.5t132 -25.5l-39 -215q-92 5 -139.5 -25t-65.5 -126l-55 -316q-36 -211 -150.5 -295t-322.5 -69l37 213q96 -11 147.5 21t67.5 130l55 316q19 111 62.5 171.5t117.5 92.5q-121 62 -88 254l56 315
q18 98 -22 131t-140 23z" />
    <glyph glyph-name="asciitilde" unicode="~" horiz-adv-x="1222" 
d="M293 543l-170 88q38 97 96 159.5t128 87t151 12.5t164 -61q96 -55 157.5 -65t103.5 19t81 104l167 -88q-76 -194 -223 -246.5t-313 47.5q-95 55 -157 66t-104.5 -18.5t-80.5 -104.5z" />
    <glyph glyph-name="exclamdown" unicode="&#xa1;" horiz-adv-x="522" 
d="M356 1049q63 0 99.5 -46.5t25.5 -111.5q-11 -64 -61.5 -107t-118.5 -43q-63 0 -100.5 46.5t-26.5 109.5q12 66 62 109t120 43zM358 573l-55 -573l-72 -410h-266l72 410l147 573h174z" />
    <glyph glyph-name="cent" unicode="&#xa2;" horiz-adv-x="1116" 
d="M596 395q90 0 167.5 43t125.5 117l178 -115q-78 -127 -209 -194.5t-285 -67.5q-63 0 -133 17l-96 -195h-119l115 233q-130 68 -192 204t-35 302q25 149 112.5 266.5t219 183.5t284.5 66q53 0 111 -10l94 189h119l-109 -222q149 -67 211 -223l-199 -102q-37 87 -112 123
l-303 -611q36 -4 55 -4zM334 723q-15 -93 14 -168t94 -117l295 598q-8 2 -28 2q-138 0 -244 -88.5t-131 -226.5z" />
    <glyph glyph-name="sterling" unicode="&#xa3;" horiz-adv-x="1193" 
d="M483 571l-61 -344h696l-41 -227h-1095l41 227h163l62 344h-133l37 207h131l43 238q39 222 169.5 333t323.5 111q145 0 251 -77t149 -212l-207 -108q-30 85 -82 126.5t-137 41.5q-86 0 -150 -54.5t-82 -160.5l-43 -238h436l-36 -207h-435z" />
    <glyph glyph-name="currency" unicode="&#xa4;" horiz-adv-x="1118" 
d="M1157 1130l-170 -145q74 -116 47 -272q-27 -152 -141 -269l117 -141l-84 -70l-117 142q-133 -90 -289 -90q-146 0 -248 86l-168 -142l-69 74l170 146q-74 116 -47 272q27 154 141 268l-117 141l80 72l119 -143q136 90 291 90q146 0 246 -84l167 141zM377 717
q-17 -95 34 -158t146 -63t168 62.5t90 158.5q17 95 -34 158t-146 63t-168 -62.5t-90 -158.5z" />
    <glyph glyph-name="yen" unicode="&#xa5;" horiz-adv-x="1214" 
d="M1366 1434l-551 -703h293l-27 -149h-344l-18 -103h344l-27 -149h-344l-57 -330h-236l58 330h-342l26 149h342l19 103h-342l26 149h289l-303 703h252l231 -564l430 564h281z" />
    <glyph glyph-name="brokenbar" unicode="&#xa6;" horiz-adv-x="507" 
d="M180 717l133 758h222l-134 -758h-221zM-18 -410l133 758h221l-133 -758h-221z" />
    <glyph glyph-name="section" unicode="&#xa7;" horiz-adv-x="1097" 
d="M766 918q61 -26 109.5 -58t89 -77t57.5 -105.5t4 -130.5q-25 -154 -174 -248q65 -91 43 -217q-27 -152 -144 -231.5t-292 -79.5q-317 0 -422 264l199 106q55 -172 243 -172q81 0 133 31t62 90q7 36 -7.5 66t-60.5 60t-74.5 44.5t-101.5 46.5l-33 15q-296 128 -252 374
q25 152 179 244q-57 90 -35 215q27 148 139.5 226.5t273.5 78.5q130 0 229.5 -65t149.5 -189l-188 -96q-62 152 -207 152q-68 0 -117 -31.5t-59 -89.5q-4 -26 1.5 -48.5t26 -43.5t37.5 -35t57.5 -34.5t61.5 -30t72 -31.5zM367 686q-10 -65 31.5 -108.5t125.5 -77.5
q14 -6 56.5 -23t73 -30.5t57.5 -28.5q77 50 92 129q11 67 -33 109.5t-137 80.5q-129 54 -170 78q-81 -48 -96 -129z" />
    <glyph glyph-name="dieresis" unicode="&#xa8;" horiz-adv-x="686" 
d="M276 1143q-51 0 -81 36t-21 87t51.5 87t93.5 36t80.5 -36t20.5 -87t-51 -87t-93 -36zM666 1143q-51 0 -81.5 36t-21.5 87t52 87t94 36t80 -36t20 -87t-50.5 -87t-92.5 -36z" />
    <glyph glyph-name="copyright" unicode="&#xa9;" horiz-adv-x="1626" 
d="M729 -25q-148 0 -275.5 60.5t-212 162t-121 241.5t-9.5 290q27 151 107 286.5t194 232.5t260.5 153.5t300.5 56.5q148 0 275 -60.5t211 -161.5t120 -240.5t10 -290.5q-37 -203 -161 -370t-309 -263.5t-390 -96.5zM735 41q186 0 355 91t282.5 245.5t147.5 339.5
q31 184 -33.5 340t-203 246t-318.5 90q-186 0 -355.5 -90.5t-283 -245.5t-144.5 -340q-25 -137 7 -262.5t107 -216t189.5 -144t249.5 -53.5zM786 319q-110 0 -193.5 57.5t-120 153t-17.5 203.5q29 165 156.5 274t295.5 109q105 0 192 -54.5t132 -143.5l-176 -91
q-53 95 -170 95q-90 0 -156 -61t-80 -144q-14 -82 30 -143.5t130 -61.5q59 0 111.5 27.5t85.5 74.5l159 -102q-67 -91 -168 -142t-211 -51z" />
    <glyph glyph-name="guillemotleft" unicode="&#xab;" 
d="M668 1012l-293 -387l153 -371h-217l-157 379l286 379h228zM1040 1012l-295 -394l152 -364h-217l-156 375l289 383h227z" />
    <glyph glyph-name="logicalnot" unicode="&#xac;" horiz-adv-x="1105" 
d="M1059 821l-80 -450h-221l43 241h-680l37 209h901z" />
    <glyph glyph-name="registered" unicode="&#xae;" horiz-adv-x="1626" 
d="M973 1458q148 0 275 -60.5t211 -161.5t120 -240.5t10 -290.5q-37 -203 -161 -370t-309 -263.5t-390 -96.5q-148 0 -275.5 60.5t-212 162t-121 241.5t-9.5 290q27 151 107 286.5t194 232.5t260.5 153.5t300.5 56.5zM1520 717q31 184 -33.5 340t-203 246t-318.5 90
q-186 0 -355.5 -90.5t-283 -245.5t-144.5 -340q-25 -137 7 -262.5t107 -216t189.5 -144t249.5 -53.5q186 0 355 91t282.5 245.5t147.5 339.5zM940 1096q124 0 193.5 -80t50.5 -189q-26 -152 -158 -215l104 -274h-196l-78 240h-6h-96l-43 -240h-189l133 758h285zM813 922
l-31 -181h86q53 0 85 24.5t38 65.5q19 91 -90 91h-88z" />
    <glyph glyph-name="macron" unicode="&#xaf;" horiz-adv-x="657" 
d="M158 1167l30 183h574l-31 -183h-573z" />
    <glyph glyph-name="degree" unicode="&#xb0;" horiz-adv-x="811" 
d="M496 1004q-140 0 -221 100.5t-58 236.5q25 137 133.5 227.5t255.5 90.5q140 0 221 -100t58 -236q-25 -139 -130.5 -229t-258.5 -90zM526 1188q63 0 109 40.5t57 102.5t-22 103t-95 41t-108 -41t-57 -103q-9 -62 21.5 -102.5t94.5 -40.5z" />
    <glyph glyph-name="plusminus" unicode="&#xb1;" horiz-adv-x="1128" 
d="M754 991h346l-37 -209h-346l-55 -311h-209l55 311h-346l37 209h346l53 309h209zM47 133l37 209h901l-37 -209h-901z" />
    <glyph glyph-name="acute" unicode="&#xb4;" horiz-adv-x="512" 
d="M154 1157h219l258 277h-273z" />
    <glyph glyph-name="uni00B5" unicode="&#xb5;" horiz-adv-x="1255" 
d="M1020 276q-6 -31 9 -49t46 -18h76l-37 -209h-115q-68 0 -118.5 30t-73.5 85q-128 -142 -324 -142q-129 0 -215 70l-80 -453h-223l254 1434h221l-108 -618q-15 -109 34.5 -167.5t153.5 -58.5q116 0 202 73.5t112 223.5l96 547h221z" />
    <glyph glyph-name="paragraph" unicode="&#xb6;" horiz-adv-x="1308" 
d="M1380 1434l-34 -197h-125l-289 -1647h-209l289 1647h-185l-288 -1647h-209l172 983q-117 2 -205.5 64t-127 164t-17.5 217q30 178 175.5 297t325.5 119h727z" />
    <glyph glyph-name="periodcentered" unicode="&#xb7;" horiz-adv-x="522" 
d="M268 559q-63 0 -99.5 46.5t-25.5 111.5q11 64 62 106.5t119 42.5q63 0 100.5 -46t26.5 -109q-12 -66 -62 -109t-121 -43z" />
    <glyph glyph-name="cedilla" unicode="&#xb8;" horiz-adv-x="522" 
d="M215 -94q65 -15 103.5 -61.5t27.5 -114.5q-37 -206 -473 -172l29 161q119 -10 184.5 4.5t71.5 47.5q11 58 -140 61l31 168h182z" />
    <glyph glyph-name="guillemotright" unicode="&#xbb;" horiz-adv-x="1087" 
d="M449 1012l155 -375l-289 -383h-227l295 393l-152 365h218zM817 1012l158 -379l-287 -379h-227l293 387l-154 371h217z" />
    <glyph glyph-name="onequarter" unicode="&#xbc;" horiz-adv-x="1673" 
d="M356 1229l-180 -51l-20 168l262 88h164l-146 -820h-188zM1219 1434h174l-1061 -1434h-174zM1602 311l-31 -172h-88l-25 -139h-182l24 139h-397l31 172l360 508h211l-352 -508h176l29 162h182l-29 -162h91z" />
    <glyph glyph-name="onehalf" unicode="&#xbd;" horiz-adv-x="1662" 
d="M356 1229l-180 -51l-20 168l262 88h164l-146 -820h-188zM1219 1434h174l-1061 -1434h-174zM1599 571q-10 -64 -53 -119t-125 -122l-188 -156h307l-29 -174h-602l23 131l377 318q50 42 73 71.5t29 61.5q8 40 -15.5 65t-70.5 25q-49 0 -86.5 -29t-73.5 -86l-147 92
q52 91 139 144t195 53q127 0 197.5 -76t49.5 -199z" />
    <glyph glyph-name="threequarters" unicode="&#xbe;" horiz-adv-x="1855" 
d="M711 846q-23 -126 -116.5 -192t-236.5 -66q-215 0 -284 178l166 86q20 -51 53 -73.5t90 -22.5q59 0 95 27.5t44 74.5q7 47 -22 75t-86 28h-31l-55 110l182 189h-315l28 174h553l-26 -148l-187 -194q83 -28 123 -93.5t25 -152.5zM1401 1434h174l-1061 -1434h-174z
M1784 311l-31 -172h-88l-25 -139h-182l25 139h-398l31 172l361 508h211l-353 -508h176l29 162h182l-28 -162h90z" />
    <glyph glyph-name="questiondown" unicode="&#xbf;" horiz-adv-x="1118" 
d="M686 1049q63 0 99.5 -46.5t25.5 -111.5q-11 -64 -61.5 -107t-118.5 -43q-63 0 -100.5 46.5t-26.5 109.5q12 66 62 109t120 43zM719 573q-11 -65 -40 -122.5t-68 -99.5t-84 -79.5t-89.5 -71.5t-82 -68t-64.5 -75t-35 -86q-14 -86 35.5 -132t142.5 -46q98 0 173.5 50.5
t121.5 144.5l195 -121q-76 -146 -217 -224.5t-306 -78.5q-87 0 -164 28t-132 79t-79.5 129.5t-7.5 172.5q11 63 41 119t69 97.5t84 80t89.5 73t82.5 69t65 75.5t34 86h236z" />
    <glyph glyph-name="Agrave" unicode="&#xc0;" horiz-adv-x="1341" 
d="M991 1567h-209l-174 276h260zM989 0l-47 289h-610l-154 -289h-258l772 1434h283l266 -1434h-252zM451 510h454l-106 655z" />
    <glyph glyph-name="Aacute" unicode="&#xc1;" horiz-adv-x="1341" 
d="M1192 1843l-258 -276h-219l205 276h272zM989 0l-47 289h-610l-154 -289h-258l772 1434h283l266 -1434h-252zM451 510h454l-106 655z" />
    <glyph glyph-name="Acircumflex" unicode="&#xc2;" horiz-adv-x="1341" 
d="M883 1706l-138 -150h-227l266 287h232l168 -287h-223zM989 0l-47 289h-610l-154 -289h-258l772 1434h283l266 -1434h-252zM451 510h454l-106 655z" />
    <glyph glyph-name="Atilde" unicode="&#xc3;" horiz-adv-x="1341" 
d="M854 1618q-26 20 -43.5 31t-34.5 14.5t-28 -5.5t-20 -30t-15 -57h-183q13 107 54 175.5t95.5 90.5t114.5 11.5t115 -52.5q58 -52 92 -45.5t50 92.5h182q-13 -107 -54.5 -175.5t-95.5 -90.5t-114 -11.5t-115 52.5zM989 0l-47 289h-610l-154 -289h-258l772 1434h283
l266 -1434h-252zM451 510h454l-106 655z" />
    <glyph glyph-name="Adieresis" unicode="&#xc4;" horiz-adv-x="1341" 
d="M659 1552q-51 0 -81 36t-21 87t51.5 87t93.5 36t80.5 -36t20.5 -87t-51 -87t-93 -36zM1049 1552q-51 0 -81.5 36t-21.5 87t52 87t94 36t80 -36t20 -87t-50.5 -87t-92.5 -36zM989 0l-47 289h-610l-154 -289h-258l772 1434h283l266 -1434h-252zM451 510h454l-106 655z" />
    <glyph glyph-name="Aring" unicode="&#xc5;" horiz-adv-x="1341" 
d="M989 0l-47 289h-610l-154 -289h-258l748 1391q-37 33 -53 81t-7 103q17 98 95.5 160.5t185.5 62.5q110 0 168.5 -69.5t40.5 -167.5q-19 -115 -115 -177l258 -1384h-252zM766 1569q-6 -38 13 -62t59 -24q42 0 71 23.5t35 60.5t-14.5 61.5t-61.5 24.5q-40 0 -67 -23
t-35 -61zM451 510h454l-106 655z" />
    <glyph glyph-name="AE" unicode="&#xc6;" horiz-adv-x="1802" 
d="M1843 1208h-567l-66 -372h527l-39 -222h-527l-69 -389h579l-41 -225h-809l52 289h-477l-226 -289h-270l1110 1434h862zM578 510h344l100 569z" />
    <glyph glyph-name="Ccedilla" unicode="&#xc7;" horiz-adv-x="1503" 
d="M754 203q144 0 262.5 62.5t197.5 174.5l193 -125q-102 -141 -255.5 -230t-330.5 -108l-12 -71q65 -15 103.5 -61.5t27.5 -114.5q-37 -206 -473 -172l29 161q119 -10 184.5 4.5t71.5 47.5q11 58 -140 61l27 148q-187 23 -319 131t-186 272t-23 354q36 206 157.5 371.5
t303 258.5t386.5 93q206 0 355 -91.5t223 -252.5l-213 -112q-106 227 -383 227q-225 0 -391 -145.5t-205 -368.5q-38 -223 77 -368.5t333 -145.5z" />
    <glyph glyph-name="Egrave" unicode="&#xc8;" 
d="M895 1567h-209l-174 276h260zM1126 1208h-624l-66 -372h574l-39 -222h-574l-69 -389h637l-41 -225h-871l252 1434h860z" />
    <glyph glyph-name="Eacute" unicode="&#xc9;" 
d="M1096 1843l-258 -276h-220l205 276h273zM1126 1208h-624l-66 -372h574l-39 -222h-574l-69 -389h637l-41 -225h-871l252 1434h860z" />
    <glyph glyph-name="Ecircumflex" unicode="&#xca;" 
d="M786 1706l-137 -150h-227l266 287h232l167 -287h-223zM1126 1208h-624l-66 -372h574l-39 -222h-574l-69 -389h637l-41 -225h-871l252 1434h860z" />
    <glyph glyph-name="Edieresis" unicode="&#xcb;" 
d="M563 1552q-51 0 -81 36t-21 87t51.5 87t93.5 36t80.5 -36t20.5 -87t-51 -87t-93 -36zM952 1552q-51 0 -81 36t-21 87t51.5 87t93.5 36t80.5 -36t20.5 -87t-51 -87t-93 -36zM1126 1208h-624l-66 -372h574l-39 -222h-574l-69 -389h637l-41 -225h-871l252 1434h860z" />
    <glyph glyph-name="Igrave" unicode="&#xcc;" horiz-adv-x="522" 
d="M582 1567l-123 276h-260l174 -276h209zM305 1434h236l-252 -1434h-236z" />
    <glyph glyph-name="Iacute" unicode="&#xcd;" horiz-adv-x="522" 
d="M305 1567h219l258 276h-272zM305 1434h236l-252 -1434h-236z" />
    <glyph glyph-name="Icircumflex" unicode="&#xce;" horiz-adv-x="522" 
d="M606 1843l168 -287h-223l-78 150l-137 -150h-227l266 287h231zM53 0l252 1434h236l-252 -1434h-236z" />
    <glyph glyph-name="Idieresis" unicode="&#xcf;" horiz-adv-x="522" 
d="M250 1552q-51 0 -81.5 36t-21.5 87t52 87t94 36t80 -36t20 -87t-50.5 -87t-92.5 -36zM639 1552q-51 0 -81 36t-21 87t51.5 87t93.5 36t80 -36t20 -87t-50.5 -87t-92.5 -36zM305 1434h236l-252 -1434h-236z" />
    <glyph glyph-name="Eth" unicode="&#xd0;" horiz-adv-x="1531" 
d="M932 1434q140 0 258 -59.5t193 -159t106 -235.5t4 -284q-35 -198 -148.5 -356.5t-288 -249t-376.5 -90.5h-563l104 600h-153l36 213h156l109 621h563zM1266 723q37 213 -66.5 349t-306.5 136h-328l-69 -395h366l-37 -213h-368l-66 -375h320q210 0 364 141t191 357z" />
    <glyph glyph-name="Ntilde" unicode="&#xd1;" horiz-adv-x="1382" 
d="M551 1571q13 107 54 175.5t95.5 90.5t114.5 11.5t115 -52.5q58 -52 91.5 -45.5t49.5 92.5h182q-13 -107 -54.5 -175.5t-95.5 -90.5t-114 -11.5t-115 52.5q-26 20 -43.5 31t-34.5 14.5t-28 -5.5t-20 -30t-15 -57h-182zM53 0l252 1434h178l510 -985l172 985h236l-252 -1434
h-178l-508 985l-174 -985h-236z" />
    <glyph glyph-name="Ograve" unicode="&#xd2;" horiz-adv-x="1634" 
d="M1139 1577l-123 276h-260l174 -276h209zM729 -27q-203 0 -358.5 103.5t-225.5 279.5t-34 381q37 207 158 371.5t306 258t400 93.5q152 0 281 -62t212 -165.5t118.5 -245.5t8.5 -295q-38 -207 -159 -370.5t-306 -256t-401 -92.5zM760 203q220 0 390 144.5t210 365.5
q38 222 -82.5 370t-339.5 148q-143 0 -270 -66.5t-212 -184t-110 -263.5t19 -263.5t148 -184t247 -66.5z" />
    <glyph glyph-name="Oacute" unicode="&#xd3;" horiz-adv-x="1634" 
d="M862 1577h219l258 276h-272zM729 -27q-203 0 -358.5 103.5t-225.5 279.5t-34 381q37 207 158 371.5t306 258t400 93.5q152 0 281 -62t212 -165.5t118.5 -245.5t8.5 -295q-38 -207 -159 -370.5t-306 -256t-401 -92.5zM760 203q220 0 390 144.5t210 365.5q38 222 -82.5 370
t-339.5 148q-143 0 -270 -66.5t-212 -184t-110 -263.5t19 -263.5t148 -184t247 -66.5z" />
    <glyph glyph-name="Ocircumflex" unicode="&#xd4;" horiz-adv-x="1634" 
d="M1030 1716l-137 -149h-227l266 286h231l168 -286h-223zM975 1460q152 0 281 -62t212 -165.5t118.5 -245.5t8.5 -295q-38 -207 -159 -370.5t-306 -256t-401 -92.5q-203 0 -358.5 103.5t-225.5 279.5t-34 381q37 207 158 371.5t306 258t400 93.5zM1360 713
q38 222 -82.5 370t-339.5 148q-143 0 -270 -66.5t-212 -184t-110 -263.5t19 -263.5t148 -184t247 -66.5q220 0 390 144.5t210 365.5z" />
    <glyph glyph-name="Otilde" unicode="&#xd5;" horiz-adv-x="1634" 
d="M678 1581q13 107 54 175.5t95.5 90.5t114.5 11.5t115 -52.5q58 -52 91.5 -45.5t49.5 92.5h182q-13 -107 -54.5 -175.5t-95.5 -90.5t-114 -11.5t-115 52.5q-26 20 -43.5 31t-34.5 14.5t-28 -5.5t-20 -30t-15 -57h-182zM729 -27q-203 0 -358.5 103.5t-225.5 279.5t-34 381
q37 207 158 371.5t306 258t400 93.5q152 0 281 -62t212 -165.5t118.5 -245.5t8.5 -295q-38 -207 -159 -370.5t-306 -256t-401 -92.5zM760 203q220 0 390 144.5t210 365.5q38 222 -82.5 370t-339.5 148q-143 0 -270 -66.5t-212 -184t-110 -263.5t19 -263.5t148 -184
t247 -66.5z" />
    <glyph glyph-name="Odieresis" unicode="&#xd6;" horiz-adv-x="1634" 
d="M807 1563q-51 0 -81 36t-21 87t51.5 86.5t93.5 35.5t80 -35.5t20 -86.5t-50.5 -87t-92.5 -36zM1196 1563q-51 0 -81 36t-21 87t51.5 86.5t93.5 35.5t80 -35.5t20 -86.5t-50.5 -87t-92.5 -36zM729 -27q-203 0 -358.5 103.5t-225.5 279.5t-34 381q37 207 158 371.5t306 258
t400 93.5q152 0 281 -62t212 -165.5t118.5 -245.5t8.5 -295q-38 -207 -159 -370.5t-306 -256t-401 -92.5zM760 203q220 0 390 144.5t210 365.5q38 222 -82.5 370t-339.5 148q-143 0 -270 -66.5t-212 -184t-110 -263.5t19 -263.5t148 -184t247 -66.5z" />
    <glyph glyph-name="multiply" unicode="&#xd7;" horiz-adv-x="1019" 
d="M1001 979l-309 -266l217 -258l-161 -144l-220 260l-301 -260l-133 144l307 266l-215 258l160 143l219 -260l299 260z" />
    <glyph glyph-name="Oslash" unicode="&#xd8;" horiz-adv-x="1650" 
d="M1477 1239q89 -108 124.5 -249.5t8.5 -297.5q-27 -154 -104.5 -287.5t-190 -228.5t-260.5 -149t-310 -54q-231 0 -399 133l-121 -120l-121 75l144 144q-83 106 -115.5 243.5t-5.5 288.5q36 206 157 371t306.5 258.5t400.5 93.5q218 0 385 -125l113 113l121 -76zM362 717
q-37 -195 58 -340l784 784q-106 70 -250 70q-219 0 -386.5 -146t-205.5 -368zM1374 713q37 206 -69 354l-789 -788q109 -76 258 -76q221 0 391.5 144.5t208.5 365.5z" />
    <glyph glyph-name="Ugrave" unicode="&#xd9;" horiz-adv-x="1333" 
d="M985 1567l-123 276h-260l174 -276h209zM598 -27q-249 0 -384 140.5t-97 361.5l170 959h235l-166 -945q-23 -131 39.5 -208.5t214.5 -77.5q154 0 246 79.5t115 206.5l166 945h235l-170 -959q-42 -241 -206 -371.5t-398 -130.5z" />
    <glyph glyph-name="Uacute" unicode="&#xda;" horiz-adv-x="1333" 
d="M709 1567h219l258 276h-273zM598 -27q-249 0 -384 140.5t-97 361.5l170 959h235l-166 -945q-23 -131 39.5 -208.5t214.5 -77.5q154 0 246 79.5t115 206.5l166 945h235l-170 -959q-42 -241 -206 -371.5t-398 -130.5z" />
    <glyph glyph-name="Ucircumflex" unicode="&#xdb;" horiz-adv-x="1333" 
d="M877 1706l-138 -150h-227l266 287h232l168 -287h-224zM1137 1434h235l-170 -959q-42 -241 -206 -371.5t-398 -130.5q-249 0 -384 140.5t-97 361.5l170 959h235l-166 -945q-23 -131 39.5 -208.5t214.5 -77.5q154 0 246 79.5t115 206.5z" />
    <glyph glyph-name="Udieresis" unicode="&#xdc;" horiz-adv-x="1333" 
d="M653 1552q-51 0 -81 36t-21 87t51.5 87t93.5 36t80.5 -36t20.5 -87t-51 -87t-93 -36zM1042 1552q-51 0 -81 36t-21 87t51.5 87t93.5 36t80.5 -36t20.5 -87t-51 -87t-93 -36zM598 -27q-249 0 -384 140.5t-97 361.5l170 959h235l-166 -945q-23 -131 39.5 -208.5
t214.5 -77.5q154 0 246 79.5t115 206.5l166 945h235l-170 -959q-42 -241 -206 -371.5t-398 -130.5z" />
    <glyph glyph-name="Yacute" unicode="&#xdd;" horiz-adv-x="1214" 
d="M1124 1843l-258 -276h-219l205 276h272zM1366 1434l-618 -791l-113 -643h-236l113 647l-340 787h252l231 -564l430 564h281z" />
    <glyph glyph-name="Thorn" unicode="&#xde;" horiz-adv-x="1208" 
d="M774 1188q213 0 327 -137.5t81 -343.5q-30 -202 -185 -331.5t-395 -129.5h-270l-43 -246h-236l252 1434h236l-43 -246h276zM948 727q21 109 -34 174.5t-175 65.5h-280l-88 -500h256q131 0 215.5 72t105.5 188z" />
    <glyph glyph-name="germandbls" unicode="&#xdf;" 
d="M487 -10l35 196q121 -12 191 24t84 114q8 43 -10 94.5t-48 99l-60 95t-48 98t-10 92.5q6 38 35.5 80.5t62.5 74t63.5 74t38.5 80.5q15 67 -27 105t-120 38q-80 0 -145 -48t-85 -156l-184 -1051h-221l186 1055q34 195 158.5 300t325.5 105q168 0 266 -98t72 -238
q-10 -54 -42 -106.5t-64 -86t-61 -71t-34 -65.5q-5 -33 13.5 -77t47 -91t56.5 -99.5t43 -118t4 -130.5q-27 -153 -155.5 -234t-367.5 -55z" />
    <glyph glyph-name="agrave" unicode="&#xe0;" horiz-adv-x="1292" 
d="M864 1157h-209l-174 277h260zM1032 1024h221l-180 -1024h-221l20 121q-145 -148 -374 -148q-149 0 -256 80.5t-150 208.5t-16 273q41 228 203 372t378 144q118 0 207 -50t140 -143zM563 184q131 0 235 80.5t138 210.5l10 60q14 142 -66 223.5t-210 81.5
q-133 0 -239.5 -86t-133.5 -236q-25 -143 51 -238.5t215 -95.5z" />
    <glyph glyph-name="aacute" unicode="&#xe1;" horiz-adv-x="1292" 
d="M1065 1434l-258 -277h-219l205 277h272zM1032 1024h221l-180 -1024h-221l20 121q-145 -148 -374 -148q-149 0 -256 80.5t-150 208.5t-16 273q41 228 203 372t378 144q118 0 207 -50t140 -143zM563 184q131 0 235 80.5t138 210.5l10 60q14 142 -66 223.5t-210 81.5
q-133 0 -239.5 -86t-133.5 -236q-25 -143 51 -238.5t215 -95.5z" />
    <glyph glyph-name="acircumflex" unicode="&#xe2;" horiz-adv-x="1292" 
d="M756 1296l-138 -149h-227l266 287h232l168 -287h-223zM1032 1024h221l-180 -1024h-221l20 121q-145 -148 -374 -148q-149 0 -256 80.5t-150 208.5t-16 273q41 228 203 372t378 144q118 0 207 -50t140 -143zM563 184q131 0 235 80.5t138 210.5l10 60q14 142 -66 223.5
t-210 81.5q-133 0 -239.5 -86t-133.5 -236q-25 -143 51 -238.5t215 -95.5z" />
    <glyph glyph-name="atilde" unicode="&#xe3;" horiz-adv-x="1292" 
d="M727 1208q-26 20 -43.5 31t-34.5 14.5t-28 -5.5t-20 -30t-15 -57h-183q13 107 54 175.5t95.5 90.5t114.5 11.5t115 -52.5q58 -52 92 -45t50 93h182q-13 -107 -54.5 -175.5t-95.5 -91t-114.5 -12t-114.5 52.5zM1032 1024h221l-180 -1024h-221l20 121q-145 -148 -374 -148
q-149 0 -256 80.5t-150 208.5t-16 273q41 228 203 372t378 144q118 0 207 -50t140 -143zM563 184q131 0 235 80.5t138 210.5l10 60q14 142 -66 223.5t-210 81.5q-133 0 -239.5 -86t-133.5 -236q-25 -143 51 -238.5t215 -95.5z" />
    <glyph glyph-name="adieresis" unicode="&#xe4;" horiz-adv-x="1292" 
d="M532 1143q-51 0 -81 36t-21 87t51.5 87t93.5 36t80.5 -36t20.5 -87t-51 -87t-93 -36zM922 1143q-51 0 -81.5 36t-21.5 87t52 87t94 36t80 -36t20 -87t-50.5 -87t-92.5 -36zM1032 1024h221l-180 -1024h-221l20 121q-145 -148 -374 -148q-149 0 -256 80.5t-150 208.5
t-16 273q41 228 203 372t378 144q118 0 207 -50t140 -143zM563 184q131 0 235 80.5t138 210.5l10 60q14 142 -66 223.5t-210 81.5q-133 0 -239.5 -86t-133.5 -236q-25 -143 51 -238.5t215 -95.5z" />
    <glyph glyph-name="aring" unicode="&#xe5;" horiz-adv-x="1292" 
d="M729 1112q-108 0 -167 69.5t-44 168.5q17 98 95.5 160.5t185.5 62.5q110 0 168.5 -70t40.5 -168q-15 -98 -92.5 -160.5t-186.5 -62.5zM676 1343q-6 -38 13 -62t59 -24q42 0 71 23.5t35 60.5t-14.5 61.5t-61.5 24.5q-40 0 -67 -23t-35 -61zM1032 1024h221l-180 -1024h-221
l20 121q-145 -148 -374 -148q-149 0 -256 80.5t-150 208.5t-16 273q41 228 203 372t378 144q118 0 207 -50t140 -143zM563 184q131 0 235 80.5t138 210.5l10 60q14 142 -66 223.5t-210 81.5q-133 0 -239.5 -86t-133.5 -236q-25 -143 51 -238.5t215 -95.5z" />
    <glyph glyph-name="ae" unicode="&#xe6;" horiz-adv-x="2062" 
d="M1597 1051q142 0 243.5 -73.5t142 -197t14.5 -270.5q-5 -31 -25 -92h-815q3 -119 78 -180.5t197 -61.5q178 0 292 127l160 -123q-185 -207 -444 -207q-242 0 -350 174l-27 -147h-211l22 133q-150 -160 -376 -160q-149 0 -256 80.5t-150 208.5t-16 273q41 228 203 372
t378 144q120 0 209.5 -48t137.5 -137l28 158h211l-20 -121q148 148 374 148zM1190 600h598q0 124 -68.5 187t-177.5 63q-122 0 -215.5 -67t-136.5 -183zM563 184q131 0 235 80.5t138 210.5l10 60q14 142 -66 223.5t-210 81.5q-133 0 -240.5 -86t-134.5 -236
q-25 -143 52 -238.5t216 -95.5z" />
    <glyph glyph-name="ccedilla" unicode="&#xe7;" horiz-adv-x="1114" 
d="M559 190q90 0 167.5 43t125.5 117l178 -114q-69 -112 -178.5 -178t-241.5 -81l-12 -71q65 -15 103.5 -61.5t27.5 -114.5q-37 -206 -473 -172l29 161q119 -10 184.5 4.5t71.5 47.5q11 58 -140 61l29 152q-188 38 -288 193t-66 358q25 149 112.5 266.5t219 183.5t284.5 66
q155 0 267 -72t159 -195l-198 -102q-28 72 -92 112t-156 40q-138 0 -244 -88.5t-131 -227.5q-23 -139 51 -233.5t211 -94.5z" />
    <glyph glyph-name="egrave" unicode="&#xe8;" horiz-adv-x="1193" 
d="M866 1163h-209l-174 277h260zM686 1051q151 0 262.5 -72.5t159.5 -196.5t20 -272q-20 -78 -24 -92h-815q3 -119 78.5 -180.5t197.5 -61.5q182 0 289 129l162 -123q-82 -102 -204 -155.5t-265 -53.5q-164 0 -281.5 75.5t-166 202.5t-23.5 281q25 148 112 266.5t218 185.5
t280 67zM319 600h601q1 126 -67 188t-181 62q-121 0 -215 -66.5t-138 -183.5z" />
    <glyph glyph-name="eacute" unicode="&#xe9;" horiz-adv-x="1193" 
d="M1067 1440l-258 -277h-219l205 277h272zM686 1051q151 0 262.5 -72.5t159.5 -196.5t20 -272q-20 -78 -24 -92h-815q3 -119 78.5 -180.5t197.5 -61.5q182 0 289 129l162 -123q-82 -102 -204 -155.5t-265 -53.5q-164 0 -281.5 75.5t-166 202.5t-23.5 281q25 148 112 266.5
t218 185.5t280 67zM319 600h601q1 126 -67 188t-181 62q-121 0 -215 -66.5t-138 -183.5z" />
    <glyph glyph-name="ecircumflex" unicode="&#xea;" horiz-adv-x="1193" 
d="M758 1303l-137 -150h-228l266 287h232l168 -287h-223zM686 1051q151 0 262.5 -72.5t159.5 -196.5t20 -272q-20 -78 -24 -92h-815q3 -119 78.5 -180.5t197.5 -61.5q182 0 289 129l162 -123q-82 -102 -204 -155.5t-265 -53.5q-164 0 -281.5 75.5t-166 202.5t-23.5 281
q25 148 112 266.5t218 185.5t280 67zM319 600h601q1 126 -67 188t-181 62q-121 0 -215 -66.5t-138 -183.5z" />
    <glyph glyph-name="edieresis" unicode="&#xeb;" horiz-adv-x="1193" 
d="M535 1149q-51 0 -81.5 36t-21.5 87t52 87t94 36t80 -36t20 -87t-50.5 -87t-92.5 -36zM924 1149q-51 0 -81.5 36t-21.5 87t52 87t94 36t80 -36t20 -87t-50.5 -87t-92.5 -36zM686 1051q151 0 262.5 -72.5t159.5 -196.5t20 -272q-20 -78 -24 -92h-815q3 -119 78.5 -180.5
t197.5 -61.5q182 0 289 129l162 -123q-82 -102 -204 -155.5t-265 -53.5q-164 0 -281.5 75.5t-166 202.5t-23.5 281q25 148 112 266.5t218 185.5t280 67zM319 600h601q1 126 -67 188t-181 62q-121 0 -215 -66.5t-138 -183.5z" />
    <glyph glyph-name="igrave" unicode="&#xec;" horiz-adv-x="477" 
d="M455 1147l-54 287h-245l92 -287h207zM260 0h-221l180 1024h221z" />
    <glyph glyph-name="iacute" unicode="&#xed;" horiz-adv-x="477" 
d="M244 1147h213l184 287h-256zM39 0l180 1024h221l-180 -1024h-221z" />
    <glyph glyph-name="icircumflex" unicode="&#xee;" horiz-adv-x="477" 
d="M377 1274l-96 -127h-232l236 287h231l137 -287h-219zM39 0l180 1024h221l-180 -1024h-221z" />
    <glyph glyph-name="idieresis" unicode="&#xef;" horiz-adv-x="477" 
d="M188 1147q-51 0 -81 36t-21 87t51.5 87t93.5 36t80.5 -36t20.5 -87t-51 -87t-93 -36zM514 1147q-51 0 -80.5 36t-21.5 87q9 51 51.5 87t93.5 36t80 -36t20 -87t-50.5 -87t-92.5 -36zM39 0l180 1024h221l-180 -1024h-221z" />
    <glyph glyph-name="eth" unicode="&#xf0;" horiz-adv-x="1183" 
d="M1040 760q36 -63 55.5 -149t6.5 -165q-20 -113 -75 -203.5t-133.5 -148.5t-174 -88.5t-201.5 -30.5q-100 0 -190.5 39t-155 106t-93.5 166.5t-9 211.5q24 142 115 249t222.5 155t272.5 26q3 0 9 -1t9 -1l-108 196l-287 -137l31 170l188 90l-104 189h229l60 -103l270 129
l-31 -168l-170 -80zM881 461q16 107 -23 176q-67 113 -233 113q-131 0 -222 -71t-112 -198q-24 -132 50.5 -214.5t203.5 -82.5q127 0 219.5 73t116.5 204z" />
    <glyph glyph-name="ntilde" unicode="&#xf1;" horiz-adv-x="1165" 
d="M690 1219q-32 26 -53 36.5t-39.5 8t-30 -25t-18.5 -67.5h-182q13 107 53.5 175.5t95 91t115 12t114.5 -52.5q58 -52 92 -45.5t50 92.5h182q-13 -107 -54.5 -175.5t-95.5 -90.5t-114 -11.5t-115 52.5zM752 1051q176 0 269 -114t60 -308l-110 -629h-221l106 606
q20 117 -29.5 177.5t-158.5 60.5q-110 0 -194.5 -67t-113.5 -202l-100 -575h-221l180 1024h221l-22 -123q64 75 151 112.5t183 37.5z" />
    <glyph glyph-name="ograve" unicode="&#xf2;" horiz-adv-x="1226" 
d="M864 1167l-123 277h-260l174 -277h209zM541 -27q-159 0 -276 76t-166.5 205.5t-20.5 284.5q28 151 118.5 268t222.5 180.5t283 63.5q149 0 261.5 -75t163 -203.5t24.5 -280.5q-41 -229 -216 -374t-394 -145zM557 188q133 0 240.5 88t134.5 240q27 146 -51 233t-209 87
q-132 0 -239 -87.5t-134 -236.5q-25 -150 50.5 -237t207.5 -87z" />
    <glyph glyph-name="oacute" unicode="&#xf3;" horiz-adv-x="1226" 
d="M588 1167h219l258 277h-272zM541 -27q-159 0 -276 76t-166.5 205.5t-20.5 284.5q28 151 118.5 268t222.5 180.5t283 63.5q149 0 261.5 -75t163 -203.5t24.5 -280.5q-41 -229 -216 -374t-394 -145zM557 188q133 0 240.5 88t134.5 240q27 146 -51 233t-209 87
q-132 0 -239 -87.5t-134 -236.5q-25 -150 50.5 -237t207.5 -87z" />
    <glyph glyph-name="ocircumflex" unicode="&#xf4;" horiz-adv-x="1226" 
d="M756 1307l-138 -150h-227l266 287h232l168 -287h-223zM702 1051q149 0 261.5 -75t163 -203.5t24.5 -280.5q-41 -229 -216 -374t-394 -145q-159 0 -276 76t-166.5 205.5t-20.5 284.5q28 151 118.5 268t222.5 180.5t283 63.5zM932 516q27 146 -51 233t-209 87
q-132 0 -239 -87.5t-134 -236.5q-25 -150 50.5 -237t207.5 -87q133 0 240.5 88t134.5 240z" />
    <glyph glyph-name="otilde" unicode="&#xf5;" horiz-adv-x="1226" 
d="M403 1171q13 107 54 175.5t95.5 91t115 12t114.5 -52.5q58 -52 92 -45.5t50 92.5h182q-13 -107 -54.5 -175.5t-95.5 -90.5t-114 -11.5t-115 52.5q-32 26 -53 36.5t-39.5 8t-30 -25t-18.5 -67.5h-183zM541 -27q-159 0 -276 76t-166.5 205.5t-20.5 284.5q28 151 118.5 268
t222.5 180.5t283 63.5q149 0 261.5 -75t163 -203.5t24.5 -280.5q-41 -229 -216 -374t-394 -145zM557 188q133 0 240.5 88t134.5 240q27 146 -51 233t-209 87q-132 0 -239 -87.5t-134 -236.5q-25 -150 50.5 -237t207.5 -87z" />
    <glyph glyph-name="odieresis" unicode="&#xf6;" horiz-adv-x="1226" 
d="M532 1153q-51 0 -81 36t-21 87t51.5 87t93.5 36t80.5 -36t20.5 -87t-51 -87t-93 -36zM922 1153q-51 0 -81.5 36t-21.5 87t52 87t94 36t80 -36t20 -87t-50.5 -87t-92.5 -36zM541 -27q-159 0 -276 76t-166.5 205.5t-20.5 284.5q28 151 118.5 268t222.5 180.5t283 63.5
q149 0 261.5 -75t163 -203.5t24.5 -280.5q-41 -229 -216 -374t-394 -145zM557 188q133 0 240.5 88t134.5 240q27 146 -51 233t-209 87q-132 0 -239 -87.5t-134 -236.5q-25 -150 50.5 -237t207.5 -87z" />
    <glyph glyph-name="divide" unicode="&#xf7;" horiz-adv-x="1167" 
d="M666 963q-63 0 -99.5 44t-25.5 107q10 63 59.5 104.5t114.5 41.5q61 0 97.5 -45.5t25.5 -108.5q-10 -63 -58.5 -103t-113.5 -40zM121 612l37 209h962l-37 -209h-962zM526 176q-63 0 -99 44.5t-24 107.5q10 63 59.5 104t112.5 41t99.5 -45.5t25.5 -108.5
q-12 -63 -60.5 -103t-113.5 -40z" />
    <glyph glyph-name="oslash" unicode="&#xf8;" horiz-adv-x="1226" 
d="M1180 979l-109 -107q56 -74 77.5 -172.5t2.5 -207.5q-41 -231 -213 -375t-397 -144q-174 0 -297 93l-84 -82l-105 61l105 102q-59 76 -81 178t-1 214q28 151 118.5 268t222.5 180.5t283 63.5q163 0 287 -93l84 82zM299 512q-20 -117 27 -203l497 488q-67 39 -151 39
q-132 0 -239 -87.5t-134 -236.5zM932 516q20 117 -25 197l-499 -488q64 -37 149 -37q133 0 240.5 88t134.5 240z" />
    <glyph glyph-name="ugrave" unicode="&#xf9;" horiz-adv-x="1165" 
d="M811 1157h-209l-174 277h260zM905 1024h221l-180 -1024h-221l23 123q-64 -75 -151 -112.5t-183 -37.5q-176 0 -269.5 114t-60.5 308l111 629h221l-107 -606q-20 -117 30 -177.5t159 -60.5q110 0 194 67t113 202z" />
    <glyph glyph-name="uacute" unicode="&#xfa;" horiz-adv-x="1165" 
d="M1012 1434l-258 -277h-219l204 277h273zM905 1024h221l-180 -1024h-221l23 123q-64 -75 -151 -112.5t-183 -37.5q-176 0 -269.5 114t-60.5 308l111 629h221l-107 -606q-20 -117 30 -177.5t159 -60.5q110 0 194 67t113 202z" />
    <glyph glyph-name="ucircumflex" unicode="&#xfb;" horiz-adv-x="1165" 
d="M702 1296l-137 -149h-227l266 287h232l168 -287h-224zM905 1024h221l-180 -1024h-221l23 123q-64 -75 -151 -112.5t-183 -37.5q-176 0 -269.5 114t-60.5 308l111 629h221l-107 -606q-20 -117 30 -177.5t159 -60.5q110 0 194 67t113 202z" />
    <glyph glyph-name="udieresis" unicode="&#xfc;" horiz-adv-x="1165" 
d="M479 1143q-51 0 -81 36t-21 87t51.5 87t93.5 36t80.5 -36t20.5 -87t-51 -87t-93 -36zM868 1143q-51 0 -81 36t-21 87t51.5 87t93.5 36t80.5 -36t20.5 -87t-51 -87t-93 -36zM905 1024h221l-180 -1024h-221l23 123q-64 -75 -151 -112.5t-183 -37.5q-176 0 -269.5 114
t-60.5 308l111 629h221l-107 -606q-20 -117 30 -177.5t159 -60.5q110 0 194 67t113 202z" />
    <glyph glyph-name="yacute" unicode="&#xfd;" horiz-adv-x="1064" 
d="M950 1434l-258 -277h-219l205 277h272zM899 1024h246l-580 -1057q-112 -208 -252.5 -298t-312.5 -79l37 207q101 -6 168.5 41.5t128.5 155.5l18 29l-252 1001h228l176 -752z" />
    <glyph glyph-name="thorn" unicode="&#xfe;" horiz-adv-x="1292" 
d="M793 1051q107 0 196 -46t144 -122.5t78 -179t6 -211.5q-37 -226 -198 -372.5t-376 -146.5q-120 0 -211 51t-141 144l-103 -578h-223l326 1844h221l-94 -541q149 158 375 158zM995 508q25 143 -51 237.5t-215 94.5q-133 0 -237 -82t-136 -213l-10 -56q-14 -141 66.5 -223
t210.5 -82q134 0 239.5 86.5t132.5 237.5z" />
    <glyph glyph-name="ydieresis" unicode="&#xff;" horiz-adv-x="1064" 
d="M418 1143q-51 0 -81.5 36t-21.5 87t52 87t94 36t80 -36t20 -87t-50.5 -87t-92.5 -36zM807 1143q-51 0 -81 36t-21 87t51.5 87t93.5 36t80 -36t20 -87t-50.5 -87t-92.5 -36zM899 1024h246l-580 -1057q-112 -208 -252.5 -298t-312.5 -79l37 207q101 -6 168.5 41.5
t128.5 155.5l18 29l-252 1001h228l176 -752z" />
    <glyph glyph-name="Amacron" unicode="&#x100;" horiz-adv-x="1341" 
d="M1178 1759l-31 -182h-574l31 182h574zM989 0l-47 289h-610l-154 -289h-258l772 1434h283l266 -1434h-252zM451 510h454l-106 655z" />
    <glyph glyph-name="amacron" unicode="&#x101;" horiz-adv-x="1292" 
d="M1051 1350l-31 -183h-574l31 183h574zM1032 1024h221l-180 -1024h-221l20 121q-145 -148 -374 -148q-149 0 -256 80.5t-150 208.5t-16 273q41 228 203 372t378 144q118 0 207 -50t140 -143zM563 184q131 0 235 80.5t138 210.5l10 60q14 142 -66 223.5t-210 81.5
q-133 0 -239.5 -86t-133.5 -236q-25 -143 51 -238.5t215 -95.5z" />
    <glyph glyph-name="Abreve" unicode="&#x102;" horiz-adv-x="1341" 
d="M860 1540q-150 0 -227 77.5t-53 209.5h200q-20 -121 101 -121q122 0 143 121h201q-23 -138 -116.5 -212.5t-248.5 -74.5zM989 0l-47 289h-610l-154 -289h-258l772 1434h283l266 -1434h-252zM451 510h454l-106 655z" />
    <glyph glyph-name="abreve" unicode="&#x103;" horiz-adv-x="1292" 
d="M733 1130q-149 0 -226.5 77.5t-53.5 209.5h200q-20 -121 101 -121q122 0 143 121h201q-23 -138 -116.5 -212.5t-248.5 -74.5zM1032 1024h221l-180 -1024h-221l20 121q-145 -148 -374 -148q-149 0 -256 80.5t-150 208.5t-16 273q41 228 203 372t378 144q118 0 207 -50
t140 -143zM563 184q131 0 235 80.5t138 210.5l10 60q14 142 -66 223.5t-210 81.5q-133 0 -239.5 -86t-133.5 -236q-25 -143 51 -238.5t215 -95.5z" />
    <glyph glyph-name="Aogonek" unicode="&#x104;" horiz-adv-x="1341" 
d="M1079 -207q-6 -29 7.5 -45t41.5 -16q37 0 68 10l-27 -150q-73 -28 -155 -28q-81 0 -126 52t-30 134q21 117 176 250h-45l-47 289h-610l-154 -289h-258l772 1434h283l266 -1434q-143 -118 -162 -207zM451 510h454l-106 655z" />
    <glyph glyph-name="aogonek" unicode="&#x105;" horiz-adv-x="1292" 
d="M1073 0q-66 -57 -112 -118t-50 -103q-6 -51 47 -51q32 0 70 12l-27 -148q-63 -28 -143 -28q-89 0 -136 48t-32 130q20 109 178 258h-16l20 121q-145 -148 -374 -148q-149 0 -256 80.5t-150 208.5t-16 273q41 228 203 372t378 144q118 0 207 -50t140 -143l28 166h221z
M563 184q131 0 235 80.5t138 210.5l10 60q14 142 -66 223.5t-210 81.5q-133 0 -239.5 -86t-133.5 -236q-25 -143 51 -238.5t215 -95.5z" />
    <glyph glyph-name="Cacute" unicode="&#x106;" horiz-adv-x="1503" 
d="M866 1577h219l258 276h-272zM737 -27q-162 0 -293.5 61.5t-212 165.5t-113.5 244t-7 293q36 206 157.5 371.5t303 258.5t386.5 93q206 0 355 -91.5t223 -252.5l-213 -112q-106 227 -383 227q-225 0 -391 -145.5t-205 -368.5q-38 -223 77 -368.5t333 -145.5
q144 0 262.5 62.5t197.5 174.5l193 -125q-115 -159 -292.5 -250.5t-377.5 -91.5z" />
    <glyph glyph-name="cacute" unicode="&#x107;" horiz-adv-x="1114" 
d="M557 1157h219l258 277h-272zM537 -27q-115 0 -211 44.5t-156.5 120t-86.5 179.5t-7 218q25 149 112.5 266.5t219 183.5t284.5 66q155 0 267 -72t159 -195l-198 -102q-28 72 -92 112t-156 40q-138 0 -244 -88.5t-131 -227.5q-23 -139 51 -233.5t211 -94.5q90 0 167.5 43
t125.5 117l178 -114q-78 -127 -208.5 -195t-284.5 -68z" />
    <glyph glyph-name="Cdotaccent" unicode="&#x10a;" horiz-adv-x="1503" 
d="M1006 1563q-59 0 -94 42t-23 101q9 58 58 100.5t108 42.5q60 0 95 -42t26 -101q-12 -60 -61 -101.5t-109 -41.5zM737 -27q-162 0 -293.5 61.5t-212 165.5t-113.5 244t-7 293q36 206 157.5 371.5t303 258.5t386.5 93q206 0 355 -91.5t223 -252.5l-213 -112
q-106 227 -383 227q-225 0 -391 -145.5t-205 -368.5q-38 -223 77 -368.5t333 -145.5q144 0 262.5 62.5t197.5 174.5l193 -125q-115 -159 -292.5 -250.5t-377.5 -91.5z" />
    <glyph glyph-name="cdotaccent" unicode="&#x10b;" horiz-adv-x="1114" 
d="M696 1143q-59 0 -93.5 41.5t-22.5 101.5q9 59 58 101.5t107 42.5q60 0 95 -42.5t26 -101.5q-12 -60 -61 -101.5t-109 -41.5zM537 -27q-115 0 -211 44.5t-156.5 120t-86.5 179.5t-7 218q25 149 112.5 266.5t219 183.5t284.5 66q155 0 267 -72t159 -195l-198 -102
q-28 72 -92 112t-156 40q-138 0 -244 -88.5t-131 -227.5q-23 -139 51 -233.5t211 -94.5q90 0 167.5 43t125.5 117l178 -114q-78 -127 -208.5 -195t-284.5 -68z" />
    <glyph glyph-name="Ccaron" unicode="&#x10c;" horiz-adv-x="1503" 
d="M887 1567l-168 286h217l82 -149l133 149h233l-266 -286h-231zM754 203q144 0 262.5 62.5t197.5 174.5l193 -125q-115 -159 -292.5 -250.5t-377.5 -91.5q-162 0 -293.5 61.5t-212 165.5t-113.5 244t-7 293q36 206 157.5 371.5t303 258.5t386.5 93q206 0 355 -91.5
t223 -252.5l-213 -112q-106 227 -383 227q-225 0 -391 -145.5t-205 -368.5q-38 -223 77 -368.5t333 -145.5z" />
    <glyph glyph-name="ccaron" unicode="&#x10d;" horiz-adv-x="1114" 
d="M578 1147l-168 287h217l82 -150l133 150h233l-266 -287h-231zM559 190q90 0 167.5 43t125.5 117l178 -114q-78 -127 -208.5 -195t-284.5 -68q-115 0 -211 44.5t-156.5 120t-86.5 179.5t-7 218q25 149 112.5 266.5t219 183.5t284.5 66q155 0 267 -72t159 -195l-198 -102
q-28 72 -92 112t-156 40q-138 0 -244 -88.5t-131 -227.5q-23 -139 51 -233.5t211 -94.5z" />
    <glyph glyph-name="Dcaron" unicode="&#x10e;" horiz-adv-x="1468" 
d="M739 1556l-168 287h217l82 -149l134 149h233l-266 -287h-232zM868 1434q140 0 258 -59.5t193.5 -159t106.5 -235.5t4 -284q-35 -198 -149 -356.5t-288.5 -249t-376.5 -90.5h-563l252 1434h563zM1202 723q37 213 -66.5 349t-306.5 136h-327l-174 -983h319q210 0 364 141
t191 357z" />
    <glyph glyph-name="dcaron" unicode="&#x10f;" horiz-adv-x="1488" 
d="M1004 856l102 578h221l-252 -1434h-221l23 123q-147 -150 -379 -150q-149 0 -256 80.5t-150 208.5t-16 273q41 228 203 372t378 144q118 0 207.5 -51t139.5 -144zM1460 1434h211l-129 -390h-170zM565 184q131 0 235 81.5t138 211.5l10 60q14 142 -65.5 222.5t-210.5 80.5
q-133 0 -240.5 -86t-134.5 -236q-25 -143 52 -238.5t216 -95.5z" />
    <glyph glyph-name="Dcroat" unicode="&#x110;" horiz-adv-x="1531" 
d="M932 1434q140 0 258 -59.5t193 -159t106 -235.5t4 -284q-35 -198 -148.5 -356.5t-288 -249t-376.5 -90.5h-563l104 600h-153l36 213h156l109 621h563zM1266 723q37 213 -66.5 349t-306.5 136h-328l-69 -395h366l-37 -213h-368l-66 -375h320q210 0 364 141t191 357z" />
    <glyph glyph-name="dcroat" unicode="&#x111;" horiz-adv-x="1304" 
d="M1434 1300l-27 -151h-129l-203 -1149h-221l23 123q-147 -150 -379 -150q-149 0 -256 80.5t-150 208.5t-16 273q41 228 203 372t378 144q118 0 207.5 -51t139.5 -144l53 293h-336l27 151h335l23 134h221l-22 -134h129zM565 184q131 0 235 80.5t138 208.5l10 64
q13 141 -66.5 222t-209.5 81q-133 0 -240.5 -86t-134.5 -236q-25 -143 52 -238.5t216 -95.5z" />
    <glyph glyph-name="Emacron" unicode="&#x112;" 
d="M1081 1759l-30 -182h-574l31 182h573zM1126 1208h-624l-66 -372h574l-39 -222h-574l-69 -389h637l-41 -225h-871l252 1434h860z" />
    <glyph glyph-name="emacron" unicode="&#x113;" horiz-adv-x="1193" 
d="M1053 1356l-31 -182h-573l30 182h574zM686 1051q151 0 262.5 -72.5t159.5 -196.5t20 -272q-20 -78 -24 -92h-815q3 -119 78.5 -180.5t197.5 -61.5q182 0 289 129l162 -123q-82 -102 -204 -155.5t-265 -53.5q-164 0 -281.5 75.5t-166 202.5t-23.5 281q25 148 112 266.5
t218 185.5t280 67zM319 600h601q1 126 -67 188t-181 62q-121 0 -215 -66.5t-138 -183.5z" />
    <glyph glyph-name="Edotaccent" unicode="&#x116;" 
d="M758 1552q-59 0 -94 42.5t-23 101.5q9 58 58 100.5t108 42.5q60 0 95 -42t26 -101q-12 -60 -61 -102t-109 -42zM1126 1208h-624l-66 -372h574l-39 -222h-574l-69 -389h637l-41 -225h-871l252 1434h860z" />
    <glyph glyph-name="edotaccent" unicode="&#x117;" horiz-adv-x="1193" 
d="M729 1149q-59 0 -94 42t-23 101q9 59 58.5 101.5t107.5 42.5q60 0 95 -42.5t26 -101.5q-12 -60 -61 -101.5t-109 -41.5zM686 1051q151 0 262.5 -72.5t159.5 -196.5t20 -272q-20 -78 -24 -92h-815q3 -119 78.5 -180.5t197.5 -61.5q182 0 289 129l162 -123
q-82 -102 -204 -155.5t-265 -53.5q-164 0 -281.5 75.5t-166 202.5t-23.5 281q25 148 112 266.5t218 185.5t280 67zM319 600h601q1 126 -67 188t-181 62q-121 0 -215 -66.5t-138 -183.5z" />
    <glyph glyph-name="Eogonek" unicode="&#x118;" 
d="M1126 1208h-624l-66 -372h574l-39 -222h-574l-69 -389h637l-41 -225q-69 -58 -112.5 -114t-49.5 -97q-6 -28 6.5 -44.5t40.5 -16.5q23 -2 68 12l-27 -150q-65 -26 -154 -26q-85 0 -128 50t-29 130q21 123 186 256h-672l252 1434h860z" />
    <glyph glyph-name="eogonek" unicode="&#x119;" horiz-adv-x="1193" 
d="M686 1051q151 0 262.5 -72.5t159.5 -196.5t20 -272q-20 -78 -24 -92h-815q3 -119 78.5 -180.5t197.5 -61.5q182 0 289 129l162 -123q-40 -49 -86 -86q-127 -102 -187 -180t-69 -127q-12 -61 51 -61q31 0 66 12l-25 -148q-70 -28 -143 -28q-97 0 -141 50t-31 126
q22 116 167 237q-50 -4 -71 -4q-164 0 -281.5 75.5t-166 202.5t-23.5 281q25 148 112 266.5t218 185.5t280 67zM319 600h601q1 126 -67 188t-181 62q-121 0 -215 -66.5t-138 -183.5z" />
    <glyph glyph-name="Ecaron" unicode="&#x11a;" 
d="M639 1556l-168 287h217l82 -149l133 149h234l-267 -287h-231zM1126 1208h-624l-66 -372h574l-39 -222h-574l-69 -389h637l-41 -225h-871l252 1434h860z" />
    <glyph glyph-name="ecaron" unicode="&#x11b;" horiz-adv-x="1193" 
d="M610 1153l-168 287h217l82 -150l133 150h234l-266 -287h-232zM686 1051q151 0 262.5 -72.5t159.5 -196.5t20 -272q-20 -78 -24 -92h-815q3 -119 78.5 -180.5t197.5 -61.5q182 0 289 129l162 -123q-82 -102 -204 -155.5t-265 -53.5q-164 0 -281.5 75.5t-166 202.5
t-23.5 281q25 148 112 266.5t218 185.5t280 67zM319 600h601q1 126 -67 188t-181 62q-121 0 -215 -66.5t-138 -183.5z" />
    <glyph glyph-name="Gbreve" unicode="&#x11e;" horiz-adv-x="1611" 
d="M997 1550q-149 0 -226.5 77.5t-53.5 209.5h201q-20 -121 100 -121q122 0 143 121h201q-23 -138 -116.5 -212.5t-248.5 -74.5zM1579 741l-16 -98q-34 -196 -145 -348t-283.5 -237t-380.5 -85q-167 0 -302 61.5t-217.5 166t-115.5 245.5t-6 297q36 205 157 368.5t303 256
t390 92.5q210 0 362 -92.5t234 -257.5l-216 -113q-119 234 -399 234q-227 0 -393 -143.5t-205 -366.5q-25 -147 17 -264.5t149 -185.5t262 -68q196 0 329.5 88t192.5 239h-471l37 211h717z" />
    <glyph glyph-name="gbreve" unicode="&#x11f;" horiz-adv-x="1294" 
d="M737 1141q-150 0 -227 77t-53 209h200q-20 -120 101 -120q122 0 143 120h201q-23 -138 -116.5 -212t-248.5 -74zM1038 1024h217l-172 -977q-22 -124 -76.5 -218.5t-133.5 -151.5t-174 -85t-205 -28q-167 0 -288.5 64t-176.5 184l198 102q66 -150 281 -150q149 0 241 73
t117 210l19 107q-147 -160 -371 -160q-156 0 -265 77.5t-152 202t-19 271.5q35 218 197 362t376 144q121 0 214 -52t143 -147zM571 203q138 0 244.5 87t132.5 226q14 75 -2 138t-55.5 103.5t-95.5 62.5t-121 22q-134 0 -243.5 -86.5t-131.5 -227.5q-23 -141 53.5 -233
t218.5 -92z" />
    <glyph glyph-name="Gdotaccent" unicode="&#x120;" horiz-adv-x="1611" 
d="M991 1563q-59 0 -94 42t-23 101q9 58 58 100.5t108 42.5q60 0 95 -42t26 -101q-12 -60 -61 -101.5t-109 -41.5zM1579 741l-16 -98q-34 -196 -145 -348t-283.5 -237t-380.5 -85q-167 0 -302 61.5t-217.5 166t-115.5 245.5t-6 297q36 205 157 368.5t303 256t390 92.5
q210 0 362 -92.5t234 -257.5l-216 -113q-119 234 -399 234q-227 0 -393 -143.5t-205 -366.5q-25 -147 17 -264.5t149 -185.5t262 -68q196 0 329.5 88t192.5 239h-471l37 211h717z" />
    <glyph glyph-name="gdotaccent" unicode="&#x121;" horiz-adv-x="1294" 
d="M731 1153q-59 0 -94 42t-23 101q9 59 58.5 101.5t107.5 42.5q60 0 95 -42.5t26 -101.5q-12 -60 -61 -101.5t-109 -41.5zM1038 1024h217l-172 -977q-22 -124 -76.5 -218.5t-133.5 -151.5t-174 -85t-205 -28q-167 0 -288.5 64t-176.5 184l198 102q66 -150 281 -150
q149 0 241 73t117 210l19 107q-147 -160 -371 -160q-156 0 -265 77.5t-152 202t-19 271.5q35 218 197 362t376 144q121 0 214 -52t143 -147zM571 203q138 0 244.5 87t132.5 226q14 75 -2 138t-55.5 103.5t-95.5 62.5t-121 22q-134 0 -243.5 -86.5t-131.5 -227.5
q-23 -141 53.5 -233t218.5 -92z" />
    <glyph glyph-name="Gcommaaccent" unicode="&#x122;" horiz-adv-x="1611" 
d="M1579 741l-16 -98q-34 -196 -145 -348t-283.5 -237t-380.5 -85q-167 0 -302 61.5t-217.5 166t-115.5 245.5t-6 297q36 205 157 368.5t303 256t390 92.5q210 0 362 -92.5t234 -257.5l-216 -113q-119 234 -399 234q-227 0 -393 -143.5t-205 -366.5q-25 -147 17 -264.5
t149 -185.5t262 -68q196 0 329.5 88t192.5 239h-471l37 211h717zM545 -522l88 389h213l-131 -389h-170z" />
    <glyph glyph-name="gcommaaccent" unicode="&#x123;" horiz-adv-x="1294" 
d="M922 1587l-88 -389h-211l129 389h170zM1038 1024h217l-172 -977q-22 -124 -76.5 -218.5t-133.5 -151.5t-174 -85t-205 -28q-167 0 -288.5 64t-176.5 184l198 102q66 -150 281 -150q149 0 241 73t117 210l19 107q-147 -160 -371 -160q-156 0 -265 77.5t-152 202t-19 271.5
q35 218 197 362t376 144q121 0 214 -52t143 -147zM571 203q138 0 244.5 87t132.5 226q14 75 -2 138t-55.5 103.5t-95.5 62.5t-121 22q-134 0 -243.5 -86.5t-131.5 -227.5q-23 -141 53.5 -233t218.5 -92z" />
    <glyph glyph-name="Hbar" unicode="&#x126;" horiz-adv-x="1464" 
d="M1526 1210l-31 -176h-127l-182 -1034h-236l105 594h-615l-104 -594h-236l183 1034h-129l30 176h129l39 224h236l-39 -224h614l39 224h236l-39 -224h127zM1094 819l39 215h-615l-39 -215h615z" />
    <glyph glyph-name="hbar" unicode="&#x127;" horiz-adv-x="1181" 
d="M766 1051q177 0 270 -114t60 -308l-111 -629h-221l106 606q20 117 -29 177.5t-157 60.5q-113 0 -197.5 -69t-113.5 -212l-99 -563h-221l203 1149h-133l27 151h133l22 134h221l-22 -134h291l-27 -151h-291l-45 -250q129 152 334 152z" />
    <glyph glyph-name="Imacron" unicode="&#x12a;" horiz-adv-x="522" 
d="M164 1577l31 182h573l-31 -182h-573zM305 1434h236l-252 -1434h-236z" />
    <glyph glyph-name="imacron" unicode="&#x12b;" horiz-adv-x="477" 
d="M129 1167l33 193h450l-32 -193h-451zM39 0l180 1024h221l-180 -1024h-221z" />
    <glyph glyph-name="Iogonek" unicode="&#x12e;" horiz-adv-x="522" 
d="M221 -272q26 -2 70 12l-27 -148q-70 -28 -155 -28q-84 0 -125.5 50.5t-30.5 127.5q14 116 131 258h-31l252 1434h236l-252 -1434q-105 -134 -117 -211q-9 -61 49 -61z" />
    <glyph glyph-name="iogonek" unicode="&#x12f;" horiz-adv-x="477" 
d="M403 1460q60 0 95 -41t24 -100q-9 -58 -56.5 -99.5t-109.5 -41.5q-59 0 -92 41.5t-24 99.5t56.5 99.5t106.5 41.5zM260 0q-99 -129 -113 -207q-5 -29 7.5 -47t40.5 -18q22 -2 67 12l-24 -148q-73 -28 -156 -28q-84 0 -126 52.5t-32 125.5q8 55 38 115t93 143h-16
l180 1024h221z" />
    <glyph glyph-name="Idotaccent" unicode="&#x130;" horiz-adv-x="522" 
d="M444 1552q-59 0 -93.5 42t-22.5 102q9 58 58 100.5t108 42.5q60 0 94.5 -42t25.5 -101q-12 -60 -61 -102t-109 -42zM305 1434h236l-252 -1434h-236z" />
    <glyph glyph-name="dotlessi" unicode="&#x131;" horiz-adv-x="477" 
d="M39 0l180 1024h221l-180 -1024h-221z" />
    <glyph glyph-name="Kcommaaccent" unicode="&#x136;" horiz-adv-x="1232" 
d="M1378 1434l-729 -705l484 -729h-254l-467 698l-123 -698h-236l252 1434h236l-111 -633l660 633h288zM330 -522l88 389h213l-131 -389h-170z" />
    <glyph glyph-name="kcommaaccent" unicode="&#x137;" horiz-adv-x="1044" 
d="M1098 1024l-535 -502l371 -522h-246l-342 492l-86 -492h-221l252 1434h221l-150 -846l465 436h271zM264 -522l88 389h213l-131 -389h-170z" />
    <glyph glyph-name="Lacute" unicode="&#x139;" horiz-adv-x="993" 
d="M811 1843l-258 -276h-219l205 276h272zM328 225h585l-41 -225h-819l252 1434h236z" />
    <glyph glyph-name="lacute" unicode="&#x13a;" horiz-adv-x="479" 
d="M311 1567h219l258 276h-272zM41 0l111 633l151 862h221l-153 -868l-109 -627h-221z" />
    <glyph glyph-name="Lcommaaccent" unicode="&#x13b;" horiz-adv-x="993" 
d="M328 225h585l-41 -225h-819l252 1434h236zM260 -522l88 389h213l-131 -389h-170z" />
    <glyph glyph-name="lcommaaccent" unicode="&#x13c;" horiz-adv-x="479" 
d="M41 0l111 633l151 862h221l-153 -868l-109 -627h-221zM104 -522l132 389h-213l-89 -389h170z" />
    <glyph glyph-name="Lcaron" unicode="&#x13d;" horiz-adv-x="993" 
d="M541 1434l-213 -1209h585l-41 -225h-819l252 1434h236zM952 1434l-127 -369h-180l86 369h221z" />
    <glyph glyph-name="lcaron" unicode="&#x13e;" horiz-adv-x="653" 
d="M41 0l111 633l151 862h221l-153 -868l-109 -627h-221zM719 1106l129 389h-211l-88 -389h170z" />
    <glyph glyph-name="Lslash" unicode="&#x141;" horiz-adv-x="1054" 
d="M389 225h586l-41 -225h-819l82 461l-148 -86l41 237l148 86l129 736h235l-102 -580l321 188l-41 -237l-321 -189z" />
    <glyph glyph-name="lslash" unicode="&#x142;" horiz-adv-x="522" 
d="M575 983l-38 -215l-136 -82l-10 -59l-108 -627h-222l95 535l-136 -82l39 215l134 82l131 745h221l-105 -596z" />
    <glyph glyph-name="Nacute" unicode="&#x143;" horiz-adv-x="1382" 
d="M735 1567h219l258 276h-272zM53 0l252 1434h178l510 -985l172 985h236l-252 -1434h-178l-508 985l-174 -985h-236z" />
    <glyph glyph-name="nacute" unicode="&#x144;" horiz-adv-x="1165" 
d="M1028 1444l-258 -277h-219l205 277h272zM752 1051q176 0 269 -114t60 -308l-110 -629h-221l106 606q20 117 -29.5 177.5t-158.5 60.5q-110 0 -194.5 -67t-113.5 -202l-100 -575h-221l180 1024h221l-22 -123q64 75 151 112.5t183 37.5z" />
    <glyph glyph-name="Ncommaaccent" unicode="&#x145;" horiz-adv-x="1382" 
d="M53 0l252 1434h178l510 -985l172 985h236l-252 -1434h-178l-508 985l-174 -985h-236zM563 -522l131 389h-213l-88 -389h170z" />
    <glyph glyph-name="ncommaaccent" unicode="&#x146;" horiz-adv-x="1165" 
d="M752 1051q176 0 269 -114t60 -308l-110 -629h-221l106 606q20 117 -29.5 177.5t-158.5 60.5q-110 0 -194.5 -67t-113.5 -202l-100 -575h-221l180 1024h221l-22 -123q64 75 151 112.5t183 37.5zM311 -522l88 389h213l-131 -389h-170z" />
    <glyph glyph-name="Ncaron" unicode="&#x147;" horiz-adv-x="1382" 
d="M756 1556l-168 287h217l82 -149l133 149h233l-266 -287h-231zM1165 1434h236l-252 -1434h-178l-508 985l-174 -985h-236l252 1434h178l510 -985z" />
    <glyph glyph-name="ncaron" unicode="&#x148;" horiz-adv-x="1165" 
d="M571 1157l-168 287h218l81 -150l134 150h233l-266 -287h-232zM752 1051q176 0 269 -114t60 -308l-110 -629h-221l106 606q20 117 -29.5 177.5t-158.5 60.5q-110 0 -194.5 -67t-113.5 -202l-100 -575h-221l180 1024h221l-22 -123q64 75 151 112.5t183 37.5z" />
    <glyph glyph-name="Eng" unicode="&#x14a;" horiz-adv-x="1382" 
d="M1165 1434h236l-252 -1434q-40 -230 -173 -327t-360 -83l39 217q113 -2 177 43.5t86 163.5l12 66l-467 905l-174 -985h-236l252 1434h178l510 -985z" />
    <glyph glyph-name="eng" unicode="&#x14b;" horiz-adv-x="1165" 
d="M752 1051q176 0 269 -114t60 -308l-118 -670q-35 -208 -156 -309t-324 -86l39 213q92 -11 146.5 32t72.5 150l115 647q20 117 -29.5 177.5t-158.5 60.5q-110 0 -194.5 -67t-113.5 -202l-100 -575h-221l180 1024h221l-22 -123q64 75 151 112.5t183 37.5z" />
    <glyph glyph-name="Omacron" unicode="&#x14c;" horiz-adv-x="1634" 
d="M721 1587l31 182h573l-31 -182h-573zM729 -27q-203 0 -358.5 103.5t-225.5 279.5t-34 381q37 207 158 371.5t306 258t400 93.5q152 0 281 -62t212 -165.5t118.5 -245.5t8.5 -295q-38 -207 -159 -370.5t-306 -256t-401 -92.5zM760 203q220 0 390 144.5t210 365.5
q38 222 -82.5 370t-339.5 148q-143 0 -270 -66.5t-212 -184t-110 -263.5t19 -263.5t148 -184t247 -66.5z" />
    <glyph glyph-name="omacron" unicode="&#x14d;" horiz-adv-x="1226" 
d="M446 1178l31 182h574l-31 -182h-574zM541 -27q-159 0 -276 76t-166.5 205.5t-20.5 284.5q28 151 118.5 268t222.5 180.5t283 63.5q149 0 261.5 -75t163 -203.5t24.5 -280.5q-41 -229 -216 -374t-394 -145zM557 188q133 0 240.5 88t134.5 240q27 146 -51 233t-209 87
q-132 0 -239 -87.5t-134 -236.5q-25 -150 50.5 -237t207.5 -87z" />
    <glyph glyph-name="Ohungarumlaut" unicode="&#x150;" horiz-adv-x="1634" 
d="M676 1567h223l213 276h-235zM1010 1567h223l233 276h-235zM729 -27q-203 0 -358.5 103.5t-225.5 279.5t-34 381q37 207 158 371.5t306 258t400 93.5q152 0 281 -62t212 -165.5t118.5 -245.5t8.5 -295q-38 -207 -159 -370.5t-306 -256t-401 -92.5zM760 203
q220 0 390 144.5t210 365.5q38 222 -82.5 370t-339.5 148q-143 0 -270 -66.5t-212 -184t-110 -263.5t19 -263.5t148 -184t247 -66.5z" />
    <glyph glyph-name="ohungarumlaut" unicode="&#x151;" horiz-adv-x="1226" 
d="M401 1157h224l213 277h-236zM735 1157h223l234 277h-236zM541 -27q-159 0 -276 76t-166.5 205.5t-20.5 284.5q28 151 118.5 268t222.5 180.5t283 63.5q149 0 261.5 -75t163 -203.5t24.5 -280.5q-41 -229 -216 -374t-394 -145zM557 188q133 0 240.5 88t134.5 240
q27 146 -51 233t-209 87q-132 0 -239 -87.5t-134 -236.5q-25 -150 50.5 -237t207.5 -87z" />
    <glyph glyph-name="OE" unicode="&#x152;" horiz-adv-x="1875" 
d="M1917 1208h-563l-66 -372h522l-38 -222h-523l-69 -389h575l-41 -225h-809q-99 -27 -203 -27q-101 0 -191.5 27.5t-160.5 77t-125 119.5t-85 154.5t-39.5 181t10.5 200.5q37 205 158.5 371.5t302 261t382.5 94.5q121 0 203 -26h799zM946 233l170 967q-77 31 -192 31
q-214 0 -377 -146t-201 -368q-39 -223 69.5 -368.5t321.5 -145.5q110 0 209 30z" />
    <glyph glyph-name="oe" unicode="&#x153;" horiz-adv-x="2052" 
d="M1561 1051q140 0 247.5 -72.5t156 -197t22.5 -271.5q-16 -64 -25 -92h-815q3 -119 78.5 -180.5t197.5 -61.5q182 0 289 129l162 -123q-82 -101 -204 -155t-255 -54q-154 0 -260.5 64.5t-157.5 177.5q-83 -114 -206 -178t-267 -64q-122 0 -217.5 46t-151.5 122.5t-77 177
t-2 209.5q18 107 70.5 201.5t131 166t186.5 113.5t230 42q132 0 233.5 -65t153.5 -175q84 113 208 176.5t272 63.5zM1178 600h600q1 126 -67 188t-181 62q-121 0 -214.5 -66.5t-137.5 -183.5zM934 512q25 139 -50.5 231.5t-211.5 92.5q-139 0 -244.5 -92t-130.5 -232
t48 -232t212 -92q136 0 244 92.5t133 231.5z" />
    <glyph glyph-name="Racute" unicode="&#x154;" horiz-adv-x="1255" 
d="M1104 1843l-258 -276h-219l204 276h273zM1260 952q-26 -143 -122 -249.5t-235 -151.5l225 -551h-239l-211 522h-297l-92 -522h-236l252 1434h563q123 0 221.5 -66.5t145.5 -178.5t25 -237zM1026 973q19 101 -38 170t-157 69h-329l-84 -479h338q97 0 174 69.5t96 170.5z
" />
    <glyph glyph-name="racute" unicode="&#x155;" horiz-adv-x="702" 
d="M838 1434l-258 -277h-220l205 277h273zM414 870q122 179 346 172l-43 -239q-54 4 -107 -7.5t-105 -39.5t-91.5 -82.5t-57.5 -130.5l-96 -543h-221l180 1024h221z" />
    <glyph glyph-name="Rcommaaccent" unicode="&#x156;" horiz-adv-x="1255" 
d="M1260 952q-26 -143 -122 -249.5t-235 -151.5l225 -551h-239l-211 522h-297l-92 -522h-236l252 1434h563q123 0 221.5 -66.5t145.5 -178.5t25 -237zM1026 973q19 101 -38 170t-157 69h-329l-84 -479h338q97 0 174 69.5t96 170.5zM387 -522l88 389h213l-131 -389h-170z" />
    <glyph glyph-name="rcommaaccent" unicode="&#x157;" horiz-adv-x="702" 
d="M414 870q122 179 346 172l-43 -239q-54 4 -107 -7.5t-105 -39.5t-91.5 -82.5t-57.5 -130.5l-96 -543h-221l180 1024h221zM-63 -522l88 389h213l-132 -389h-169z" />
    <glyph glyph-name="Rcaron" unicode="&#x158;" horiz-adv-x="1255" 
d="M647 1556l-168 287h217l82 -149l133 149h234l-266 -287h-232zM1260 952q-26 -143 -122 -249.5t-235 -151.5l225 -551h-239l-211 522h-297l-92 -522h-236l252 1434h563q123 0 221.5 -66.5t145.5 -178.5t25 -237zM1026 973q19 101 -38 170t-157 69h-329l-84 -479h338
q97 0 174 69.5t96 170.5z" />
    <glyph glyph-name="rcaron" unicode="&#x159;" horiz-adv-x="702" 
d="M381 1147l-168 287h217l82 -150l133 150h234l-267 -287h-231zM414 870q122 179 346 172l-43 -239q-54 4 -107 -7.5t-105 -39.5t-91.5 -82.5t-57.5 -130.5l-96 -543h-221l180 1024h221z" />
    <glyph glyph-name="Sacute" unicode="&#x15a;" horiz-adv-x="1198" 
d="M645 1577h219l258 276h-272zM551 -27q-212 0 -346.5 94t-175.5 259l213 110q25 -110 105 -172.5t220 -62.5q124 0 200.5 49t94.5 131q9 40 -2 73t-32 56t-64.5 45.5t-79 36t-96.5 33.5q-34 12 -63.5 23t-61.5 25.5t-58.5 30t-53.5 34t-47.5 39.5t-39 45.5t-30 53
t-18.5 60t-7 68.5t8 77q14 77 50 140.5t85.5 107t112 73.5t128.5 44t134 14q176 0 295.5 -84.5t171.5 -228.5l-207 -109q-35 93 -101 144t-177 51q-97 0 -167 -45t-87 -123q-8 -39 2 -72t30.5 -56t61.5 -46t77.5 -37.5t94.5 -34.5q97 -35 152 -61t127 -79.5t97 -133.5
t5 -187q-34 -187 -184 -286t-367 -99z" />
    <glyph glyph-name="sacute" unicode="&#x15b;" horiz-adv-x="966" 
d="M459 1167h219l258 277h-272zM422 -27q-155 0 -256.5 65t-145.5 183l199 103q20 -67 76.5 -107.5t144.5 -40.5q78 0 127 28t58 81q6 33 -14 58.5t-57 40.5t-84.5 31.5t-97.5 31.5t-96 41.5t-79.5 59.5t-48 87.5t-1.5 124.5q24 133 140 212t264 79q131 0 227 -56t142 -157
l-199 -101q-18 56 -67 85.5t-115 29.5q-62 0 -111 -28t-59 -83q-7 -40 18.5 -67.5t72 -44.5t103.5 -33t113 -40t99.5 -57.5t64 -93.5t6.5 -141q-25 -142 -140 -216.5t-284 -74.5z" />
    <glyph glyph-name="Scedilla" unicode="&#x15e;" horiz-adv-x="1198" 
d="M721 819q97 -35 152 -61t127 -79.5t97 -133.5t5 -187q-31 -173 -162 -271t-324 -112l-12 -69q65 -15 103.5 -61.5t27.5 -114.5q-37 -206 -473 -172l29 161q119 -10 184.5 4.5t71.5 47.5q11 58 -139 61l26 150q-163 24 -267 114t-138 230l213 110q25 -110 105 -172.5
t220 -62.5q124 0 200.5 49t94.5 131q9 40 -2 73t-32 56t-64.5 45.5t-79 36t-96.5 33.5q-34 12 -63.5 23t-61.5 25.5t-58.5 30t-53.5 34t-47.5 39.5t-39 45.5t-30 53t-18.5 60t-7 68.5t8 77q14 77 50 140.5t85.5 107t112 73.5t128.5 44t134 14q176 0 295.5 -84.5
t171.5 -228.5l-207 -109q-35 93 -101 144t-177 51q-97 0 -167 -45t-87 -123q-8 -39 2 -72t30.5 -56t61.5 -46t77.5 -37.5t94.5 -34.5z" />
    <glyph glyph-name="scedilla" unicode="&#x15f;" horiz-adv-x="966" 
d="M369 741q-7 -40 18.5 -67.5t72 -44.5t103.5 -33t113 -40t99.5 -57.5t64 -93.5t6.5 -141q-23 -125 -115.5 -198t-232.5 -89l-13 -71q65 -15 103.5 -61.5t27.5 -114.5q-37 -206 -473 -172l29 161q119 -10 184.5 4.5t71.5 47.5q11 58 -139 61l26 150q-221 42 -295 239
l199 103q20 -67 76.5 -107.5t144.5 -40.5q78 0 127 28t58 81q6 33 -14 58.5t-57 40.5t-84.5 31.5t-97.5 31.5t-96 41.5t-79.5 59.5t-48 87.5t-1.5 124.5q24 133 140 212t264 79q131 0 227 -56t142 -157l-199 -101q-18 56 -67 85.5t-115 29.5q-62 0 -111 -28t-59 -83z" />
    <glyph glyph-name="Scaron" unicode="&#x160;" horiz-adv-x="1198" 
d="M666 1567l-168 286h217l82 -149l133 149h233l-266 -286h-231zM721 819q97 -35 152 -61t127 -79.5t97 -133.5t5 -187q-34 -187 -184 -286t-367 -99q-212 0 -346.5 94t-175.5 259l213 110q25 -110 105 -172.5t220 -62.5q124 0 200.5 49t94.5 131q9 40 -2 73t-32 56
t-64.5 45.5t-79 36t-96.5 33.5q-34 12 -63.5 23t-61.5 25.5t-58.5 30t-53.5 34t-47.5 39.5t-39 45.5t-30 53t-18.5 60t-7 68.5t8 77q14 77 50 140.5t85.5 107t112 73.5t128.5 44t134 14q176 0 295.5 -84.5t171.5 -228.5l-207 -109q-35 93 -101 144t-177 51q-97 0 -167 -45
t-87 -123q-8 -39 2 -72t30.5 -56t61.5 -46t77.5 -37.5t94.5 -34.5z" />
    <glyph glyph-name="scaron" unicode="&#x161;" horiz-adv-x="966" 
d="M479 1157l-168 287h217l82 -150l133 150h234l-266 -287h-232zM539 852q-62 0 -111 -28t-59 -83q-7 -40 18.5 -67.5t72 -44.5t103.5 -33t113 -40t99.5 -57.5t64 -93.5t6.5 -141q-25 -142 -140 -216.5t-284 -74.5q-155 0 -256.5 65t-145.5 183l199 103q20 -67 76.5 -107.5
t144.5 -40.5q78 0 127 28t58 81q6 33 -14 58.5t-57 40.5t-84.5 31.5t-97.5 31.5t-96 41.5t-79.5 59.5t-48 87.5t-1.5 124.5q24 133 140 212t264 79q131 0 227 -56t142 -157l-199 -101q-18 56 -67 85.5t-115 29.5z" />
    <glyph glyph-name="uni0162" unicode="&#x162;" horiz-adv-x="1105" 
d="M1237 1434l-39 -226h-403l-213 -1208h-236l213 1208h-405l39 226h1044zM250 -522l88 389h213l-131 -389h-170z" />
    <glyph glyph-name="uni0163" unicode="&#x163;" horiz-adv-x="784" 
d="M500 811l-86 -492q-11 -64 14 -92.5t81 -30.5t138 3l-35 -199q-243 -31 -348.5 45.5t-70.5 273.5l86 492h-189l39 213h188l39 221l232 66l-51 -287h256l-39 -213h-254zM174 -522l88 389h213l-131 -389h-170z" />
    <glyph glyph-name="Tcaron" unicode="&#x164;" horiz-adv-x="1105" 
d="M616 1556l-167 287h217l82 -149l133 149h233l-266 -287h-232zM1237 1434l-39 -226h-403l-213 -1208h-236l213 1208h-405l39 226h1044z" />
    <glyph glyph-name="tcaron" unicode="&#x165;" horiz-adv-x="811" 
d="M737 1481h211l-125 -359h-170zM588 1311l-51 -287h256l-39 -213h-254l-86 -492q-11 -64 14 -92.5t81 -30.5t138 3l-35 -199q-243 -31 -348.5 45.5t-70.5 273.5l86 492h-189l39 213h188l39 221z" />
    <glyph glyph-name="Tbar" unicode="&#x166;" horiz-adv-x="1105" 
d="M1198 1208h-403l-70 -395h260l-37 -213h-262l-104 -600h-236l105 600h-261l37 213h262l70 395h-405l39 226h1044z" />
    <glyph glyph-name="tbar" unicode="&#x167;" horiz-adv-x="784" 
d="M754 811h-254l-35 -201h176l-31 -178h-176l-20 -113q-11 -64 14 -92.5t81 -30.5t138 3l-35 -199q-243 -31 -348.5 45.5t-70.5 273.5l20 113h-125l31 178h125l35 201h-189l39 213h188l39 221l232 66l-51 -287h256z" />
    <glyph glyph-name="Umacron" unicode="&#x16a;" horiz-adv-x="1333" 
d="M567 1577l31 182h573l-30 -182h-574zM598 -27q-249 0 -384 140.5t-97 361.5l170 959h235l-166 -945q-23 -131 39.5 -208.5t214.5 -77.5q154 0 246 79.5t115 206.5l166 945h235l-170 -959q-42 -241 -206 -371.5t-398 -130.5z" />
    <glyph glyph-name="umacron" unicode="&#x16b;" horiz-adv-x="1165" 
d="M997 1350l-30 -183h-574l31 183h573zM905 1024h221l-180 -1024h-221l23 123q-64 -75 -151 -112.5t-183 -37.5q-176 0 -269.5 114t-60.5 308l111 629h221l-107 -606q-20 -117 30 -177.5t159 -60.5q110 0 194 67t113 202z" />
    <glyph glyph-name="Uring" unicode="&#x16e;" horiz-adv-x="1333" 
d="M840 1460q-108 0 -167 69.5t-44 168.5q17 98 95 160.5t185 62.5q110 0 168.5 -70t40.5 -168q-15 -99 -92.5 -161t-185.5 -62zM858 1606q42 0 71.5 23.5t35.5 60.5t-14.5 61.5t-61.5 24.5q-40 0 -67.5 -23t-35.5 -61q-6 -38 13 -62t59 -24zM598 -27q-249 0 -384 140.5
t-97 361.5l170 959h235l-166 -945q-23 -131 39.5 -208.5t214.5 -77.5q154 0 246 79.5t115 206.5l166 945h235l-170 -959q-42 -241 -206 -371.5t-398 -130.5z" />
    <glyph glyph-name="uring" unicode="&#x16f;" horiz-adv-x="1165" 
d="M676 1112q-108 0 -167 69.5t-44 168.5q17 98 95 160.5t185 62.5q110 0 168.5 -70t40.5 -168q-15 -99 -92.5 -161t-185.5 -62zM623 1343q-6 -38 12.5 -62t58.5 -24q42 0 71.5 23.5t35.5 60.5t-14.5 61.5t-61.5 24.5q-40 0 -67 -23t-35 -61zM905 1024h221l-180 -1024h-221
l23 123q-64 -75 -151 -112.5t-183 -37.5q-176 0 -269.5 114t-60.5 308l111 629h221l-107 -606q-20 -117 30 -177.5t159 -60.5q110 0 194 67t113 202z" />
    <glyph glyph-name="Uhungarumlaut" unicode="&#x170;" horiz-adv-x="1333" 
d="M522 1556h223l213 277h-235zM856 1556h223l234 277h-236zM598 -27q-249 0 -384 140.5t-97 361.5l170 959h235l-166 -945q-23 -131 39.5 -208.5t214.5 -77.5q154 0 246 79.5t115 206.5l166 945h235l-170 -959q-42 -241 -206 -371.5t-398 -130.5z" />
    <glyph glyph-name="uhungarumlaut" unicode="&#x171;" horiz-adv-x="1165" 
d="M784 1423l-213 -276h-223l201 276h235zM905 1147h-223l221 276h236zM805 449l100 575h221l-180 -1024h-221l23 123q-64 -75 -151 -112.5t-183 -37.5q-176 0 -269.5 114t-60.5 308l111 629h221l-107 -606q-20 -117 30 -177.5t159 -60.5q110 0 194 67t113 202z" />
    <glyph glyph-name="Uogonek" unicode="&#x172;" horiz-adv-x="1333" 
d="M1137 1434h235l-170 -959q-24 -141 -93 -246t-173 -168q-120 -89 -179 -153t-69 -121q-9 -56 49 -59q29 -3 66 12l-25 -150q-68 -26 -143 -26q-97 0 -140.5 53.5t-29.5 132.5q21 113 153 223h-20q-249 0 -384 140.5t-97 361.5l170 959h235l-166 -945
q-23 -131 39.5 -208.5t214.5 -77.5q154 0 246 79.5t115 206.5z" />
    <glyph glyph-name="uogonek" unicode="&#x173;" horiz-adv-x="1167" 
d="M905 1024h221l-180 -1024h-2q-66 -57 -112 -118t-50 -103q-6 -51 47 -51q33 0 70 12l-27 -148q-63 -28 -141 -28q-89 0 -137 47t-33 131q10 58 53 118.5t125 139.5h-14l23 123q-64 -75 -151 -112.5t-183 -37.5q-176 0 -269.5 114t-60.5 308l111 629h221l-107 -606
q-20 -117 30 -177.5t159 -60.5q110 0 194 67t113 202z" />
    <glyph glyph-name="Wcircumflex" unicode="&#x174;" horiz-adv-x="2045" 
d="M1235 1706l-137 -150h-228l267 287h231l168 -287h-223zM1913 1434h254l-658 -1434h-272l-121 1047l-487 -1047h-273l-153 1434h235l107 -1125l522 1125h217l129 -1125z" />
    <glyph glyph-name="wcircumflex" unicode="&#x175;" horiz-adv-x="1587" 
d="M934 1296l-137 -149h-228l267 287h231l168 -287h-223zM1395 1024h241l-501 -1024h-217l-93 690l-325 -690h-228l-141 1024h221l82 -707l332 707h217l-2 -4l94 -703z" />
    <glyph glyph-name="Ycircumflex" unicode="&#x176;" horiz-adv-x="1214" 
d="M815 1706l-137 -150h-227l266 287h231l168 -287h-223zM1366 1434l-618 -791l-113 -643h-236l113 647l-340 787h252l231 -564l430 564h281z" />
    <glyph glyph-name="ycircumflex" unicode="&#x177;" horiz-adv-x="1064" 
d="M641 1296l-137 -149h-228l267 287h231l168 -287h-223zM899 1024h246l-580 -1057q-112 -208 -252.5 -298t-312.5 -79l37 207q101 -6 168.5 41.5t128.5 155.5l18 29l-252 1001h228l176 -752z" />
    <glyph glyph-name="Ydieresis" unicode="&#x178;" horiz-adv-x="1214" 
d="M592 1552q-51 0 -81.5 36t-21.5 87t52 87t94 36t80 -36t20 -87t-50.5 -87t-92.5 -36zM981 1552q-51 0 -81 36t-21 87t51.5 87t93.5 36t80 -36t20 -87t-50.5 -87t-92.5 -36zM1366 1434l-618 -791l-113 -643h-236l113 647l-340 787h252l231 -564l430 564h281z" />
    <glyph glyph-name="Zacute" unicode="&#x179;" 
d="M1073 1843l-258 -276h-219l205 276h272zM1176 1434l-33 -195l-819 -1014h655l-39 -225h-954l37 195l819 1013h-627l39 226h922z" />
    <glyph glyph-name="zacute" unicode="&#x17a;" horiz-adv-x="927" 
d="M922 1434l-258 -277h-220l205 277h273zM940 1024l-25 -147l-587 -668h489l-37 -209h-798l26 147l586 668h-449l37 209h758z" />
    <glyph glyph-name="Zdotaccent" unicode="&#x17b;" 
d="M735 1552q-59 0 -94 42.5t-23 101.5q9 58 58 100.5t108 42.5q60 0 95 -42t26 -101q-12 -60 -61 -102t-109 -42zM1176 1434l-33 -195l-819 -1014h655l-39 -225h-954l37 195l819 1013h-627l39 226h922z" />
    <glyph glyph-name="zdotaccent" unicode="&#x17c;" horiz-adv-x="927" 
d="M584 1143q-59 0 -94 42t-23 101q9 59 58.5 101.5t107.5 42.5q60 0 95 -42.5t26 -101.5q-12 -60 -61 -101.5t-109 -41.5zM940 1024l-25 -147l-587 -668h489l-37 -209h-798l26 147l586 668h-449l37 209h758z" />
    <glyph glyph-name="Zcaron" unicode="&#x17d;" 
d="M616 1556l-167 287h217l82 -149l133 149h233l-266 -287h-232zM1176 1434l-33 -195l-819 -1014h655l-39 -225h-954l37 195l819 1013h-627l39 226h922z" />
    <glyph glyph-name="zcaron" unicode="&#x17e;" horiz-adv-x="927" 
d="M465 1147l-168 287h217l82 -150l133 150h234l-267 -287h-231zM145 815l37 209h758l-25 -147l-587 -668h489l-37 -209h-798l26 147l586 668h-449z" />
    <glyph glyph-name="florin" unicode="&#x192;" horiz-adv-x="903" 
d="M551 1135q30 88 72.5 152.5t92 102.5t107.5 56t118.5 16.5t125.5 -20.5l-39 -219q-74 38 -150.5 5t-107.5 -128l-94 -273h201l-39 -213h-236l-248 -718q-37 -109 -94 -183t-123 -106t-143.5 -38.5t-155.5 19.5l37 219q74 -38 150.5 -5t109.5 128l236 684h-189l39 213h223
z" />
    <glyph glyph-name="Scommaaccent" unicode="&#x218;" horiz-adv-x="1198" 
d="M551 -27q-212 0 -346.5 94t-175.5 259l213 110q25 -110 105 -172.5t220 -62.5q124 0 200.5 49t94.5 131q9 40 -2 73t-32 56t-64.5 45.5t-79 36t-96.5 33.5q-34 12 -63.5 23t-61.5 25.5t-58.5 30t-53.5 34t-47.5 39.5t-39 45.5t-30 53t-18.5 60t-7 68.5t8 77
q14 77 50 140.5t85.5 107t112 73.5t128.5 44t134 14q176 0 295.5 -84.5t171.5 -228.5l-207 -109q-35 93 -101 144t-177 51q-97 0 -167 -45t-87 -123q-8 -39 2 -72t30.5 -56t61.5 -46t77.5 -37.5t94.5 -34.5q97 -35 152 -61t127 -79.5t97 -133.5t5 -187q-34 -187 -184 -286
t-367 -99zM502 -522l131 389h-213l-88 -389h170z" />
    <glyph glyph-name="scommaaccent" unicode="&#x219;" horiz-adv-x="966" 
d="M422 -27q-155 0 -256.5 65t-145.5 183l199 103q20 -67 76.5 -107.5t144.5 -40.5q78 0 127 28t58 81q6 33 -14 58.5t-57 40.5t-84.5 31.5t-97.5 31.5t-96 41.5t-79.5 59.5t-48 87.5t-1.5 124.5q24 133 140 212t264 79q131 0 227 -56t142 -157l-199 -101q-18 56 -67 85.5
t-115 29.5q-62 0 -111 -28t-59 -83q-7 -40 18.5 -67.5t72 -44.5t103.5 -33t113 -40t99.5 -57.5t64 -93.5t6.5 -141q-25 -142 -140 -216.5t-284 -74.5zM383 -522l131 389h-213l-88 -389h170z" />
    <glyph glyph-name="uni021A" unicode="&#x21a;" horiz-adv-x="1105" 
d="M1237 1434l-39 -226h-403l-213 -1208h-236l213 1208h-405l39 226h1044zM250 -522l88 389h213l-131 -389h-170z" />
    <glyph glyph-name="uni021B" unicode="&#x21b;" horiz-adv-x="784" 
d="M500 811l-86 -492q-11 -64 14 -92.5t81 -30.5t138 3l-35 -199q-243 -31 -348.5 45.5t-70.5 273.5l86 492h-189l39 213h188l39 221l232 66l-51 -287h256l-39 -213h-254zM174 -522l88 389h213l-131 -389h-170z" />
    <glyph glyph-name="circumflex" unicode="&#x2c6;" horiz-adv-x="747" 
d="M819 1147h-223l-78 149l-137 -149h-227l266 287h231z" />
    <glyph glyph-name="caron" unicode="&#x2c7;" horiz-adv-x="747" 
d="M635 1434h233l-266 -287h-231l-168 287h217l82 -150z" />
    <glyph glyph-name="breve" unicode="&#x2d8;" horiz-adv-x="727" 
d="M481 1130q-149 0 -226.5 77.5t-53.5 209.5h200q-20 -121 101 -121q122 0 143 121h201q-23 -138 -116.5 -212.5t-248.5 -74.5z" />
    <glyph glyph-name="dotaccent" unicode="&#x2d9;" horiz-adv-x="327" 
d="M289 1143q-59 0 -94 42t-23 101q9 59 58.5 101.5t107.5 42.5q60 0 95 -42.5t26 -101.5q-12 -60 -61 -101.5t-109 -41.5z" />
    <glyph glyph-name="ring" unicode="&#x2da;" horiz-adv-x="573" 
d="M393 1112q-108 0 -167 69.5t-44 168.5q17 98 95.5 160.5t185.5 62.5q110 0 168.5 -70t40.5 -168q-15 -98 -92.5 -160.5t-186.5 -62.5zM412 1257q42 0 71 23.5t35 60.5t-14.5 61.5t-61.5 24.5q-40 0 -67 -23t-35 -61q-6 -38 13 -62t59 -24z" />
    <glyph glyph-name="ogonek" unicode="&#x2db;" horiz-adv-x="421" 
d="M63 -436q-85 0 -128 50t-29 130q21 123 186 256h199q-69 -58 -112.5 -114t-49.5 -97q-6 -28 6.5 -44.5t40.5 -16.5q23 -2 68 12l-27 -150q-65 -26 -154 -26z" />
    <glyph glyph-name="tilde" unicode="&#x2dc;" horiz-adv-x="735" 
d="M168 1161q13 107 54 175.5t95.5 90.5t114.5 11.5t115 -52.5q58 -52 91.5 -45t49.5 93h182q-13 -107 -54 -175.5t-95.5 -91t-114.5 -12t-114 52.5q-26 20 -44 31t-34.5 14.5t-28 -5.5t-20.5 -30t-15 -57h-182z" />
    <glyph glyph-name="hungarumlaut" unicode="&#x2dd;" horiz-adv-x="823" 
d="M152 1147h223l213 276h-236zM485 1147h224l233 276h-235z" />
    <glyph glyph-name="gravecomb" unicode="&#x300;" horiz-adv-x="0" 
d="M74 1157l-123 277h-260l174 -277h209z" />
    <glyph glyph-name="acutecomb" unicode="&#x301;" horiz-adv-x="0" 
d="M-356 1157h219l258 277h-273z" />
    <glyph glyph-name="uni0302" unicode="&#x302;" horiz-adv-x="0" 
d="M72 1147h-224l-77 149l-138 -149h-227l266 287h232z" />
    <glyph glyph-name="tildecomb" unicode="&#x303;" horiz-adv-x="0" 
d="M-582 1161q13 107 54 175.5t95.5 90.5t114.5 11.5t115 -52.5q58 -52 92 -45t50 93h182q-13 -107 -54.5 -175.5t-95.5 -91t-114.5 -12t-114.5 52.5q-26 20 -43.5 31t-34.5 14.5t-28 -5.5t-20 -30t-15 -57h-183z" />
    <glyph glyph-name="uni0304" unicode="&#x304;" horiz-adv-x="0" 
d="M-498 1167l31 183h573l-30 -183h-574z" />
    <glyph glyph-name="uni0306" unicode="&#x306;" horiz-adv-x="0" 
d="M-246 1130q-150 0 -227 77.5t-53 209.5h200q-20 -121 101 -121q122 0 143 121h201q-23 -138 -116.5 -212.5t-248.5 -74.5z" />
    <glyph glyph-name="uni0307" unicode="&#x307;" horiz-adv-x="0" 
d="M-74 1143q-59 0 -93.5 41.5t-22.5 101.5q9 59 58 101.5t107 42.5q60 0 95 -42.5t26 -101.5q-12 -60 -61 -101.5t-109 -41.5z" />
    <glyph glyph-name="uni0308" unicode="&#x308;" horiz-adv-x="0" 
d="M-440 1143q-51 0 -81.5 36t-21.5 87t52 87t94 36t80 -36t20 -87t-50.5 -87t-92.5 -36zM-51 1143q-51 0 -81.5 36t-21.5 87t52 87t94 36t80 -36t20 -87t-50.5 -87t-92.5 -36z" />
    <glyph glyph-name="uni030A" unicode="&#x30a;" horiz-adv-x="0" 
d="M-174 1112q-108 0 -167 69.5t-44 168.5q17 98 95.5 160.5t185.5 62.5q110 0 168 -70t40 -168q-15 -99 -92.5 -161t-185.5 -62zM-156 1257q42 0 71.5 23.5t35.5 60.5t-14.5 61.5t-61.5 24.5q-40 0 -67 -23t-35 -61q-6 -38 12.5 -62t58.5 -24z" />
    <glyph glyph-name="uni030B" unicode="&#x30b;" horiz-adv-x="0" 
d="M-670 1147h224l213 276h-236zM-336 1147h223l234 276h-236z" />
    <glyph glyph-name="uni030C" unicode="&#x30c;" horiz-adv-x="0" 
d="M-113 1434h234l-266 -287h-232l-168 287h217l82 -150z" />
    <glyph glyph-name="uni0312" unicode="&#x312;" horiz-adv-x="0" 
d="M49 1987l-129 -390h211l88 390h-170z" />
    <glyph glyph-name="uni0326" unicode="&#x326;" horiz-adv-x="0" 
d="M-285 -522l131 389h-213l-88 -389h170z" />
    <glyph glyph-name="uni0327" unicode="&#x327;" horiz-adv-x="0" 
d="M-309 -94q65 -15 103.5 -61.5t27.5 -114.5q-37 -206 -473 -172l28 161q119 -10 184.5 4.5t71.5 47.5q11 58 -139 61l31 168h182z" />
    <glyph glyph-name="uni0328" unicode="&#x328;" horiz-adv-x="0" 
d="M-369 -436q-85 0 -128 50t-29 130q21 123 186 256h199q-69 -58 -112.5 -114t-49.5 -97q-6 -28 6.5 -44.5t40.5 -16.5q23 -2 68 12l-27 -150q-65 -26 -154 -26z" />
    <glyph glyph-name="uni0394" unicode="&#x394;" horiz-adv-x="1320" 
d="M965 1434l256 -1434h-1301l762 1434h283zM301 221h639l-154 944z" />
    <glyph glyph-name="uni03A9" unicode="&#x3a9;" horiz-adv-x="1613" 
d="M1587 719q-27 -153 -111 -279.5t-212 -214.5h209l-39 -225h-566l15 82l26 143q166 46 287.5 180t153.5 312q25 145 -20.5 263t-149.5 184.5t-246 66.5q-143 0 -270.5 -66.5t-214 -184.5t-111.5 -263q-32 -179 41 -312.5t225 -179.5l-41 -225h-565l41 225h231
q-103 96 -148 235t-18 296q36 201 158 361.5t306.5 251.5t396.5 91q148 0 276 -59t213 -158.5t122 -237t11 -286.5z" />
    <glyph glyph-name="pi" unicode="&#x3c0;" horiz-adv-x="1351" 
d="M1391 1024l-37 -209h-164l-143 -815h-222l144 815h-469l-144 -815h-221l144 815h-175l37 209h1250z" />
    <glyph glyph-name="uni0401" unicode="&#x401;" 
d="M563 1552q-51 0 -81 36t-21 87t51.5 87t93.5 36t80.5 -36t20.5 -87t-51 -87t-93 -36zM952 1552q-51 0 -81 36t-21 87t51.5 87t93.5 36t80.5 -36t20.5 -87t-51 -87t-93 -36zM1126 1208h-624l-66 -372h574l-39 -222h-574l-69 -389h637l-41 -225h-871l252 1434h860z" />
    <glyph glyph-name="uni0402" unicode="&#x402;" horiz-adv-x="1417" 
d="M997 958q182 0 275 -104.5t61 -290.5l-33 -186q-38 -220 -156 -315t-333 -80l39 219q99 -9 148.5 32t66.5 144l29 168q19 110 -24 155t-142 45q-119 0 -256 -57l-121 -688h-236l213 1208h-374l39 226h1034l-39 -226h-424l-53 -303q149 53 286 53z" />
    <glyph glyph-name="uni0403" unicode="&#x403;" horiz-adv-x="983" 
d="M1075 1841l-258 -276h-219l205 276h272zM1114 1434l-39 -226h-573l-213 -1208h-236l252 1434h809z" />
    <glyph glyph-name="uni0404" unicode="&#x404;" horiz-adv-x="1503" 
d="M754 203q144 0 262.5 62.5t197.5 174.5l193 -125q-115 -159 -292.5 -250.5t-377.5 -91.5q-162 0 -293.5 61.5t-212 165.5t-113.5 244t-7 293q36 206 157.5 371.5t303 258.5t386.5 93q206 0 355 -91.5t223 -252.5l-213 -112q-106 227 -383 227q-195 0 -348 -111.5
t-219 -292.5h690l-39 -221h-688q2 -181 115.5 -292t302.5 -111z" />
    <glyph glyph-name="uni0405" unicode="&#x405;" horiz-adv-x="1198" 
d="M551 -27q-212 0 -346.5 94t-175.5 259l213 110q25 -110 105 -172.5t220 -62.5q124 0 200.5 49t94.5 131q9 40 -2 73t-32 56t-64.5 45.5t-79 36t-96.5 33.5q-34 12 -63.5 23t-61.5 25.5t-58.5 30t-53.5 34t-47.5 39.5t-39 45.5t-30 53t-18.5 60t-7 68.5t8 77
q14 77 50 140.5t85.5 107t112 73.5t128.5 44t134 14q176 0 295.5 -84.5t171.5 -228.5l-207 -109q-35 93 -101 144t-177 51q-97 0 -167 -45t-87 -123q-8 -39 2 -72t30.5 -56t61.5 -46t77.5 -37.5t94.5 -34.5q97 -35 152 -61t127 -79.5t97 -133.5t5 -187q-34 -187 -184 -286
t-367 -99z" />
    <glyph glyph-name="uni0406" unicode="&#x406;" horiz-adv-x="522" 
d="M305 1434h236l-252 -1434h-236z" />
    <glyph glyph-name="uni0407" unicode="&#x407;" horiz-adv-x="522" 
d="M250 1552q-51 0 -81.5 36t-21.5 87t52 87t94 36t80 -36t20 -87t-50.5 -87t-92.5 -36zM639 1552q-51 0 -81 36t-21 87t51.5 87t93.5 36t80 -36t20 -87t-50.5 -87t-92.5 -36zM305 1434h236l-252 -1434h-236z" />
    <glyph glyph-name="uni0408" unicode="&#x408;" horiz-adv-x="1150" 
d="M459 -27q-335 0 -434 273l215 116q24 -83 82.5 -121t154.5 -38q126 0 202.5 60t96.5 171l176 1000h236l-176 -1002q-21 -119 -72.5 -208.5t-125.5 -143.5t-163 -80.5t-192 -26.5z" />
    <glyph glyph-name="uni0409" unicode="&#x409;" horiz-adv-x="1992" 
d="M1528 870q123 0 219.5 -59t143 -163t24.5 -228q-33 -190 -184 -305t-357 -115h-485l213 1208h-449l-106 -600q-20 -115 -50 -208t-67 -157.5t-81 -113t-92.5 -75t-101.5 -43t-108 -17.5t-113 2l39 219q65 -9 115 4.5t93.5 56.5t75.5 124.5t54 203.5l146 830h919l-98 -564
h250zM1679 438q18 97 -36 154t-154 57h-250l-76 -428h250q99 0 174 59t92 158z" />
    <glyph glyph-name="uni040A" unicode="&#x40a;" horiz-adv-x="1978" 
d="M1513 870q123 0 220 -59t143.5 -163t24.5 -228q-33 -190 -184 -305t-357 -115h-488l115 649h-584l-114 -649h-236l252 1434h236l-99 -564h584l98 564h236l-98 -564h251zM1665 438q17 98 -37 154.5t-153 56.5h-252l-76 -428h252q99 0 173.5 59t92.5 158z" />
    <glyph glyph-name="uni040B" unicode="&#x40b;" horiz-adv-x="1427" 
d="M989 958q185 0 280 -102.5t64 -292.5l-98 -563h-236l95 545q19 111 -26 155.5t-148 44.5q-125 0 -248 -57l-121 -688h-236l213 1208h-374l39 226h1034l-39 -226h-424l-53 -303q138 53 278 53z" />
    <glyph glyph-name="uni040C" unicode="&#x40c;" horiz-adv-x="1232" 
d="M1137 1841l-258 -276h-220l205 276h273zM1378 1434l-729 -705l484 -729h-254l-467 698l-123 -698h-236l252 1434h236l-111 -633l660 633h288z" />
    <glyph glyph-name="uni040E" unicode="&#x40e;" horiz-adv-x="1208" 
d="M1120 1767l-33 -192h-573l33 192h573zM1106 1434h244l-613 -1065q-119 -212 -261.5 -296t-332.5 -73l39 217q119 -10 198 39t144 164l4 8l-315 1006h227l232 -756z" />
    <glyph glyph-name="uni040F" unicode="&#x40f;" horiz-adv-x="1341" 
d="M1124 1434h236l-252 -1434h-410l-49 -274h-235l49 274h-410l252 1434h236l-213 -1209h583z" />
    <glyph glyph-name="uni0410" unicode="&#x410;" horiz-adv-x="1341" 
d="M989 0l-47 289h-610l-154 -289h-258l772 1434h283l266 -1434h-252zM451 510h454l-106 655z" />
    <glyph glyph-name="uni0411" unicode="&#x411;" horiz-adv-x="1200" 
d="M1147 1208h-645l-58 -327h308q123 0 218.5 -61.5t140 -168t22.5 -231.5q-34 -191 -180 -305.5t-357 -114.5h-543l252 1434h881zM713 659h-307l-78 -438h307q97 0 173 60.5t93 158.5q19 102 -36 160.5t-152 58.5z" />
    <glyph glyph-name="uni0412" unicode="&#x412;" horiz-adv-x="1249" 
d="M1223 1026q-13 -91 -64.5 -165.5t-130.5 -123.5q80 -52 118 -138.5t21 -199.5q-24 -174 -160.5 -286.5t-349.5 -112.5h-604l252 1434h545q180 0 289.5 -117.5t83.5 -290.5zM825 1212h-323l-66 -376h328q81 0 144.5 54t78.5 134q14 79 -30.5 133.5t-131.5 54.5zM936 422
q15 86 -31 143.5t-133 57.5h-375l-69 -402h366q91 0 159.5 58.5t82.5 142.5z" />
    <glyph glyph-name="uni0413" unicode="&#x413;" horiz-adv-x="983" 
d="M1114 1434l-39 -226h-573l-213 -1208h-236l252 1434h809z" />
    <glyph glyph-name="uni0414" unicode="&#x414;" horiz-adv-x="1433" 
d="M1380 1434l-213 -1209h156l-88 -499h-236l48 274h-871l-47 -274h-238l89 499h133q152 159 213 494l125 715h929zM379 225h555l174 987h-459l-88 -497q-59 -332 -182 -490z" />
    <glyph glyph-name="uni0415" unicode="&#x415;" 
d="M1126 1208h-624l-66 -372h574l-39 -222h-574l-69 -389h637l-41 -225h-871l252 1434h860z" />
    <glyph glyph-name="uni0416" unicode="&#x416;" horiz-adv-x="1814" 
d="M1931 1434l-645 -721l408 -713h-248l-389 672l-119 -672h-236l119 672l-604 -672h-276l671 750l-405 684h248l385 -654l114 654h236l-115 -648l578 648h278z" />
    <glyph glyph-name="uni0417" unicode="&#x417;" horiz-adv-x="1150" 
d="M1130 1034q-37 -204 -221 -301q93 -56 136 -147t22 -205q-34 -191 -183 -299.5t-392 -108.5q-195 0 -314 92t-162 240l213 111q14 -49 33 -85t52 -69t86.5 -50t125.5 -17q127 0 209 60.5t101 158.5q15 96 -43 152.5t-183 56.5h-174l37 213h127q121 0 199.5 57t93.5 149
q15 90 -39.5 143.5t-167.5 53.5q-194 0 -309 -199l-193 123q81 134 217.5 215.5t323.5 81.5q202 0 319.5 -122t85.5 -304z" />
    <glyph glyph-name="uni0418" unicode="&#x418;" horiz-adv-x="1382" 
d="M53 0l252 1434h236l-168 -955l844 955h184l-252 -1434h-236l168 956l-843 -956h-185z" />
    <glyph glyph-name="uni0419" unicode="&#x419;" horiz-adv-x="1382" 
d="M584 1577l32 192h574l-33 -192h-573zM53 0l252 1434h236l-168 -955l844 955h184l-252 -1434h-236l168 956l-843 -956h-185z" />
    <glyph glyph-name="uni041A" unicode="&#x41a;" horiz-adv-x="1232" 
d="M1378 1434l-729 -705l484 -729h-254l-467 698l-123 -698h-236l252 1434h236l-111 -633l660 633h288z" />
    <glyph glyph-name="uni041B" unicode="&#x41b;" horiz-adv-x="1398" 
d="M-66 -4l39 219q65 -9 115 4.5t93.5 56.5t75.5 124.5t54 203.5l146 830h960l-252 -1434h-235l213 1208h-490l-106 -600q-28 -161 -76.5 -278t-105.5 -183.5t-131 -103.5t-144 -46t-156 -1z" />
    <glyph glyph-name="uni041C" unicode="&#x41c;" horiz-adv-x="1658" 
d="M1677 1434l-252 -1434h-235l180 1020l-565 -719h-29l-305 739l-182 -1040h-236l252 1434h248l295 -727l561 727h268z" />
    <glyph glyph-name="uni041D" unicode="&#x41d;" horiz-adv-x="1372" 
d="M1155 1434h236l-252 -1434h-236l109 621h-615l-108 -621h-236l252 1434h236l-103 -588h615z" />
    <glyph glyph-name="uni041E" unicode="&#x41e;" horiz-adv-x="1634" 
d="M729 -27q-203 0 -358.5 103.5t-225.5 279.5t-34 381q37 207 158 371.5t306 258t400 93.5q152 0 281 -62t212 -165.5t118.5 -245.5t8.5 -295q-38 -207 -159 -370.5t-306 -256t-401 -92.5zM760 203q220 0 390 144.5t210 365.5q38 222 -82.5 370t-339.5 148
q-143 0 -270 -66.5t-212 -184t-110 -263.5t19 -263.5t148 -184t247 -66.5z" />
    <glyph glyph-name="uni041F" unicode="&#x41f;" horiz-adv-x="1341" 
d="M1360 1434l-252 -1434h-236l213 1208h-583l-213 -1208h-236l252 1434h1055z" />
    <glyph glyph-name="uni0420" unicode="&#x420;" horiz-adv-x="1208" 
d="M815 1434q141 0 242 -63.5t144.5 -173.5t23.5 -245q-32 -202 -186.5 -331t-393.5 -129h-270l-86 -492h-236l252 1434h510zM991 973q19 109 -36 174t-173 65h-280l-88 -499h256q130 0 215 72t106 188z" />
    <glyph glyph-name="uni0421" unicode="&#x421;" horiz-adv-x="1503" 
d="M737 -27q-162 0 -293.5 61.5t-212 165.5t-113.5 244t-7 293q36 206 157.5 371.5t303 258.5t386.5 93q206 0 355 -91.5t223 -252.5l-213 -112q-106 227 -383 227q-225 0 -391 -145.5t-205 -368.5q-38 -223 77 -368.5t333 -145.5q144 0 262.5 62.5t197.5 174.5l193 -125
q-115 -159 -292.5 -250.5t-377.5 -91.5z" />
    <glyph glyph-name="uni0422" unicode="&#x422;" horiz-adv-x="1105" 
d="M1237 1434l-39 -226h-403l-213 -1208h-236l213 1208h-405l39 226h1044z" />
    <glyph glyph-name="uni0423" unicode="&#x423;" horiz-adv-x="1208" 
d="M1106 1434h244l-613 -1065q-119 -212 -261.5 -296t-332.5 -73l39 217q119 -10 198 39t144 164l4 8l-315 1006h227l232 -756z" />
    <glyph glyph-name="uni0424" unicode="&#x424;" horiz-adv-x="1669" 
d="M1087 1288q190 -20 327 -94.5t202.5 -202t36.5 -289.5q-45 -249 -250 -393.5t-518 -165.5l-29 -163h-231l28 165q-292 32 -449 188.5t-114 399.5q43 247 248 391.5t518 165.5l29 164h231zM326 717q-29 -160 66 -250t300 -109l125 717q-434 -39 -491 -358zM1417 717
q29 161 -66.5 250t-301.5 108l-125 -717q211 19 337.5 109t155.5 250z" />
    <glyph glyph-name="uni0425" unicode="&#x425;" horiz-adv-x="1228" 
d="M1335 1434l-551 -707l324 -727h-252l-231 520l-406 -520h-278l583 750l-305 684h252l213 -480l373 480h278z" />
    <glyph glyph-name="uni0426" unicode="&#x426;" horiz-adv-x="1413" 
d="M1149 225h154l-89 -499h-235l47 274h-973l252 1434h236l-211 -1209h583l211 1209h236z" />
    <glyph glyph-name="uni0427" unicode="&#x427;" horiz-adv-x="1290" 
d="M1073 1434h236l-252 -1434h-236l92 526q-130 -43 -276 -43q-247 0 -368 119.5t-85 319.5l90 512h236l-86 -488q-21 -121 37 -179t207 -58q141 0 288 55z" />
    <glyph glyph-name="uni0428" unicode="&#x428;" horiz-adv-x="1935" 
d="M1718 1434h236l-252 -1434h-1649l252 1434h236l-211 -1209h471l211 1209h235l-211 -1209h471z" />
    <glyph glyph-name="uni0429" unicode="&#x429;" horiz-adv-x="2007" 
d="M1743 225h151l-88 -499h-235l49 274h-1567l252 1434h236l-211 -1209h471l211 1209h235l-211 -1209h471l211 1209h236z" />
    <glyph glyph-name="uni042A" unicode="&#x42a;" horiz-adv-x="1425" 
d="M268 0l213 1208h-358l39 226h594l-86 -492h284q94 0 176 -40t136.5 -106t78.5 -157t7 -188q-35 -206 -186.5 -328.5t-370.5 -122.5h-527zM543 221h288q106 0 186 71t99 179q20 108 -36.5 179t-164.5 71h-284z" />
    <glyph glyph-name="uni042B" unicode="&#x42b;" horiz-adv-x="1665" 
d="M53 0l252 1434h236l-86 -492h284q94 0 176 -40t136.5 -106t78.5 -157t7 -188q-35 -206 -186.5 -328.5t-370.5 -122.5h-527zM1196 0l252 1434h235l-251 -1434h-236zM328 221h288q106 0 186 71t99 179q20 108 -36.5 179t-164.5 71h-284z" />
    <glyph glyph-name="uni042C" unicode="&#x42c;" horiz-adv-x="1210" 
d="M739 942q94 0 176 -40t136.5 -106t78.5 -157t7 -188q-35 -206 -186.5 -328.5t-370.5 -122.5h-527l252 1434h236l-86 -492h284zM901 471q20 108 -36.5 179t-164.5 71h-284l-88 -500h288q106 0 186 71t99 179z" />
    <glyph glyph-name="uni042D" unicode="&#x42d;" horiz-adv-x="1495" 
d="M842 1460q162 0 291.5 -61.5t207.5 -165t109 -242.5t6 -293q-25 -152 -98.5 -284.5t-182 -230t-254 -154t-307.5 -56.5q-206 0 -358.5 92.5t-220.5 256.5l215 112q43 -109 143.5 -170t241.5 -61q193 0 342 110.5t215 292.5h-688l39 221h688q-2 184 -111.5 294t-300.5 110
q-146 0 -265 -65.5t-194 -176.5l-192 125q111 159 291 252.5t383 93.5z" />
    <glyph glyph-name="uni042E" unicode="&#x42e;" horiz-adv-x="2152" 
d="M1493 1460q152 0 281 -62t212 -165.5t119 -245.5t9 -295q-38 -206 -161.5 -370t-308.5 -256.5t-397 -92.5q-184 0 -328 86.5t-220.5 235.5t-71.5 330h-228l-110 -625h-236l252 1434h236l-103 -584h228q86 271 312 440.5t515 169.5zM1878 713q38 222 -82.5 370t-339.5 148
q-143 0 -270 -66.5t-212 -184t-110 -263.5t19 -263.5t148 -184t247 -66.5q220 0 390 144.5t210 365.5z" />
    <glyph glyph-name="uni042F" unicode="&#x42f;" horiz-adv-x="1275" 
d="M1294 1434l-252 -1434h-235l92 522h-211l-434 -522h-289l467 547q-142 49 -209.5 173.5t-40.5 272.5q32 186 182 313.5t365 127.5h565zM618 733h318l84 479h-324q-102 0 -182.5 -67.5t-99.5 -167.5q-17 -101 41 -172.5t163 -71.5z" />
    <glyph glyph-name="uni0430" unicode="&#x430;" horiz-adv-x="1292" 
d="M1032 1024h221l-180 -1024h-221l20 121q-145 -148 -374 -148q-149 0 -256 80.5t-150 208.5t-16 273q41 228 203 372t378 144q118 0 207 -50t140 -143zM563 184q131 0 235 80.5t138 210.5l10 60q14 142 -66 223.5t-210 81.5q-133 0 -239.5 -86t-133.5 -236
q-25 -143 51 -238.5t215 -95.5z" />
    <glyph glyph-name="uni0431" unicode="&#x431;" horiz-adv-x="1161" 
d="M522 -27q-149 0 -261.5 69t-164 194t-24.5 280q18 106 39.5 181t58 147.5t89 127.5t129 107.5t183.5 100.5q40 18 94 40t85 35t71 32t64 35t50.5 38.5t45.5 49t35 60.5l168 -104q-11 -31 -28 -59t-33 -49.5t-44 -44.5t-46.5 -37.5t-57 -34.5t-58 -30t-67 -29.5t-67 -27
t-74.5 -28.5q-142 -52 -213 -106.5t-111 -133.5q140 129 344 129q82 0 157.5 -35t130 -96t79 -152t6.5 -194q-35 -208 -194 -336.5t-386 -128.5zM543 180q129 0 224.5 77t115.5 196q22 120 -46.5 198t-193.5 78q-75 0 -148 -28.5t-129.5 -90t-70.5 -143.5
q-23 -123 49.5 -205t198.5 -82z" />
    <glyph glyph-name="uni0432" unicode="&#x432;" horiz-adv-x="1038" 
d="M981 727q-24 -143 -143 -207q64 -37 93 -101.5t15 -142.5q-23 -128 -120 -202t-263 -74h-524l180 1024h483q145 0 223 -86.5t56 -210.5zM653 836h-256l-41 -228h250q67 0 109 29.5t51 85.5q10 55 -19 84t-94 29zM735 313q9 54 -22 83.5t-97 29.5h-290l-41 -233h290
q64 0 107.5 31.5t52.5 88.5z" />
    <glyph glyph-name="uni0433" unicode="&#x433;" horiz-adv-x="819" 
d="M905 1024l-37 -213h-465l-143 -811h-221l180 1024h686z" />
    <glyph glyph-name="uni0434" unicode="&#x434;" horiz-adv-x="1218" 
d="M1120 1024l-143 -815h137l-86 -483h-217l49 274h-702l-49 -274h-218l86 483h127q58 68 96.5 153t61.5 218l78 444h780zM352 209h408l108 612h-346l-43 -241q-40 -231 -127 -371z" />
    <glyph glyph-name="uni0435" unicode="&#x435;" horiz-adv-x="1193" 
d="M686 1051q151 0 262.5 -72.5t159.5 -196.5t20 -272q-20 -78 -24 -92h-815q3 -119 78.5 -180.5t197.5 -61.5q182 0 289 129l162 -123q-82 -102 -204 -155.5t-265 -53.5q-164 0 -281.5 75.5t-166 202.5t-23.5 281q25 148 112 266.5t218 185.5t280 67zM319 600h601
q1 126 -67 188t-181 62q-121 0 -215 -66.5t-138 -183.5z" />
    <glyph glyph-name="uni0436" unicode="&#x436;" horiz-adv-x="1476" 
d="M1522 1024l-475 -512l309 -512h-228l-288 481l-84 -481h-217l84 477l-439 -477h-243l497 545l-297 479h228l272 -446l78 446h217l-80 -455l416 455h250z" />
    <glyph glyph-name="uni0437" unicode="&#x437;" horiz-adv-x="921" 
d="M862 733q-25 -152 -155 -219q67 -40 98.5 -107t19.5 -145q-25 -130 -137.5 -209.5t-306.5 -79.5q-159 0 -257 65t-130 181l192 98q33 -145 222 -145q87 0 141 35.5t65 95.5q9 53 -24.5 85t-102.5 32h-147l35 194h110q68 0 110.5 31.5t51.5 87.5q9 55 -28.5 88t-112.5 33
q-152 0 -232 -137l-168 106q154 228 422 228q116 0 199 -47t116.5 -119t18.5 -152z" />
    <glyph glyph-name="uni0438" unicode="&#x438;" horiz-adv-x="1167" 
d="M961 1024h169l-180 -1024h-217l111 639l-635 -639h-170l180 1024h217l-112 -639z" />
    <glyph glyph-name="uni0439" unicode="&#x439;" horiz-adv-x="1167" 
d="M414 1167l32 193h574l-33 -193h-573zM961 1024h169l-180 -1024h-217l111 639l-635 -639h-170l180 1024h217l-112 -639z" />
    <glyph glyph-name="uni043A" unicode="&#x43a;" horiz-adv-x="1044" 
d="M1098 1024l-535 -502l371 -522h-246l-342 492l-86 -492h-221l180 1024h221l-78 -436l465 436h271z" />
    <glyph glyph-name="uni043B" unicode="&#x43b;" horiz-adv-x="1122" 
d="M1083 1024l-180 -1024h-221l143 811h-342l-67 -381q-23 -132 -66.5 -222t-107 -137.5t-139 -64t-173.5 -6.5l37 207q92 -13 148.5 40t81.5 193l102 584h784z" />
    <glyph glyph-name="uni043C" unicode="&#x43c;" horiz-adv-x="1300" 
d="M1264 1024l-181 -1024h-215l119 674l-377 -469h-26l-211 467l-119 -672h-215l180 1024h221l201 -479l381 479h242z" />
    <glyph glyph-name="uni043D" unicode="&#x43d;" horiz-adv-x="1167" 
d="M909 1024h221l-180 -1024h-221l72 408h-469l-72 -408h-221l180 1024h221l-71 -408h469z" />
    <glyph glyph-name="uni043E" unicode="&#x43e;" horiz-adv-x="1226" 
d="M541 -27q-159 0 -276 76t-166.5 205.5t-20.5 284.5q28 151 118.5 268t222.5 180.5t283 63.5q149 0 261.5 -75t163 -203.5t24.5 -280.5q-41 -229 -216 -374t-394 -145zM557 188q133 0 240.5 88t134.5 240q27 146 -51 233t-209 87q-132 0 -239 -87.5t-134 -236.5
q-25 -150 50.5 -237t207.5 -87z" />
    <glyph glyph-name="uni043F" unicode="&#x43f;" horiz-adv-x="1167" 
d="M1130 1024l-180 -1024h-221l143 815h-469l-143 -815h-221l180 1024h911z" />
    <glyph glyph-name="uni0440" unicode="&#x440;" horiz-adv-x="1292" 
d="M793 1051q107 0 196 -46t144 -122.5t78 -179t6 -211.5q-37 -226 -198 -372.5t-376 -146.5q-121 0 -211.5 51.5t-140.5 145.5l-103 -580h-223l254 1434h221l-22 -129q150 156 375 156zM995 508q25 143 -51 237.5t-215 94.5q-131 0 -235 -81.5t-138 -211.5l-10 -60
q-13 -141 67 -222t210 -81q134 0 239.5 86.5t132.5 237.5z" />
    <glyph glyph-name="uni0441" unicode="&#x441;" horiz-adv-x="1114" 
d="M537 -27q-115 0 -211 44.5t-156.5 120t-86.5 179.5t-7 218q25 149 112.5 266.5t219 183.5t284.5 66q155 0 267 -72t159 -195l-198 -102q-28 72 -92 112t-156 40q-138 0 -244 -88.5t-131 -227.5q-23 -139 51 -233.5t211 -94.5q90 0 167.5 43t125.5 117l178 -114
q-78 -127 -208.5 -195t-284.5 -68z" />
    <glyph glyph-name="uni0442" unicode="&#x442;" horiz-adv-x="931" 
d="M1001 1024l-36 -213h-334l-144 -811h-221l144 811h-336l37 213h890z" />
    <glyph glyph-name="uni0443" unicode="&#x443;" horiz-adv-x="1064" 
d="M899 1024h246l-580 -1057q-112 -208 -252.5 -298t-312.5 -79l37 207q101 -6 168.5 41.5t128.5 155.5l18 29l-252 1001h228l176 -752z" />
    <glyph glyph-name="uni0444" unicode="&#x444;" horiz-adv-x="1394" 
d="M899 1040q148 -22 252.5 -100t148.5 -194t21 -250q-37 -210 -199 -349t-409 -165l-68 -392h-217l70 394q-148 22 -252.5 100t-148.5 194t-21 250q37 208 199.5 348t408.5 166l68 392h217zM1104 512q22 122 -41 207.5t-201 111.5l-110 -638q145 26 237.5 111.5
t114.5 207.5zM293 512q-22 -122 41 -207.5t201 -111.5l110 638q-145 -26 -237.5 -111.5t-114.5 -207.5z" />
    <glyph glyph-name="uni0445" unicode="&#x445;" horiz-adv-x="1064" 
d="M1116 1024l-454 -508l292 -516h-241l-199 350l-315 -350h-269l480 535l-279 489h242l184 -324l291 324h268z" />
    <glyph glyph-name="uni0446" unicode="&#x446;" horiz-adv-x="1228" 
d="M956 209h168l-86 -483h-217l49 274h-831l180 1024h221l-143 -815h438l144 815h221z" />
    <glyph glyph-name="uni0447" unicode="&#x447;" horiz-adv-x="1101" 
d="M842 1024h221l-180 -1024h-221l59 340q-131 -39 -258 -39q-189 0 -285 101t-67 270l61 352h221l-57 -332q-17 -90 28 -137t148 -47q109 0 248 49z" />
    <glyph glyph-name="uni0448" unicode="&#x448;" horiz-adv-x="1689" 
d="M1432 1024h221l-180 -1024h-1434l180 1024h221l-143 -815h385l143 815h222l-144 -815h385z" />
    <glyph glyph-name="uni0449" unicode="&#x449;" horiz-adv-x="1730" 
d="M1632 1024l-143 -815h137l-86 -483h-217l49 274h-1333l180 1024h221l-143 -815h375l143 815h221l-143 -815h375l143 815h221z" />
    <glyph glyph-name="uni044A" unicode="&#x44a;" horiz-adv-x="1153" 
d="M760 676q154 0 244.5 -101.5t64.5 -252.5q-28 -151 -142.5 -236.5t-287.5 -85.5h-446l143 811h-283l37 213h504l-62 -348h228zM854 338q10 63 -26.5 101t-102.5 38h-227l-49 -278h227q65 0 115.5 38.5t62.5 100.5z" />
    <glyph glyph-name="uni044B" unicode="&#x44b;" horiz-adv-x="1419" 
d="M606 676q154 0 244.5 -101.5t64.5 -252.5q-28 -151 -142.5 -236.5t-287.5 -85.5h-446l180 1024h221l-61 -348h227zM1161 1024h221l-180 -1024h-221zM700 338q10 63 -26.5 101t-102.5 38h-227l-49 -278h227q65 0 115.5 38.5t62.5 100.5z" />
    <glyph glyph-name="uni044C" unicode="&#x44c;" horiz-adv-x="999" 
d="M606 676q154 0 244.5 -101.5t64.5 -252.5q-28 -151 -142.5 -236.5t-287.5 -85.5h-446l180 1024h221l-61 -348h227zM700 338q10 63 -26.5 101t-102.5 38h-227l-49 -278h227q65 0 115.5 38.5t62.5 100.5z" />
    <glyph glyph-name="uni044D" unicode="&#x44d;" horiz-adv-x="1114" 
d="M586 1051q152 0 265.5 -76t163 -204.5t23.5 -278.5q-40 -230 -210 -374.5t-406 -144.5q-150 0 -265 72.5t-163 194.5l194 100q28 -73 93.5 -113.5t162.5 -40.5q112 0 207.5 62t141.5 164h-404l37 202h401q-12 103 -82.5 164.5t-185.5 61.5q-95 0 -172.5 -43.5
t-126.5 -118.5l-176 110q80 122 213 192.5t289 70.5z" />
    <glyph glyph-name="uni044E" unicode="&#x44e;" horiz-adv-x="1654" 
d="M1133 1051q149 0 261 -75t161.5 -203.5t23.5 -280.5q-41 -229 -215 -374t-393 -145q-206 0 -332.5 122t-134.5 313h-172l-72 -408h-221l180 1024h221l-71 -408h166q63 196 227 315.5t371 119.5zM1362 516q13 74 -2 135.5t-52.5 101t-91 61.5t-116.5 22q-132 0 -240 -87.5
t-135 -236.5q-25 -149 51.5 -236.5t208.5 -87.5q133 0 241.5 88t135.5 240z" />
    <glyph glyph-name="uni044F" unicode="&#x44f;" horiz-adv-x="1050" 
d="M1012 1024l-181 -1024h-217l62 344h-125l-318 -344h-262l346 369q-100 41 -151.5 133t-32.5 198q25 142 139.5 233t282.5 91h457zM481 535h228l51 288h-228q-69 0 -120 -41t-62 -104q-10 -63 26.5 -103t104.5 -40z" />
    <glyph glyph-name="uni0451" unicode="&#x451;" horiz-adv-x="1193" 
d="M535 1149q-51 0 -81.5 36t-21.5 87t52 87t94 36t80 -36t20 -87t-50.5 -87t-92.5 -36zM924 1149q-51 0 -81.5 36t-21.5 87t52 87t94 36t80 -36t20 -87t-50.5 -87t-92.5 -36zM686 1051q151 0 262.5 -72.5t159.5 -196.5t20 -272q-20 -78 -24 -92h-815q3 -119 78.5 -180.5
t197.5 -61.5q182 0 289 129l162 -123q-82 -102 -204 -155.5t-265 -53.5q-164 0 -281.5 75.5t-166 202.5t-23.5 281q25 148 112 266.5t218 185.5t280 67zM319 600h601q1 126 -67 188t-181 62q-121 0 -215 -66.5t-138 -183.5z" />
    <glyph glyph-name="uni0452" unicode="&#x452;" horiz-adv-x="1181" 
d="M766 1051q177 0 270 -114t60 -308l-117 -670q-39 -221 -158.5 -315t-331.5 -80l37 213q100 -9 156.5 34.5t75.5 147.5l112 647q20 117 -29 177.5t-157 60.5q-113 0 -197.5 -69t-113.5 -212l-99 -563h-221l203 1149h-133l27 151h133l22 134h221l-22 -134h291l-27 -151
h-291l-45 -250q129 152 334 152z" />
    <glyph glyph-name="uni0453" unicode="&#x453;" horiz-adv-x="819" 
d="M881 1434l-258 -277h-220l205 277h273zM905 1024l-37 -213h-465l-143 -811h-221l180 1024h686z" />
    <glyph glyph-name="uni0454" unicode="&#x454;" horiz-adv-x="1114" 
d="M549 186q100 0 179 43.5t128 118.5l174 -112q-80 -122 -213 -192.5t-287 -70.5q-150 0 -264 76.5t-165 206t-25 279.5q40 227 213 371.5t405 144.5q150 0 265 -72t161 -193l-194 -102q-29 72 -93.5 114t-160.5 42q-112 0 -206 -62.5t-142 -163.5h401l-37 -202h-401
q14 -100 84.5 -163t177.5 -63z" />
    <glyph glyph-name="uni0455" unicode="&#x455;" horiz-adv-x="966" 
d="M422 -27q-155 0 -256.5 65t-145.5 183l199 103q20 -67 76.5 -107.5t144.5 -40.5q78 0 127 28t58 81q6 33 -14 58.5t-57 40.5t-84.5 31.5t-97.5 31.5t-96 41.5t-79.5 59.5t-48 87.5t-1.5 124.5q24 133 140 212t264 79q131 0 227 -56t142 -157l-199 -101q-18 56 -67 85.5
t-115 29.5q-62 0 -111 -28t-59 -83q-7 -40 18.5 -67.5t72 -44.5t103.5 -33t113 -40t99.5 -57.5t64 -93.5t6.5 -141q-25 -142 -140 -216.5t-284 -74.5z" />
    <glyph glyph-name="uni0456" unicode="&#x456;" horiz-adv-x="477" 
d="M356 1178q-59 0 -92 41.5t-24 99.5t56.5 99.5t106.5 41.5q60 0 95 -41t24 -100q-9 -58 -56.5 -99.5t-109.5 -41.5zM39 0l180 1024h221l-180 -1024h-221z" />
    <glyph glyph-name="uni0457" unicode="&#x457;" horiz-adv-x="477" 
d="M156 1143q-51 0 -81.5 36t-21.5 87t52 87t94 36t80 -36t20 -87t-50.5 -87t-92.5 -36zM545 1143q-51 0 -81.5 36t-21.5 87t52 87t94 36t80 -36t20 -87t-50.5 -87t-92.5 -36zM39 0l180 1024h221l-180 -1024h-221z" />
    <glyph glyph-name="uni0458" unicode="&#x458;" horiz-adv-x="518" 
d="M444 1460q58 0 93 -41t26 -100q-11 -58 -58.5 -99.5t-107.5 -41.5q-59 0 -92 41.5t-24 99.5t56 99.5t107 41.5zM72 -41l186 1065h221l-186 -1065q-40 -228 -159 -319t-333 -76l39 213q100 -9 157 34t75 148z" />
    <glyph glyph-name="uni0459" unicode="&#x459;" horiz-adv-x="1593" 
d="M1212 645q145 0 232.5 -95.5t60.5 -242.5q-27 -149 -134.5 -228t-270.5 -79h-438l143 811h-322l-67 -381q-44 -255 -165.5 -352.5t-320.5 -77.5l37 207q92 -14 148.5 39.5t81.5 193.5l102 584h764l-68 -379h217zM1290 324q11 60 -21 91t-89 31h-219l-43 -247h217
q58 0 101.5 32t53.5 93z" />
    <glyph glyph-name="uni045A" unicode="&#x45a;" horiz-adv-x="1630" 
d="M1249 645q144 0 232 -95.5t61 -242.5q-27 -149 -135.5 -228t-271.5 -79h-437l76 436h-438l-76 -436h-221l180 1024h221l-67 -379h438l68 379h221l-68 -379h217zM1327 324q10 60 -22.5 91t-90.5 31h-217l-43 -247h217q57 0 101 32t55 93z" />
    <glyph glyph-name="uni045B" unicode="&#x45b;" horiz-adv-x="1181" 
d="M766 1051q177 0 270 -114t60 -308l-111 -629h-221l106 606q20 117 -29 177.5t-157 60.5q-113 0 -197.5 -69t-113.5 -212l-99 -563h-221l203 1149h-133l27 151h133l22 134h221l-22 -134h291l-27 -151h-291l-45 -250q129 152 334 152z" />
    <glyph glyph-name="uni045C" unicode="&#x45c;" horiz-adv-x="1044" 
d="M983 1434l-258 -277h-219l205 277h272zM1098 1024l-535 -502l371 -522h-246l-342 492l-86 -492h-221l180 1024h221l-78 -436l465 436h271z" />
    <glyph glyph-name="uni045E" unicode="&#x45e;" horiz-adv-x="1064" 
d="M938 1360l-33 -193h-573l33 193h573zM899 1024h246l-580 -1057q-112 -208 -252.5 -298t-312.5 -79l37 207q101 -6 168.5 41.5t128.5 155.5l18 29l-252 1001h228l176 -752z" />
    <glyph glyph-name="uni045F" unicode="&#x45f;" horiz-adv-x="1167" 
d="M909 1024h221l-180 -1024h-348l-49 -274h-217l49 274h-346l180 1024h221l-143 -815h469z" />
    <glyph glyph-name="uni0490" unicode="&#x490;" horiz-adv-x="983" 
d="M924 1679h235l-84 -471h-573l-213 -1208h-236l252 1434h576z" />
    <glyph glyph-name="uni0491" unicode="&#x491;" horiz-adv-x="819" 
d="M725 1233h217l-74 -422h-465l-143 -811h-221l180 1024h469z" />
    <glyph glyph-name="Wgrave" unicode="&#x1e80;" horiz-adv-x="2045" 
d="M1343 1567l-122 276h-260l174 -276h208zM356 0l-153 1434h235l107 -1125l522 1125h217l129 -1125l500 1125h254l-658 -1434h-272l-121 1047l-487 -1047h-273z" />
    <glyph glyph-name="wgrave" unicode="&#x1e81;" horiz-adv-x="1587" 
d="M1042 1157h-208l-175 277h261zM1395 1024h241l-501 -1024h-217l-93 690l-325 -690h-228l-141 1024h221l82 -707l332 707h217l-2 -4l94 -703z" />
    <glyph glyph-name="Wacute" unicode="&#x1e82;" horiz-adv-x="2045" 
d="M1067 1567h219l258 276h-272zM356 0l-153 1434h235l107 -1125l522 1125h217l129 -1125l500 1125h254l-658 -1434h-272l-121 1047l-487 -1047h-273z" />
    <glyph glyph-name="wacute" unicode="&#x1e83;" horiz-adv-x="1587" 
d="M1243 1434l-258 -277h-219l205 277h272zM1395 1024h241l-501 -1024h-217l-93 690l-325 -690h-228l-141 1024h221l82 -707l332 707h217l-2 -4l94 -703z" />
    <glyph glyph-name="Wdieresis" unicode="&#x1e84;" horiz-adv-x="2045" 
d="M1012 1552q-51 0 -81.5 36t-21.5 87t52 87t94 36t80 -36t20 -87t-50.5 -87t-92.5 -36zM1401 1552q-51 0 -81.5 36t-21.5 87t52 87t94 36t80 -36t20 -87t-50.5 -87t-92.5 -36zM356 0l-153 1434h235l107 -1125l522 1125h217l129 -1125l500 1125h254l-658 -1434h-272
l-121 1047l-487 -1047h-273z" />
    <glyph glyph-name="wdieresis" unicode="&#x1e85;" horiz-adv-x="1587" 
d="M711 1143q-51 0 -81.5 36t-21.5 87t52 87t94 36t80 -36t20 -87t-50.5 -87t-92.5 -36zM1100 1143q-51 0 -81.5 36t-21.5 87t52 87t94 36t80 -36t20 -87t-50.5 -87t-92.5 -36zM1395 1024h241l-501 -1024h-217l-93 690l-325 -690h-228l-141 1024h221l82 -707l332 707h217
l-2 -4l94 -703z" />
    <glyph glyph-name="Ygrave" unicode="&#x1ef2;" horiz-adv-x="1214" 
d="M924 1567h-209l-174 276h260zM1366 1434l-618 -791l-113 -643h-236l113 647l-340 787h252l231 -564l430 564h281z" />
    <glyph glyph-name="ygrave" unicode="&#x1ef3;" horiz-adv-x="1064" 
d="M750 1157h-209l-174 277h260zM899 1024h246l-580 -1057q-112 -208 -252.5 -298t-312.5 -79l37 207q101 -6 168.5 41.5t128.5 155.5l18 29l-252 1001h228l176 -752z" />
    <glyph glyph-name="endash" unicode="&#x2013;" horiz-adv-x="1294" 
d="M145 516l37 213h1008l-37 -213h-1008z" />
    <glyph glyph-name="emdash" unicode="&#x2014;" horiz-adv-x="1499" 
d="M145 516l37 213h1213l-37 -213h-1213z" />
    <glyph glyph-name="quoteleft" unicode="&#x2018;" horiz-adv-x="544" 
d="M176 901l238 533h186l-178 -533h-246z" />
    <glyph glyph-name="quoteright" unicode="&#x2019;" horiz-adv-x="544" 
d="M600 1434l-238 -533h-186l178 533h246z" />
    <glyph glyph-name="quotesinglbase" unicode="&#x201a;" horiz-adv-x="542" 
d="M389 246l-237 -533h-187l178 533h246z" />
    <glyph glyph-name="quotedblleft" unicode="&#x201c;" horiz-adv-x="892" 
d="M176 901l238 533h186l-178 -533h-246zM524 901l238 533h186l-178 -533h-246z" />
    <glyph glyph-name="quotedblright" unicode="&#x201d;" horiz-adv-x="892" 
d="M600 1434l-238 -533h-186l178 533h246zM948 1434l-237 -533h-187l178 533h246z" />
    <glyph glyph-name="quotedblbase" unicode="&#x201e;" horiz-adv-x="890" 
d="M389 246l-237 -533h-187l178 533h246zM737 246l-237 -533h-187l179 533h245z" />
    <glyph glyph-name="dagger" unicode="&#x2020;" horiz-adv-x="983" 
d="M991 1137l-37 -213h-280l-162 -924h-221l162 924h-277l37 213h279l51 297h221l-51 -297h278z" />
    <glyph glyph-name="daggerdbl" unicode="&#x2021;" horiz-adv-x="983" 
d="M954 924h-280l-72 -414h279l-37 -213h-281l-51 -297h-221l51 297h-276l36 213h279l72 414h-277l37 213h279l51 297h221l-51 -297h278z" />
    <glyph glyph-name="bullet" unicode="&#x2022;" horiz-adv-x="696" 
d="M340 461q-105 0 -166.5 80t-42.5 188q20 105 104.5 174.5t196.5 69.5q105 0 166 -77.5t41 -182.5q-19 -109 -102.5 -180.5t-196.5 -71.5z" />
    <glyph glyph-name="ellipsis" unicode="&#x2026;" horiz-adv-x="1402" 
d="M166 -25q-63 0 -99.5 46.5t-25.5 111.5q11 64 61.5 107t118.5 43q63 0 100.5 -46.5t26.5 -109.5q-12 -66 -62 -109t-120 -43zM606 -25q-63 0 -99.5 46.5t-25.5 111.5q11 64 62 107t119 43q63 0 100 -46.5t26 -109.5q-12 -66 -62 -109t-120 -43zM1047 -25
q-63 0 -99.5 46.5t-25.5 111.5q11 64 61.5 107t118.5 43q63 0 100.5 -46.5t26.5 -109.5q-12 -66 -62 -109t-120 -43z" />
    <glyph glyph-name="perthousand" unicode="&#x2030;" horiz-adv-x="2283" 
d="M496 805q-95 0 -165.5 47t-101 122.5t-16.5 160.5q21 136 128 230.5t261 94.5q96 0 167.5 -50t100 -129t11.5 -167q-27 -132 -131 -220.5t-254 -88.5zM520 985q64 0 112.5 43t59.5 105q11 64 -21.5 106.5t-97.5 42.5q-64 0 -111.5 -42.5t-58.5 -106.5q-12 -62 20.5 -105
t96.5 -43zM168 213l1126 1053l111 -70l-1129 -1053zM1006 -25q-145 0 -225 101.5t-58 234.5q23 135 128.5 227.5t258.5 92.5q96 0 167 -49.5t100 -127.5t12 -165q-24 -131 -129.5 -222.5t-253.5 -91.5zM1757 -25q-96 0 -166.5 48.5t-99.5 125t-14 162.5q23 135 128.5 227.5
t258.5 92.5q144 0 223.5 -104t54.5 -238q-26 -132 -131 -223t-254 -91zM1030 156q63 0 112 43t60 104q11 64 -22 107t-97 43t-112.5 -43t-59.5 -107q-11 -63 22 -105t97 -42zM1782 156q65 0 113 42.5t59 104.5q11 64 -21.5 107t-97.5 43q-64 0 -111.5 -43t-58.5 -107
q-11 -63 21.5 -105t95.5 -42z" />
    <glyph glyph-name="guilsinglleft" unicode="&#x2039;" horiz-adv-x="716" 
d="M672 1012l-297 -387l155 -371h-217l-159 379l290 379h228z" />
    <glyph glyph-name="guilsinglright" unicode="&#x203a;" horiz-adv-x="718" 
d="M446 1012l160 -379l-291 -379h-227l297 387l-156 371h217z" />
    <glyph glyph-name="fraction" unicode="&#x2044;" horiz-adv-x="409" 
d="M-203 0h-174l1061 1434h174z" />
    <glyph glyph-name="Euro" unicode="&#x20ac;" horiz-adv-x="1247" 
d="M678 203q181 0 297 182l184 -115q-86 -143 -217.5 -220t-296.5 -77q-220 0 -340 152t-117 407h-147l25 146h133q4 38 8 55q5 30 8 39h-133l27 146h143q83 256 249.5 399t393.5 143q149 0 256.5 -77t153.5 -212l-209 -108q-56 168 -236 168q-124 0 -216 -80t-148 -233h452
l-26 -146h-469q-2 -9 -5.5 -27.5t-5.5 -27.5l-6 -39h469l-24 -146h-457q-2 -160 63 -244.5t191 -84.5z" />
    <glyph glyph-name="uni20BD" unicode="&#x20bd;" horiz-adv-x="1224" 
d="M885 1434q121 0 217.5 -65.5t142 -176.5t23.5 -236q-34 -193 -182.5 -313.5t-360.5 -120.5h-293l-24 -137h481l-27 -160h-483l-39 -225h-236l39 225h-163l28 160h164l25 137h-164l37 211h163l123 701h529zM1034 973q19 101 -36 170t-152 69h-293l-84 -479h293
q96 0 174.5 70t97.5 170z" />
    <glyph glyph-name="uni2116" unicode="&#x2116;" horiz-adv-x="2113" 
d="M1761 805q-139 0 -220.5 100.5t-57.5 237.5q25 137 133.5 227t255.5 90q140 0 220.5 -100t57.5 -236q-25 -139 -130.5 -229t-258.5 -90zM53 0l252 1434h178l510 -985l172 985h236l-252 -1434h-178l-508 985l-174 -985h-236zM1792 989q62 0 108.5 41t57.5 103t-22 102.5
t-95 40.5q-63 0 -109 -40.5t-57 -102.5q-9 -62 22 -103t95 -41zM1393 473l37 209h618l-37 -209h-618z" />
    <glyph glyph-name="trademark" unicode="&#x2122;" horiz-adv-x="964" 
d="M557 1333h-115l-53 -309h-110l53 309h-115l19 101h339zM1055 1434l-72 -410h-106l41 238l-138 -166h-10l-76 166l-41 -238h-106l71 410h107l72 -174l137 174h121z" />
    <glyph glyph-name="estimated" unicode="&#x212e;" horiz-adv-x="1638" 
d="M985 1454q163 0 295 -58t213.5 -157t114.5 -235t6 -287q-6 -31 -37 -31h-1147q-31 0 -37 -31l-67 -393q-5 -22 6 -39q140 -182 446 -182q294 0 512 199q18 18 39 18h72q21 0 25 -12t-13 -27q-267 -239 -647 -239q-102 0 -193.5 20.5t-163.5 58t-131.5 91t-98.5 118.5
t-63.5 140.5t-27 158t11.5 170.5q27 152 104.5 284t191.5 227.5t266.5 150.5t322.5 55zM1389 1176q3 21 -9 38q-138 179 -405 179q-264 0 -469 -183q-18 -18 -21 -39l-69 -393q-6 -30 24 -30h840q31 0 37 30z" />
    <glyph glyph-name="oneeighth" unicode="&#x215b;" horiz-adv-x="1650" 
d="M356 1229l-180 -51l-20 168l262 88h164l-146 -820h-188zM1219 1434h174l-1061 -1434h-174zM1593 596q-17 -112 -127 -170q51 -35 73.5 -90.5t12.5 -122.5q-17 -114 -109 -177t-237 -63q-137 0 -212 71t-56 185q12 68 55.5 121t110.5 84q-90 70 -70 180t108.5 171
t211.5 61q116 0 188 -69.5t51 -180.5zM1200 592q-8 -43 17 -67.5t79 -24.5q52 0 85.5 24.5t41.5 67.5q7 43 -18 67.5t-76 24.5q-55 0 -88 -24.5t-41 -67.5zM1378 246q9 49 -20 77.5t-88 28.5q-61 0 -99.5 -28t-46.5 -78q-9 -48 19 -77.5t90 -29.5q60 0 98.5 29.5t46.5 77.5z
" />
    <glyph glyph-name="threeeighths" unicode="&#x215c;" horiz-adv-x="1832" 
d="M711 846q-23 -126 -116.5 -192t-236.5 -66q-215 0 -284 178l166 86q20 -51 53 -73.5t90 -22.5q59 0 95 27.5t44 74.5q7 47 -22 75t-86 28h-31l-55 110l182 189h-315l28 174h553l-26 -148l-187 -194q83 -28 123 -93.5t25 -152.5zM1401 1434h174l-1061 -1434h-174z
M1776 596q-17 -112 -127 -170q51 -35 73.5 -90.5t12.5 -122.5q-17 -114 -109 -177t-237 -63q-137 0 -212.5 71t-56.5 185q12 68 55.5 121t110.5 84q-89 69 -69 180q20 110 108 171t211 61q116 0 188.5 -69.5t51.5 -180.5zM1382 592q-8 -43 17.5 -67.5t79.5 -24.5
q52 0 85.5 24.5t41.5 67.5q7 43 -18.5 67.5t-76.5 24.5q-55 0 -88 -24.5t-41 -67.5zM1561 246q9 49 -20.5 77.5t-88.5 28.5q-61 0 -99 -28t-46 -78q-9 -49 18.5 -78t89.5 -29q60 0 99 29.5t47 77.5z" />
    <glyph glyph-name="fiveeighths" unicode="&#x215d;" horiz-adv-x="1806" 
d="M698 842q-21 -126 -111 -190t-229 -64q-212 0 -278 178l166 84q33 -96 137 -96q58 0 94.5 28t44.5 74q9 50 -17.5 79.5t-82.5 29.5h-264l114 469h492l-31 -172h-325l-35 -136h84q122 0 193.5 -77t47.5 -207zM1374 1434h174l-1061 -1434h-174zM1749 596
q-17 -112 -127 -170q51 -35 73.5 -90.5t12.5 -122.5q-17 -114 -109 -177t-237 -63q-137 0 -212 71t-56 185q12 68 55.5 121t110.5 84q-90 70 -70 180t108 171t211 61q116 0 188.5 -69.5t51.5 -180.5zM1356 592q-8 -43 17 -67.5t79 -24.5q52 0 85.5 24.5t41.5 67.5
q7 43 -18 67.5t-76 24.5q-55 0 -88 -24.5t-41 -67.5zM1534 246q9 49 -20.5 77.5t-88.5 28.5q-61 0 -99 -28t-46 -78q-9 -48 19 -77.5t90 -29.5q60 0 98.5 29.5t46.5 77.5z" />
    <glyph glyph-name="seveneighths" unicode="&#x215e;" horiz-adv-x="1722" 
d="M322 614h-205l375 646h-351l31 174h559l-24 -146zM1290 1434h174l-1061 -1434h-174zM1665 596q-17 -112 -127 -170q51 -35 73.5 -90.5t12.5 -122.5q-17 -114 -109 -177t-237 -63q-137 0 -212 71t-56 185q12 68 55.5 121t110.5 84q-90 70 -70 180t108 171t211 61
q116 0 188.5 -69.5t51.5 -180.5zM1272 592q-8 -43 17 -67.5t79 -24.5q52 0 85.5 24.5t41.5 67.5q7 43 -18 67.5t-76 24.5q-55 0 -88 -24.5t-41 -67.5zM1450 246q9 49 -20.5 77.5t-88.5 28.5q-61 0 -99 -28t-46 -78q-9 -48 19 -77.5t90 -29.5q60 0 98.5 29.5t46.5 77.5z" />
    <glyph glyph-name="arrowleft" unicode="&#x2190;" horiz-adv-x="1648" 
d="M1602 823l-37 -213h-1053l418 -508h-285l-506 615l723 614h309l-598 -508h1029z" />
    <glyph glyph-name="arrowup" unicode="&#x2191;" horiz-adv-x="1433" 
d="M1384 819l-49 -282l-413 507l-185 -1044h-221l178 1012l-592 -502l56 309l721 615z" />
    <glyph glyph-name="arrowright" unicode="&#x2192;" horiz-adv-x="1648" 
d="M1077 1331l506 -614l-717 -615h-313l594 508h-1026l37 213h1054l-417 508h282z" />
    <glyph glyph-name="arrowdown" unicode="&#x2193;" horiz-adv-x="1433" 
d="M813 420l590 504l-53 -310l-723 -614l-506 614l49 281l416 -504l182 1043h221z" />
    <glyph glyph-name="arrowboth" unicode="&#x2194;" horiz-adv-x="2191" 
d="M2126 717l-637 -543h-305l508 436h-1186l358 -436h-278l-447 543l637 543h309l-514 -437h1186l-358 437h280z" />
    <glyph glyph-name="arrowupdn" unicode="&#x2195;" horiz-adv-x="1290" 
d="M1253 889l-354 430l-207 -1180l506 430l-53 -303l-637 -542l-447 542l50 279l354 -434l209 1187l-508 -432l53 303l639 541l445 -541z" />
    <glyph glyph-name="uni2196" unicode="&#x2196;" horiz-adv-x="1314" 
d="M1272 1030h-727l622 -758l-166 -139l-624 758l-127 -729l-172 209l153 868h871z" />
    <glyph glyph-name="uni2197" unicode="&#x2197;" horiz-adv-x="1314" 
d="M473 1239h868l-153 -868l-248 -209l125 700l-870 -737l-138 164l873 741h-703z" />
    <glyph glyph-name="uni2198" unicode="&#x2198;" horiz-adv-x="1314" 
d="M1133 1237l170 -209l-152 -868h-868l-172 209h727l-623 757l164 140l625 -756z" />
    <glyph glyph-name="uni2199" unicode="&#x2199;" horiz-adv-x="1314" 
d="M1323 1112l-874 -743h704l-244 -209h-868l154 868l243 209l-125 -707l875 744z" />
    <glyph glyph-name="partialdiff" unicode="&#x2202;" horiz-adv-x="1191" 
d="M655 1460q116 0 215 -55t165.5 -155t92.5 -240t-4 -310q-32 -180 -97 -319.5t-154 -228t-196 -134t-228 -45.5q-131 0 -224.5 63t-131 166t-15.5 224q37 209 181.5 335t356.5 126q175 0 299 -92q12 134 -18.5 235t-107 160.5t-193.5 60.5q-132 0 -260 -67l37 202
q131 74 282 74zM481 182q137 0 240 110.5t158 305.5q-101 90 -265 90q-120 0 -207 -71.5t-110 -200.5q-18 -105 30.5 -169.5t153.5 -64.5z" />
    <glyph glyph-name="emptyset" unicode="&#x2205;" horiz-adv-x="1650" 
d="M1706 1475l-236 -240q88 -107 123.5 -246t8.5 -291q-36 -202 -163 -368t-312.5 -260.5t-389.5 -94.5q-221 0 -383 125l-137 -141h-201l236 240q-88 106 -123 245t-8 291q27 151 108 285.5t196.5 230t262 151.5t299.5 56q218 0 379 -123l137 140h203zM285 717
q-40 -234 84 -400l880 897q-124 84 -286 84q-158 0 -304 -77t-246 -210.5t-128 -293.5zM1438 717q40 233 -84 399l-881 -897q124 -84 285 -84q158 0 304.5 77.5t247 211.5t128.5 293z" />
    <glyph glyph-name="product" unicode="&#x220f;" horiz-adv-x="1310" 
d="M-18 -410l323 1844h1024l-323 -1844h-222l287 1631h-582l-286 -1631h-221z" />
    <glyph glyph-name="summation" unicode="&#x2211;" horiz-adv-x="1136" 
d="M-80 -410l37 209l588 756l-301 700l30 179h922l-37 -213h-667l299 -693l-566 -725h715l-37 -213h-983z" />
    <glyph glyph-name="minus" unicode="&#x2212;" horiz-adv-x="1126" 
d="M131 612l37 209h901l-37 -209h-901z" />
    <glyph glyph-name="radical" unicode="&#x221a;" horiz-adv-x="1361" 
d="M471 0l-182 432h-199l37 213h311l156 -385l704 1378h242l-850 -1638h-219z" />
    <glyph glyph-name="infinity" unicode="&#x221e;" horiz-adv-x="1648" 
d="M1278 1065q150 0 237.5 -103.5t59.5 -256.5q-27 -154 -140 -245t-270 -91q-182 0 -327 192q-204 -192 -392 -192q-151 0 -238.5 104t-60.5 258q26 152 140.5 243t271.5 91q182 0 328 -193q205 193 391 193zM485 569q109 0 246 148q-85 149 -194 149q-64 0 -111.5 -42
t-58.5 -107q-12 -64 21 -106t97 -42zM1356 717q11 65 -21 107t-96 42q-111 0 -246 -149q83 -148 193 -148q64 0 111 42t59 106z" />
    <glyph glyph-name="integral" unicode="&#x222b;" horiz-adv-x="903" 
d="M-164 -416l39 219q74 -37 148 -3.5t106 126.5l414 1204q37 109 93 182t123 106t146 39t162 -19l-41 -219q-83 37 -157.5 4t-106.5 -127l-414 -1205q-37 -108 -92.5 -181.5t-121 -106t-142.5 -39t-156 19.5z" />
    <glyph glyph-name="approxequal" unicode="&#x2248;" horiz-adv-x="1181" 
d="M637 793q-69 39 -120.5 54t-90.5 7t-66.5 -28.5t-58.5 -59.5l-143 57q76 194 213 245t305 -46q128 -73 200.5 -59.5t118.5 116.5l168 -88q-74 -190 -215.5 -243.5t-310.5 45.5zM260 356l-170 88q75 189 218 243t310 -44q70 -40 121.5 -56t90 -7t65.5 29.5t59 60.5
l144 -58q-76 -195 -212 -245.5t-306 47.5q-126 72 -200 58.5t-120 -116.5z" />
    <glyph glyph-name="notequal" unicode="&#x2260;" 
d="M1038 823h-319l-131 -211h413l-38 -209h-504l-174 -280h-148l174 280h-227l37 209h319l131 211h-413l37 209h507l172 279h148l-172 -279h225z" />
    <glyph glyph-name="lessequal" unicode="&#x2264;" horiz-adv-x="1075" 
d="M1112 1300l-43 -243l-645 -201l573 -201l-39 -223l-811 334l19 100l16 101zM39 143l37 209h870l-37 -209h-870z" />
    <glyph glyph-name="greaterequal" unicode="&#x2265;" horiz-adv-x="1075" 
d="M242 1300l811 -333l-17 -101l-18 -100l-930 -334l43 244l647 201l-575 200zM39 143l37 209h870l-37 -209h-870z" />
    <glyph glyph-name="lozenge" unicode="&#x25ca;" horiz-adv-x="1126" 
d="M383 0l-254 717l506 717h180l256 -717l-508 -717h-180zM514 281l322 456l-148 416l-323 -457z" />
    <glyph glyph-name="i.loclTRK" horiz-adv-x="477" 
d="M350 1143q-59 0 -94 42t-23 101q9 59 58.5 101.5t107.5 42.5q60 0 95 -42.5t26 -101.5q-12 -60 -61 -101.5t-109 -41.5zM39 0l180 1024h221l-180 -1024h-221z" />
    <glyph glyph-name="f_f_j" horiz-adv-x="1675" 
d="M1638 1024l-188 -1065q-38 -218 -159 -314t-330 -81l38 213q100 -9 156 33.5t74 148.5l151 852h-342l-141 -811h-221l141 811h-340l-143 -811h-221l143 811h-156l37 213h156l4 20q37 220 173 325.5t364 90.5l-37 -213q-241 22 -279 -203l-4 -20h342l6 41
q38 216 170.5 316t368.5 100q104 0 221 -27l-35 -203q-99 17 -201 17q-132 0 -208 -46.5t-95 -156.5l-6 -41h561z" />
    <glyph glyph-name="f_j" horiz-adv-x="1112" 
d="M1075 1024l-188 -1065q-38 -218 -159.5 -314t-330.5 -81l39 213q100 -9 156 33.5t74 148.5l151 852h-340l-143 -811h-221l143 811h-156l37 213h156l4 20q36 216 169 316t368 100q108 0 221 -26l-35 -203q-93 16 -201 16q-132 0 -207 -46t-94 -157l-4 -20h561z" />
    <glyph glyph-name="uni0414.loclBGR" horiz-adv-x="1474" 
d="M1231 225h153l-90 -499h-235l49 274h-922l-49 -274h-235l88 499h153l615 1209h282zM397 225h594l-131 936z" />
    <glyph glyph-name="uni041B.loclBGR" horiz-adv-x="1277" 
d="M-80 0l739 1434h283l236 -1434h-246l-168 1155l-582 -1155h-262z" />
    <glyph glyph-name="uni0424.loclBGR" horiz-adv-x="1753" 
d="M1155 1450q147 -18 264 -80.5t191.5 -159t102.5 -229t1 -283.5q-55 -311 -274 -500.5t-545 -217.5l-33 -185h-225l33 189q-300 37 -456 242t-103 509q55 311 274.5 501t544.5 218l33 184h225zM346 717q-40 -220 54 -355.5t309 -164.5l182 1040q-224 -29 -365.5 -164
t-179.5 -356zM1479 717q38 222 -55 356.5t-308 163.5l-182 -1040q223 29 364 164t181 356z" />
    <glyph glyph-name="uni0414.ss01" horiz-adv-x="1433" 
d="M1380 1434l-213 -1209h156l-41 -225h-1341l39 225h133q152 159 213 494l125 715h929zM379 225h555l174 987h-459l-88 -497q-59 -332 -182 -490z" />
    <glyph glyph-name="uni0426.ss01" horiz-adv-x="1413" 
d="M1149 225h154l-41 -225h-1209l252 1434h236l-211 -1209h583l211 1209h236z" />
    <glyph glyph-name="uni0429.ss01" horiz-adv-x="2007" 
d="M1743 225h153l-41 -225h-1802l252 1434h236l-211 -1209h471l211 1209h235l-211 -1209h471l211 1209h236z" />
    <glyph glyph-name="uni0414.loclBGR.ss01" horiz-adv-x="1474" 
d="M1231 225h153l-41 -225h-1392l39 225h153l615 1209h282zM397 225h594l-131 936z" />
    <glyph glyph-name="uni0432.loclBGR" horiz-adv-x="1165" 
d="M895 817q107 -53 156 -157.5t24 -247.5q-37 -213 -179.5 -326t-371.5 -113q-212 0 -326 140.5t-75 365.5l86 492q41 234 177.5 361.5t346.5 127.5q174 0 275.5 -105.5t74.5 -264.5q-23 -149 -188 -273zM709 1251q-104 0 -180 -76t-99 -208l-24 -148l139 29q66 14 137 14
q164 108 182 225q12 73 -29 118.5t-126 45.5zM854 428q25 139 -66 197t-278 20l-139 -29l-27 -147q-23 -134 32.5 -208.5t176.5 -74.5q123 0 202.5 64t98.5 178z" />
    <glyph glyph-name="uni0433.loclBGR" horiz-adv-x="950" 
d="M406 -27q-178 0 -284 99t-79 250q14 75 53.5 128t92.5 81t114.5 46.5t121 30t109.5 25t84 38.5t41 64q9 53 -30.5 84t-102.5 31q-65 0 -120.5 -32t-88.5 -91l-176 107q60 103 163 160t241 57q162 0 263 -101t75 -245q-12 -73 -51 -125.5t-91.5 -80.5t-114 -46.5
t-121.5 -30t-110.5 -24.5t-85 -36.5t-41.5 -60.5q-10 -60 34 -92.5t118 -32.5q84 0 150 41.5t104 112.5l174 -115q-63 -113 -176.5 -177.5t-265.5 -64.5z" />
    <glyph glyph-name="uni0434.loclBGR" horiz-adv-x="1294" 
d="M1038 1024h217l-172 -977q-22 -124 -76.5 -218.5t-133.5 -151.5t-174 -85t-205 -28q-167 0 -288.5 64t-176.5 184l198 102q66 -150 281 -150q149 0 241 73t117 210l19 107q-147 -160 -371 -160q-156 0 -265 77.5t-152 202t-19 271.5q35 218 197 362t376 144
q121 0 214 -52t143 -147zM571 203q138 0 244.5 87t132.5 226q14 75 -2 138t-55.5 103.5t-95.5 62.5t-121 22q-134 0 -243.5 -86.5t-131.5 -227.5q-23 -141 53.5 -233t218.5 -92z" />
    <glyph glyph-name="uni0436.loclBGR" horiz-adv-x="1478" 
d="M-59 0l497 545l-297 479h228l272 -444l152 854h217l-154 -861l416 451h250l-475 -512l309 -512h-228l-288 479l-84 -479h-217l84 475l-439 -475h-243z" />
    <glyph glyph-name="uni0438.loclBGR" horiz-adv-x="1165" 
d="M905 1024h221l-180 -1024h-221l23 123q-64 -75 -151 -112.5t-183 -37.5q-176 0 -269.5 114t-60.5 308l111 629h221l-107 -606q-20 -117 30 -177.5t159 -60.5q110 0 194 67t113 202z" />
    <glyph glyph-name="uni0439.loclBGR" horiz-adv-x="1165" 
d="M999 1360l-32 -193h-574l33 193h573zM905 1024h221l-180 -1024h-221l23 123q-64 -75 -151 -112.5t-183 -37.5q-176 0 -269.5 114t-60.5 308l111 629h221l-107 -606q-20 -117 30 -177.5t159 -60.5q110 0 194 67t113 202z" />
    <glyph glyph-name="uni043A.loclBGR" horiz-adv-x="1044" 
d="M1098 1024l-535 -502l371 -522h-246l-342 492l-86 -492h-221l252 1434h221l-150 -846l465 436h271z" />
    <glyph glyph-name="uni043B.loclBGR" horiz-adv-x="1003" 
d="M903 0h-227l-121 760l-389 -760h-246l555 1024h236z" />
    <glyph glyph-name="uni043F.loclBGR" horiz-adv-x="1165" 
d="M752 1051q176 0 269 -114t60 -308l-110 -629h-221l106 606q20 117 -29.5 177.5t-158.5 60.5q-110 0 -194.5 -67t-113.5 -202l-100 -575h-221l180 1024h221l-22 -123q64 75 151 112.5t183 37.5z" />
    <glyph glyph-name="uni0442.loclBGR" horiz-adv-x="1738" 
d="M1335 1051q169 0 261 -114.5t59 -301.5l-111 -635h-221l109 621q19 106 -24.5 164.5t-137.5 58.5q-97 0 -168 -64t-96 -192l-105 -588h-221l108 621q19 107 -21 165t-132 58q-93 0 -165 -58t-103 -176l-107 -610h-221l180 1024h221l-20 -113q128 140 309 140
q97 0 165 -42.5t101 -121.5q66 81 154.5 122.5t185.5 41.5z" />
    <glyph glyph-name="uni0446.loclBGR" horiz-adv-x="1243" 
d="M1053 209h86l-86 -483h-217l51 288q-85 27 -111 115q-135 -156 -352 -156q-186 0 -279 115t-59 307l111 629h221l-107 -606q-20 -115 30 -176.5t157 -61.5q115 0 201 73.5t112 223.5l96 547h221l-131 -748q-6 -31 9.5 -49t46.5 -18z" />
    <glyph glyph-name="uni0448.loclBGR" horiz-adv-x="1738" 
d="M1479 1024h221l-180 -1024h-222l21 113q-128 -140 -309 -140q-97 0 -165.5 42.5t-101.5 121.5q-66 -81 -154.5 -122.5t-185.5 -41.5q-169 0 -260.5 114.5t-58.5 301.5l111 635h221l-109 -621q-19 -106 24.5 -164.5t137.5 -58.5q97 0 168 64t96 192l105 588h221l-109 -621
q-19 -107 21.5 -165t132.5 -58q93 0 165 58t103 176z" />
    <glyph glyph-name="uni0449.loclBGR" horiz-adv-x="1816" 
d="M1626 209h86l-86 -483h-217l51 288q-82 27 -110 109q-129 -150 -330 -150q-100 0 -170.5 42.5t-104.5 121.5q-133 -164 -342 -164q-169 0 -260 114.5t-59 303.5l113 633h221l-109 -621q-19 -106 23.5 -164.5t136.5 -58.5q96 0 166 61.5t98 186.5l105 596h221l-109 -621
q-19 -105 22 -164t132 -59q100 0 175 66.5t99 197.5l103 580h221l-131 -748q-6 -31 9 -49t46 -18z" />
    <glyph glyph-name="uni044C.loclBGR" horiz-adv-x="999" 
d="M573 723q184 0 278.5 -108.5t63.5 -280.5q-28 -162 -153 -261.5t-311 -99.5q-127 0 -219 55t-130.5 146t-19.5 197l115 653h217l-54 -301h213zM700 354q14 77 -28.5 123.5t-132.5 46.5h-213l-27 -153q-15 -84 32.5 -136.5t141.5 -52.5q91 0 153.5 51t73.5 121z" />
    <glyph glyph-name="uni044A.loclBGR" horiz-adv-x="1175" 
d="M750 723q184 0 278.5 -109t63.5 -280q-28 -162 -153.5 -261.5t-311.5 -99.5q-127 0 -219 55t-130.5 146t-19.5 197l78 444h-283l37 209h500l-53 -301h213zM877 354q14 75 -29 122.5t-133 47.5h-213l-27 -153q-15 -84 32.5 -136.5t141.5 -52.5q91 0 154 51t74 121z" />
    <glyph glyph-name="uni044E.loclBGR" horiz-adv-x="1654" 
d="M1133 1051q149 0 261 -75t161.5 -203.5t23.5 -280.5q-41 -229 -215 -374t-393 -145q-206 0 -332.5 122t-134.5 313h-172l-72 -408h-221l252 1434h221l-143 -818h166q63 198 226.5 316.5t371.5 118.5zM1362 516q13 74 -2 135.5t-52.5 101t-91 61.5t-116.5 22
q-132 0 -240 -87.5t-135 -236.5q-25 -149 51.5 -236.5t208.5 -87.5q133 0 241.5 88t135.5 240z" />
    <glyph glyph-name="zero.sinf" horiz-adv-x="839" 
d="M274 -354q-163 0 -247.5 125t-49.5 323t152 311t287 113q161 0 245.5 -125t49.5 -321q-34 -200 -149.5 -313t-287.5 -113zM301 -168q83 0 140.5 64t78.5 186q21 121 -13.5 185.5t-117.5 64.5q-84 0 -140.5 -64t-78.5 -186t12.5 -186t118.5 -64z" />
    <glyph glyph-name="one.sinf" horiz-adv-x="526" 
d="M252 492h164l-146 -820h-188l108 615l-180 -51l-20 167z" />
    <glyph glyph-name="two.sinf" horiz-adv-x="712" 
d="M-92 -328l22 131l377 318q50 42 73.5 71.5t29.5 61.5q8 40 -15.5 65t-70.5 25q-49 0 -86.5 -29t-73.5 -86l-148 93q52 91 139 143.5t195 52.5q127 0 198 -76t50 -198q-10 -65 -53.5 -120.5t-124.5 -121.5l-189 -156h308l-29 -174h-602z" />
    <glyph glyph-name="three.sinf" horiz-adv-x="708" 
d="M610 492l-26 -148l-187 -194q83 -28 123 -93.5t25 -152.5q-23 -126 -116 -192t-236 -66q-216 0 -285 178l166 86q20 -51 53 -73.5t90 -22.5q59 0 95 27.5t44 74.5q7 47 -22 74.5t-86 27.5h-31l-55 111l182 188h-315l28 175h553z" />
    <glyph glyph-name="four.sinf" horiz-adv-x="729" 
d="M600 -16l-31 -172h-88l-24 -140h-183l25 140h-397l30 172l361 508h211l-352 -508h176l28 161h183l-29 -161h90z" />
    <glyph glyph-name="five.sinf" horiz-adv-x="681" 
d="M567 319h-325l-35 -135h84q122 0 193.5 -77t47.5 -207q-21 -126 -110.5 -190t-228.5 -64q-213 0 -279 178l166 84q33 -96 137 -96q58 0 94.5 28t44.5 74q9 50 -17.5 79.5t-82.5 29.5h-264l114 469h492z" />
    <glyph glyph-name="six.sinf" horiz-adv-x="700" 
d="M317 225q125 -7 193.5 -94t48.5 -209q-22 -125 -119 -200.5t-239 -75.5q-134 0 -210.5 88t-53.5 213q18 104 86 172l303 373h213zM383 -66q10 58 -20.5 91.5t-92.5 33.5t-103.5 -33.5t-51.5 -91.5q-12 -57 18 -90.5t92 -33.5q63 0 105 33.5t53 90.5z" />
    <glyph glyph-name="seven.sinf" horiz-adv-x="606" 
d="M6 492h559l-24 -146l-385 -674h-205l375 645h-351z" />
    <glyph glyph-name="eight.sinf" horiz-adv-x="706" 
d="M592 268q-17 -112 -127 -170q51 -35 73.5 -90.5t12.5 -122.5q-17 -113 -109 -176t-237 -63q-137 0 -212 71t-56 185q24 138 165 204q-41 32 -60 79t-9 102q20 110 108 170.5t211 60.5q116 0 188.5 -69.5t51.5 -180.5zM199 264q-8 -43 17 -67.5t79 -24.5q52 0 85.5 24.5
t41.5 67.5q7 43 -18 67.5t-76 24.5q-55 0 -88 -24.5t-41 -67.5zM377 -82q9 49 -20.5 78t-88.5 29q-61 0 -99 -28.5t-46 -78.5q-9 -48 18.5 -77t89.5 -29q61 0 99.5 29t46.5 77z" />
    <glyph glyph-name="nine.sinf" horiz-adv-x="700" 
d="M348 518q132 0 209 -88t55 -213q-18 -102 -86 -170l-301 -375h-211l222 267q-125 6 -197.5 94.5t-50.5 208.5q23 125 121 200.5t239 75.5zM166 229q-10 -58 20.5 -91.5t92.5 -33.5t103.5 33.5t51.5 91.5q12 57 -18 91t-92 34q-63 0 -105 -34t-53 -91z" />
    <glyph glyph-name="zero.tf" horiz-adv-x="1177" 
d="M504 -27q-172 0 -286 97.5t-153 270t1 392.5q60 338 237.5 532.5t446.5 194.5q171 0 284 -97.5t152 -270t0 -392.5q-60 -338 -236.5 -532.5t-445.5 -194.5zM535 203q159 0 266 132.5t151 381.5q43 248 -17 381t-218 133t-266 -133t-152 -381q-43 -248 17.5 -381
t218.5 -133z" />
    <glyph glyph-name="one.tf" horiz-adv-x="1177" 
d="M682 225h399l-39 -225h-1067l41 225h430l168 951v-2l-301 -82l-22 208l399 134h205z" />
    <glyph glyph-name="two.tf" horiz-adv-x="1177" 
d="M-14 0l32 184l603 463q136 104 209.5 183.5t89.5 164.5q18 104 -36.5 170t-174.5 66q-194 0 -326 -209l-186 121q92 154 237 235.5t314 81.5q133 0 235 -61t149.5 -169.5t24.5 -240.5q-25 -138 -115.5 -248t-265.5 -241l-364 -273h635l-41 -227h-1020z" />
    <glyph glyph-name="three.tf" horiz-adv-x="1177" 
d="M1208 1434l-34 -201l-373 -377q156 -43 239.5 -160t53.5 -284q-26 -145 -112 -245.5t-209 -147t-275 -46.5q-192 0 -320.5 85.5t-167.5 246.5l215 111q25 -100 100.5 -156.5t192.5 -56.5q139 0 229.5 62.5t110.5 172.5q20 113 -47.5 174.5t-212.5 61.5h-49l-72 143
l391 395h-651l39 222h952z" />
    <glyph glyph-name="four.tf" horiz-adv-x="1177" 
d="M1137 477l-39 -219h-170l-45 -258h-238l45 258h-708l38 219l654 957h266l-655 -957h444l64 352h237l-63 -352h170z" />
    <glyph glyph-name="five.tf" horiz-adv-x="1177" 
d="M1174 1212h-642l-79 -319h215q101 0 187 -32.5t146.5 -92t87 -150.5t7.5 -200q-19 -110 -72.5 -196t-132 -140t-174.5 -81.5t-205 -27.5q-190 0 -318.5 85.5t-170.5 246.5l213 113q25 -102 101.5 -158.5t197.5 -56.5q135 0 221 61.5t106 169.5q19 108 -45.5 169
t-200.5 61h-450l188 770h858z" />
    <glyph glyph-name="six.tf" horiz-adv-x="1177" 
d="M647 963q126 0 224 -41.5t154.5 -111.5t79 -162.5t5.5 -194.5q-35 -209 -197 -344.5t-417 -135.5q-127 0 -226 42t-156 113t-78.5 164t-2.5 195q27 164 141 287l592 660h278l-419 -471h22zM877 469q23 125 -47.5 197.5t-211.5 72.5q-143 0 -236.5 -72t-115.5 -198
q-23 -127 46.5 -199.5t211.5 -72.5t236 73t117 199z" />
    <glyph glyph-name="seven.tf" horiz-adv-x="1177" 
d="M223 1434h1045l-35 -205l-760 -1229h-260l745 1208h-774z" />
    <glyph glyph-name="eight.tf" horiz-adv-x="1177" 
d="M1174 1040q-36 -200 -228 -301q95 -59 138 -151t24 -201q-35 -197 -195 -305.5t-411 -108.5q-245 0 -375.5 119t-95.5 316q20 113 93.5 201.5t190.5 140.5q-73 53 -106 131.5t-16 175.5q24 132 106.5 224.5t198.5 135.5t256 43q99 0 183 -28t143.5 -79.5t85.5 -132.5
t8 -180zM426 1038q-15 -92 44 -145t177 -53t196 53t93 145q18 95 -41.5 147t-177.5 52t-195 -51.5t-96 -147.5zM877 420q19 106 -49.5 164.5t-215.5 58.5t-236 -58.5t-106 -164.5q-20 -106 50 -164.5t215 -58.5q147 0 235 58t107 165z" />
    <glyph glyph-name="nine.tf" horiz-adv-x="1177" 
d="M756 1460q128 0 226.5 -41.5t155 -112.5t78 -163.5t3.5 -194.5q-27 -157 -136 -278l-596 -670h-280l418 471h-23q-125 0 -222.5 41t-154.5 111t-80 162t-6 194q17 101 66 187.5t126 152.5t186.5 103.5t238.5 37.5zM373 967q-22 -126 48 -199.5t210 -73.5q144 0 238 72.5
t116 200.5q23 125 -46.5 197.5t-211.5 72.5t-236.5 -72t-117.5 -198z" />
    <glyph glyph-name="zero.dnom" horiz-adv-x="839" 
d="M332 -27q-163 0 -247.5 125.5t-49.5 323.5t151.5 311t286.5 113q161 0 245.5 -125.5t49.5 -321.5q-34 -200 -149.5 -313t-286.5 -113zM358 160q83 0 141 64.5t79 185.5t-14 185t-118 64q-84 0 -140.5 -63.5t-78.5 -185.5t12.5 -186t118.5 -64z" />
    <glyph glyph-name="one.dnom" horiz-adv-x="534" 
d="M309 819h164l-145 -819h-189l109 614l-180 -51l-21 168z" />
    <glyph glyph-name="two.dnom" horiz-adv-x="718" 
d="M-35 0l23 131l377 318q50 42 73 71.5t29 61.5q8 40 -15.5 65t-70.5 25q-49 0 -86.5 -29t-73.5 -86l-147 92q52 91 139 144t195 53q127 0 197.5 -76t49.5 -199q-10 -64 -53 -119t-125 -122l-188 -156h307l-29 -174h-602z" />
    <glyph glyph-name="three.dnom" horiz-adv-x="716" 
d="M670 819l-27 -147l-186 -195q82 -28 122 -93.5t25 -152.5q-23 -126 -116 -192t-236 -66q-216 0 -285 179l166 86q20 -52 53.5 -74.5t89.5 -22.5q59 0 95.5 28t44.5 75q7 47 -22.5 74.5t-86.5 27.5h-31l-55 111l182 188h-315l29 174h553z" />
    <glyph glyph-name="four.dnom" horiz-adv-x="729" 
d="M657 311l-30 -172h-88l-25 -139h-182l24 139h-397l31 172l360 508h211l-352 -508h176l29 162h182l-29 -162h90z" />
    <glyph glyph-name="five.dnom" horiz-adv-x="692" 
d="M627 647h-326l-35 -135h84q122 0 194 -77.5t48 -207.5q-21 -126 -111 -190t-229 -64q-213 0 -279 179l166 84q34 -97 137 -97q58 0 95 28.5t45 74.5q9 50 -17.5 79t-83.5 29h-264l115 469h491z" />
    <glyph glyph-name="six.dnom" horiz-adv-x="700" 
d="M377 553q125 -7 193 -94t48 -209q-22 -125 -119 -201t-239 -76q-134 0 -210.5 88t-53.5 213q18 104 86 172l303 373h213zM442 262q10 58 -20 91.5t-92 33.5t-104 -33.5t-52 -91.5q-12 -57 18.5 -91t92.5 -34q63 0 104.5 34t52.5 91z" />
    <glyph glyph-name="seven.dnom" horiz-adv-x="606" 
d="M63 819h560l-25 -145l-385 -674h-205l375 645h-350z" />
    <glyph glyph-name="eight.dnom" horiz-adv-x="706" 
d="M649 596q-17 -112 -127 -170q51 -35 73.5 -90.5t12.5 -122.5q-17 -114 -109 -177t-237 -63q-137 0 -212 71t-56 185q12 68 55.5 121t110.5 84q-90 70 -70 180t108.5 171t211.5 61q116 0 188 -69.5t51 -180.5zM256 592q-8 -43 17 -67.5t79 -24.5q52 0 85.5 24.5t41.5 67.5
q7 43 -18 67.5t-76 24.5q-55 0 -88 -24.5t-41 -67.5zM434 246q9 49 -20 77.5t-88 28.5q-61 0 -99.5 -28t-46.5 -78q-9 -48 19 -77.5t90 -29.5q60 0 98.5 29.5t46.5 77.5z" />
    <glyph glyph-name="nine.dnom" horiz-adv-x="698" 
d="M406 846q132 0 209 -88t55 -213q-18 -102 -86 -170l-301 -375h-211l221 266q-125 6 -197.5 94.5t-50.5 208.5q23 125 121.5 201t239.5 76zM223 557q-10 -58 20.5 -91.5t92.5 -33.5t104 33.5t52 91.5q12 57 -18.5 91t-92.5 34q-63 0 -105 -34t-53 -91z" />
    <glyph glyph-name="zero.numr" horiz-adv-x="839" 
d="M440 588q-163 0 -247.5 125t-49.5 323t152 311t287 113q161 0 245.5 -125t49.5 -321q-34 -200 -149.5 -313t-287.5 -113zM467 774q83 0 140.5 64t78.5 186q21 121 -13.5 185.5t-117.5 64.5q-84 0 -140.5 -64t-78.5 -186t12.5 -186t118.5 -64z" />
    <glyph glyph-name="one.numr" horiz-adv-x="534" 
d="M418 1434h164l-146 -820h-188l108 615l-180 -51l-20 168z" />
    <glyph glyph-name="two.numr" horiz-adv-x="718" 
d="M74 614l22 131l377 318q50 42 73 71.5t29 61.5q8 40 -15.5 65t-70.5 25q-49 0 -86 -28.5t-73 -86.5l-148 93q52 91 139 143.5t195 52.5q127 0 198 -76t50 -198q-10 -65 -53.5 -120.5t-124.5 -121.5l-189 -156h308l-29 -174h-602z" />
    <glyph glyph-name="three.numr" horiz-adv-x="716" 
d="M776 1434l-26 -148l-187 -194q83 -28 123 -93.5t25 -152.5q-23 -126 -116.5 -192t-236.5 -66q-215 0 -284 178l166 86q20 -51 53 -73.5t90 -22.5q59 0 95 27.5t44 74.5q7 47 -22 75t-86 28h-31l-55 110l182 189h-315l28 174h553z" />
    <glyph glyph-name="four.numr" horiz-adv-x="729" 
d="M766 926l-31 -172h-88l-24 -140h-183l25 140h-397l30 172l361 508h211l-353 -508h177l28 161h183l-29 -161h90z" />
    <glyph glyph-name="five.numr" horiz-adv-x="690" 
d="M733 1262h-325l-35 -136h84q122 0 193.5 -77t47.5 -207q-21 -126 -111 -190t-229 -64q-212 0 -278 178l166 84q33 -96 137 -96q58 0 94.5 28t44.5 74q9 50 -17.5 79.5t-82.5 29.5h-264l114 469h492z" />
    <glyph glyph-name="six.numr" horiz-adv-x="698" 
d="M483 1167q125 -7 193.5 -94t48.5 -209q-22 -125 -119 -200.5t-239 -75.5q-135 0 -211.5 88t-53.5 213q18 104 86 172l304 373h213zM549 877q10 58 -20.5 91t-92.5 33t-103.5 -33t-51.5 -91q-12 -57 18 -91t92 -34q63 0 105 34t53 91z" />
    <glyph glyph-name="seven.numr" horiz-adv-x="606" 
d="M172 1434h559l-24 -146l-385 -674h-205l375 646h-351z" />
    <glyph glyph-name="eight.numr" horiz-adv-x="706" 
d="M758 1210q-17 -112 -127 -170q51 -35 73.5 -90.5t12.5 -122.5q-17 -113 -109 -176t-237 -63q-137 0 -212.5 71t-56.5 185q12 68 55.5 121t110.5 84q-89 69 -69 180q20 110 108 170.5t211 60.5q116 0 188.5 -69.5t51.5 -180.5zM365 1206q-8 -43 17 -67.5t79 -24.5
q52 0 85.5 24.5t41.5 67.5q7 43 -18 67.5t-76 24.5q-55 0 -88 -24.5t-41 -67.5zM543 860q9 49 -20.5 78t-88.5 29q-61 0 -99 -28.5t-46 -78.5q-9 -48 18.5 -77t89.5 -29q61 0 99.5 29t46.5 77z" />
    <glyph glyph-name="nine.numr" horiz-adv-x="698" 
d="M514 1460q132 0 209 -88t55 -213q-18 -102 -86 -170l-301 -375h-211l221 267q-124 6 -196.5 94.5t-50.5 208.5q23 125 121 200.5t239 75.5zM332 1171q-10 -58 20 -91t92 -33t104 33t52 91q12 57 -18.5 91t-92.5 34q-63 0 -104.5 -34t-52.5 -91z" />
    <glyph glyph-name="zero.sups" horiz-adv-x="839" 
d="M498 915q-163 0 -247.5 125.5t-49.5 323.5t151.5 311t286.5 113q161 0 245.5 -125.5t49.5 -321.5q-34 -200 -149.5 -313t-286.5 -113zM524 1102q83 0 140.5 64t78.5 186q21 121 -13.5 185.5t-117.5 64.5q-84 0 -140.5 -64t-78.5 -186t12.5 -186t118.5 -64z" />
    <glyph glyph-name="one.sups" horiz-adv-x="534" 
d="M477 1761h164l-145 -819h-189l109 614l-180 -51l-21 168z" />
    <glyph glyph-name="two.sups" horiz-adv-x="718" 
d="M131 942l23 131l376 318q50 42 73.5 71.5t29.5 61.5q8 40 -15.5 65t-70.5 25q-49 0 -86.5 -29t-73.5 -86l-147 92q52 92 138.5 144.5t194.5 52.5q127 0 198 -76.5t50 -198.5q-10 -64 -53 -119t-125 -122l-188 -156h307l-29 -174h-602z" />
    <glyph glyph-name="three.sups" horiz-adv-x="716" 
d="M836 1761l-27 -147l-186 -195q83 -28 122.5 -93t24.5 -152q-23 -126 -116 -192.5t-236 -66.5q-216 0 -285 179l166 86q20 -52 53.5 -74.5t89.5 -22.5q59 0 95.5 28t44.5 75q7 47 -22.5 74.5t-86.5 27.5h-31l-55 111l182 188h-315l29 174h553z" />
    <glyph glyph-name="four.sups" horiz-adv-x="729" 
d="M823 1253l-30 -172h-88l-25 -139h-182l24 139h-397l31 172l360 508h211l-352 -508h176l29 162h182l-29 -162h90z" />
    <glyph glyph-name="five.sups" horiz-adv-x="690" 
d="M793 1589h-326l-35 -135h84q122 0 194 -77.5t48 -207.5q-21 -126 -111 -190t-229 -64q-213 0 -279 179l166 84q34 -97 137 -97q58 0 95 28.5t45 74.5q9 50 -17.5 79t-83.5 29h-264l115 469h491z" />
    <glyph glyph-name="six.sups" horiz-adv-x="698" 
d="M543 1495q125 -7 193 -94t48 -209q-22 -125 -119 -201t-239 -76q-134 0 -210.5 88.5t-53.5 213.5q18 104 86 172l303 372h213zM608 1204q10 58 -20 91.5t-92 33.5t-104 -33.5t-52 -91.5q-12 -57 18.5 -91t92.5 -34q63 0 104.5 34t52.5 91z" />
    <glyph glyph-name="seven.sups" horiz-adv-x="608" 
d="M231 1761h560l-25 -145l-385 -674h-205l375 645h-350z" />
    <glyph glyph-name="eight.sups" horiz-adv-x="706" 
d="M815 1538q-17 -112 -127 -170q51 -35 73.5 -90.5t12.5 -122.5q-17 -114 -109 -177t-237 -63q-137 0 -212 71t-56 185q12 68 55.5 121t110.5 84q-90 70 -70 180t108 171t211 61q116 0 188.5 -69.5t51.5 -180.5zM422 1534q-8 -43 17 -67.5t79 -24.5q52 0 85.5 24.5
t41.5 67.5q7 43 -18 67.5t-76 24.5q-55 0 -88 -24.5t-41 -67.5zM600 1188q9 49 -20 77.5t-88 28.5q-61 0 -99.5 -28t-46.5 -78q-9 -48 19 -77.5t90 -29.5q60 0 98.5 29.5t46.5 77.5z" />
    <glyph glyph-name="nine.sups" horiz-adv-x="698" 
d="M571 1788q132 0 209.5 -88t55.5 -213q-18 -102 -86 -170l-301 -375h-211l221 266q-125 6 -197.5 94.5t-50.5 208.5q23 125 121.5 201t238.5 76zM389 1499q-10 -58 20.5 -91.5t92.5 -33.5t103.5 33.5t51.5 91.5q12 57 -18 91t-92 34q-63 0 -105 -34t-53 -91z" />
    <glyph glyph-name="cent.tf" horiz-adv-x="1177" 
d="M623 395q90 0 167 43t125 117l179 -115q-78 -127 -209 -194.5t-285 -67.5q-63 0 -133 17l-96 -195h-119l115 233q-130 68 -192.5 204t-35.5 302q25 149 112.5 266.5t219.5 183.5t285 66q52 0 110 -10l95 189h118l-108 -222q149 -67 211 -223l-199 -102q-36 87 -113 123
l-303 -611q36 -4 56 -4zM360 723q-15 -93 14.5 -168t94.5 -117l295 598q-8 2 -29 2q-138 0 -244 -88.5t-131 -226.5z" />
    <glyph glyph-name="dollar.tf" horiz-adv-x="1177" 
d="M741 811q34 -14 53.5 -22.5t53.5 -24t54.5 -28.5t50 -32t47 -38.5t38.5 -44.5t31.5 -53.5t18.5 -61t7.5 -71t-8.5 -81.5q-16 -89 -61 -159t-111 -116t-147.5 -72.5t-175.5 -31.5l-31 -180h-133l33 182q-172 17 -283 100.5t-153 219.5l213 109q57 -183 262 -203l75 428
q-33 13 -59 25t-56.5 27t-54.5 30.5t-50 34.5t-45 39.5t-36.5 44.5t-28.5 52t-17.5 58.5t-6 67t7.5 75.5q17 94 66 167t118.5 117t147.5 66.5t162 24.5l31 178h133l-33 -188q249 -48 344 -274l-209 -109q-61 128 -176 158zM467 1065q-13 -71 26 -117t123 -84l66 371
q-82 -6 -141 -51t-74 -119zM850 381q10 49 -9.5 87.5t-52.5 62.5t-88 49l-67 -375q90 13 146.5 59.5t70.5 116.5z" />
    <glyph glyph-name="Euro.tf" horiz-adv-x="1177" 
d="M627 203q172 0 286 196l185 -116q-79 -147 -208.5 -228.5t-291.5 -81.5q-199 0 -307 152t-103 407h-137l25 146h125q4 38 8 55q5 30 8 39h-125l27 146h133q78 258 230 400t366 142q141 0 245.5 -79t147.5 -218l-205 -108q-25 86 -81 131t-136 45q-220 0 -325 -313h403
l-27 -146h-417q-2 -9 -5.5 -27.5t-5.5 -27.5l-6 -39h418l-25 -146h-407q-5 -161 47 -245t158 -84z" />
    <glyph glyph-name="florin.tf" horiz-adv-x="1177" 
d="M741 1135q181 409 549 307l-37 -219q-98 35 -175 3t-117 -126l-119 -273h270l-39 -213h-323l-312 -718q-181 -410 -549 -308l37 219q100 -35 176.5 -3t116.5 126l297 684h-264l39 213h317z" />
    <glyph glyph-name="uni20BD.tf" horiz-adv-x="1177" 
d="M823 1434q121 0 217.5 -65.5t142 -176.5t23.5 -236q-34 -192 -184 -313t-358 -121h-242l-25 -137h430l-26 -160h-432l-39 -225h-236l39 225h-164l29 160h164l24 137h-163l36 211h164l123 701h477zM973 973q19 101 -36.5 170t-152.5 69h-241l-84 -479h241q96 0 175 70
t98 170z" />
    <glyph glyph-name="sterling.tf" horiz-adv-x="1177" 
d="M473 571l-61 -344h696l-41 -227h-1096l41 227h164l62 344h-134l37 207h131l43 238q38 221 169.5 332.5t324.5 111.5q144 0 250 -77t149 -212l-207 -108q-30 85 -82 126.5t-137 41.5q-86 0 -149.5 -54.5t-81.5 -160.5l-43 -238h446l-36 -207h-445z" />
    <glyph glyph-name="yen.tf" horiz-adv-x="1177" 
d="M1333 1434l-538 -703h295l-27 -149h-344l-19 -103h344l-24 -149h-344l-60 -330h-235l59 330h-342l25 149h342l18 103h-342l27 149h295l-293 703h254l217 -562l414 562h278z" />
    <glyph glyph-name="brevecy" horiz-adv-x="696" 
d="M178 1167l33 193h573l-32 -193h-574z" />
    </font>
</defs>
</svg>
